<?xml version="1.0" encoding="UTF-8" standalone="no"?><!DOCTYPE svg PUBLIC "-//W3C//DTD SVG 1.1//EN" "http://www.w3.org/Graphics/SVG/1.1/DTD/svg11.dtd"><svg width="100%" height="100%" viewBox="0 0 13750 9167" version="1.1" xmlns="http://www.w3.org/2000/svg" xmlns:xlink="http://www.w3.org/1999/xlink" xml:space="preserve" xmlns:serif="http://www.serif.com/" style="fill-rule:evenodd;clip-rule:evenodd;"><g id="Notes"><rect id="artboard" x="0" y="0" width="13750" height="9166.67" style="fill:#fff;"/><path d="M1095.83,1216.67l11554.2,-0" style="fill:none;fill-rule:nonzero;stroke:#000;stroke-width:2.08px;"/><text x="1095.83px" y="1341.67px" style="font-family:'Arial-BoldMT', 'Arial', sans-serif;font-weight:700;font-size:66.667px;">W<tspan x="1157.55px 1194.63px " y="1341.67px 1341.67px ">ei</tspan>ght/Scale V<tspan x="1568.85px 1605.92px " y="1341.67px 1341.67px ">ar</tspan>iations</text><text x="2200.6px" y="1341.67px" style="font-family:'ArialMT', 'Arial', sans-serif;font-size:66.667px;">Ultralight</text><text x="3503.58px" y="1341.67px" style="font-family:'ArialMT', 'Arial', sans-serif;font-size:66.667px;">Thin</text><text x="4732.43px" y="1341.67px" style="font-family:'ArialMT', 'Arial', sans-serif;font-size:66.667px;">Light</text><text x="5924.27px" y="1341.67px" style="font-family:'ArialMT', 'Arial', sans-serif;font-size:66.667px;">Regular</text><text x="7158.78px" y="1341.67px" style="font-family:'ArialMT', 'Arial', sans-serif;font-size:66.667px;">Medium</text><text x="8374.66px" y="1341.67px" style="font-family:'ArialMT', 'Arial', sans-serif;font-size:66.667px;">Semibold</text><text x="9683.2px" y="1341.67px" style="font-family:'ArialMT', 'Arial', sans-serif;font-size:66.667px;">Bold</text><text x="10891.7px" y="1341.67px" style="font-family:'ArialMT', 'Arial', sans-serif;font-size:66.667px;">Heavy</text><text x="12141px" y="1341.67px" style="font-family:'ArialMT', 'Arial', sans-serif;font-size:66.667px;">Black</text><path d="M1095.83,7929.17l11554.2,-0" style="fill:none;fill-rule:nonzero;stroke:#000;stroke-width:2.08px;"/><g><path d="M1134.37,8057.62c17.944,0 32.878,-14.892 32.878,-32.837c-0,-17.944 -14.975,-32.836 -32.919,-32.836c-17.903,-0 -32.796,14.892 -32.796,32.836c-0,17.945 14.933,32.837 32.837,32.837Zm-0,-6.185c-14.771,0 -26.571,-11.84 -26.571,-26.652c0,-14.811 11.76,-26.652 26.53,-26.652c14.812,0 26.652,11.841 26.693,26.652c0.041,14.812 -11.841,26.652 -26.652,26.652Zm-11.882,-23.6l8.789,0l0,8.83c0,1.831 1.221,3.092 3.012,3.092c1.871,0 3.092,-1.261 3.092,-3.092l-0,-8.83l8.87,0c1.832,0 3.093,-1.221 3.093,-3.011c-0,-1.831 -1.261,-3.092 -3.093,-3.092l-8.87,-0l-0,-8.789c-0,-1.872 -1.221,-3.133 -3.092,-3.133c-1.791,-0 -3.012,1.261 -3.012,3.133l0,8.789l-8.789,-0c-1.871,-0 -3.133,1.261 -3.133,3.092c0,1.79 1.262,3.011 3.133,3.011Z" style="fill-rule:nonzero;"/></g><g><path d="M1221.73,8066.29c22.705,0 41.504,-18.839 41.504,-41.504c-0,-22.705 -18.84,-41.503 -41.545,-41.503c-22.664,-0 -41.463,18.798 -41.463,41.503c0,22.665 18.84,41.504 41.504,41.504Zm0,-6.917c-19.206,0 -34.546,-15.381 -34.546,-34.587c0,-19.205 15.3,-34.586 34.505,-34.586c19.206,-0 34.587,15.381 34.628,34.586c0.04,19.206 -15.381,34.587 -34.587,34.587Zm-15.503,-31.169l12.044,0l0,12.126c0,2.035 1.384,3.418 3.378,3.418c2.034,0 3.458,-1.383 3.458,-3.418l0,-12.126l12.126,0c2.035,0 3.418,-1.383 3.418,-3.377c0,-2.034 -1.383,-3.459 -3.418,-3.459l-12.126,0l0,-12.044c0,-2.116 -1.424,-3.499 -3.458,-3.499c-1.994,-0 -3.378,1.424 -3.378,3.499l0,12.044l-12.044,0c-2.116,0 -3.499,1.425 -3.499,3.459c-0,1.994 1.424,3.377 3.499,3.377Z" style="fill-rule:nonzero;"/></g><g><path d="M1332.89,8077.77c29.012,-0 53.019,-24.007 53.019,-52.979c-0,-29.012 -24.048,-53.019 -53.06,-53.019c-28.971,0 -52.938,24.007 -52.938,53.019c0,28.972 24.007,52.979 52.979,52.979Zm-0,-7.568c-25.147,-0 -45.37,-20.264 -45.37,-45.411c0,-25.187 20.182,-45.41 45.329,-45.41c25.187,0 45.41,20.223 45.451,45.41c0.04,25.147 -20.223,45.411 -45.41,45.411Zm-20.467,-41.626l16.682,-0l0,16.723c0,2.238 1.547,3.784 3.703,3.784c2.238,0 3.785,-1.546 3.785,-3.784l-0,-16.723l16.764,-0c2.197,-0 3.784,-1.547 3.784,-3.703c-0,-2.238 -1.546,-3.825 -3.784,-3.825l-16.764,-0l-0,-16.683c-0,-2.319 -1.547,-3.866 -3.785,-3.866c-2.156,0 -3.703,1.587 -3.703,3.866l0,16.683l-16.682,-0c-2.32,-0 -3.866,1.587 -3.866,3.825c-0,2.156 1.587,3.703 3.866,3.703Z" style="fill-rule:nonzero;"/></g><text x="1095.83px" y="8137.5px" style="font-family:'Arial-BoldMT', 'Arial', sans-serif;font-weight:700;font-size:66.667px;">Design V<tspan x="1377.41px 1414.49px " y="8137.5px 8137.5px ">ar</tspan>iations</text><text x="1095.83px" y="8212.5px" style="font-family:'ArialMT', 'Arial', sans-serif;font-size:66.667px;">Symbols are supported in up to nine weights and three scales.</text><text x="1095.83px" y="8287.5px" style="font-family:'ArialMT', 'Arial', sans-serif;font-size:66.667px;">For optimal layout with text and other symbols, vertically align</text><text x="1095.83px" y="8362.5px" style="font-family:'ArialMT', 'Arial', sans-serif;font-size:66.667px;">symbols with the adjacent text.</text><path d="M3233.33,7995.83l0,58.334" style="fill:none;fill-rule:nonzero;stroke:#00aeef;stroke-width:2.08px;"/><g><path d="M3247.13,8054.7c2.157,-0 3.215,-0.814 3.988,-3.052l5.249,-14.404l24.007,-0l5.249,14.404c0.773,2.238 1.831,3.052 3.947,3.052c2.157,-0 3.54,-1.302 3.54,-3.337c0,-0.692 -0.122,-1.302 -0.447,-2.197l-19.084,-50.782c-0.936,-2.522 -2.604,-3.743 -5.208,-3.743c-2.523,0 -4.232,1.221 -5.127,3.703l-19.084,50.862c-0.326,0.896 -0.448,1.506 -0.448,2.198c0,2.034 1.302,3.296 3.418,3.296Zm11.231,-23.601l9.887,-27.384l0.204,-0l9.888,27.384l-19.979,0Z" style="fill-rule:nonzero;"/></g><path d="M3303.48,7995.83l0,58.334" style="fill:none;fill-rule:nonzero;stroke:#00aeef;stroke-width:2.08px;"/><text x="3233.33px" y="8137.5px" style="font-family:'Arial-BoldMT', 'Arial', sans-serif;font-weight:700;font-size:66.667px;">Margins</text><text x="3233.33px" y="8212.5px" style="font-family:'ArialMT', 'Arial', sans-serif;font-size:66.667px;">Leading and trailing margins on the left and right side of each symbol</text><text x="3233.33px" y="8287.5px" style="font-family:'ArialMT', 'Arial', sans-serif;font-size:66.667px;">can be adjusted by modifying the x-location of the margin guidelines.</text><text x="3233.33px" y="8362.5px" style="font-family:'ArialMT', 'Arial', sans-serif;font-size:66.667px;">Modiﬁcations are automatically applied proportionally to all</text><text x="3233.33px" y="8437.5px" style="font-family:'ArialMT', 'Arial', sans-serif;font-size:66.667px;">scales and weights.</text><g><path d="M5382.67,8061.94l7.08,7.121c3.581,3.622 7.691,3.378 11.556,-0.895l42.399,-46.712c1.099,0.366 2.238,0.285 3.54,0.041l4.436,-0.814l2.767,2.807l-0.163,2.32c-0.163,2.075 0.366,3.662 2.401,5.656l3.173,3.092c1.994,1.994 4.557,2.116 6.511,0.163l12.125,-12.167c1.954,-1.953 1.872,-4.435 -0.122,-6.429l-3.214,-3.173c-1.994,-1.994 -3.54,-2.645 -5.534,-2.483l-2.401,0.204l-2.685,-2.645l1.017,-4.679c0.529,-2.36 -0.122,-4.191 -2.564,-6.633l-9.155,-9.114c-13.916,-13.835 -32.389,-13.51 -44.433,-1.465c-1.75,1.709 -1.872,4.11 -0.896,5.737c0.977,1.506 2.889,2.482 5.575,1.79c6.103,-1.424 12.451,-1.668 18.392,2.238l-2.441,6.063c-0.814,1.994 -0.936,3.662 -0.408,5.168l-46.101,43.294c-4.11,3.825 -4.436,7.894 -0.855,11.515Zm32.959,-74.259c10.132,-7.406 23.845,-6.144 33.122,3.133l10.132,10.051c0.976,0.976 1.139,1.75 0.854,3.174l-1.343,6.184l6.267,6.185l4.11,-0.244c1.058,-0.041 1.383,0.041 2.197,0.855l2.401,2.4l-10.173,10.173l-2.401,-2.401c-0.814,-0.814 -0.936,-1.139 -0.895,-2.238l0.285,-4.069l-6.226,-6.185l-6.348,1.058c-1.342,0.285 -1.952,0.163 -2.97,-0.814l-8.341,-8.341c-1.058,-0.977 -1.18,-1.668 -0.529,-3.215l3.662,-8.707c-6.511,-6.063 -14.974,-8.667 -23.438,-6.185c-0.651,0.162 -0.895,-0.366 -0.366,-0.814Zm-22.827,76.091l-4.883,-4.843c-1.953,-1.912 -1.505,-3.336 0.163,-4.842l45.044,-42.399l6.103,6.185l-41.626,45.776c-1.464,1.669 -2.848,2.076 -4.801,0.123Z" style="fill-rule:nonzero;"/></g><text x="5370.83px" y="8137.5px" style="font-family:'Arial-BoldMT', 'Arial', sans-serif;font-weight:700;font-size:66.667px;">Exporting</text><text x="5370.83px" y="8212.5px" style="font-family:'ArialMT', 'Arial', sans-serif;font-size:66.667px;">Symbols should be outlined when exporting to ensure the</text><text x="5370.83px" y="8287.5px" style="font-family:'ArialMT', 'Arial', sans-serif;font-size:66.667px;">design is preserved when submitting to Xcode.</text><text id="template-version" x="12221.4px" y="8054.17px" style="font-family:'ArialMT', 'Arial', sans-serif;font-size:66.667px;">T<tspan x="12254.7px 12291.8px " y="8054.17px 8054.17px ">em</tspan>plate v<tspan x="12538.8px 12557.3px " y="8054.17px 8054.17px ">.2</tspan>.0</text><text x="11775.4px" y="8129.17px" style="font-family:'ArialMT', 'Arial', sans-serif;font-size:66.667px;">Requires Xcode 12 or greater</text><text x="12027.5px" y="8204.17px" style="font-family:'ArialMT', 'Arial', sans-serif;font-size:66.667px;">Generated from wind</text><text x="12016.2px" y="8279.17px" style="font-family:'ArialMT', 'Arial', sans-serif;font-size:66.667px;">T<tspan x="12053.3px 12086.6px " y="8279.17px 8279.17px ">yp</tspan>eset at 100 points</text><text x="1095.83px" y="3025px" style="font-family:'ArialMT', 'Arial', sans-serif;font-size:66.667px;">Small</text><text x="1095.83px" y="4816.67px" style="font-family:'ArialMT', 'Arial', sans-serif;font-size:66.667px;">Medium</text><text x="1095.83px" y="6608.33px" style="font-family:'ArialMT', 'Arial', sans-serif;font-size:66.667px;">Large</text></g><g id="Guides"><g id="H-reference"><path d="M1416.57,2900l11.19,0l38.859,-101.929l136.515,0l39.063,101.929l10.986,0l-113.119,-293.579l-10.376,-0l-113.118,293.579Zm118.205,-279.745l0.407,0l64.29,168.457l-129.191,0.001l64.494,-168.458Z" style="fill:#27aae1;fill-rule:nonzero;"/></g><path id="Baseline-S" d="M1095.83,2900l11554.2,0" style="fill:none;fill-rule:nonzero;stroke:#27aae1;stroke-width:2.08px;"/><path id="Capline-S" d="M1095.83,2606.42l11554.2,-0" style="fill:none;fill-rule:nonzero;stroke:#27aae1;stroke-width:2.08px;"/><g id="H-reference1" serif:id="H-reference"><path d="M1416.57,4691.67l11.19,-0l38.859,-101.929l136.515,-0l39.063,101.929l10.986,-0l-113.119,-293.579l-10.376,-0.001l-113.118,293.58Zm118.205,-279.745l0.407,0l64.29,168.457l-129.191,0l64.494,-168.457Z" style="fill:#27aae1;fill-rule:nonzero;"/></g><path id="Baseline-M" d="M1095.83,4691.67l11554.2,-0" style="fill:none;fill-rule:nonzero;stroke:#27aae1;stroke-width:2.08px;"/><path id="Capline-M" d="M1095.83,4398.08l11554.2,0" style="fill:none;fill-rule:nonzero;stroke:#27aae1;stroke-width:2.08px;"/><g id="H-reference2" serif:id="H-reference"><path d="M1416.57,6483.33l11.19,0l38.859,-101.928l136.515,-0l39.063,101.928l10.986,0l-113.119,-293.579l-10.376,0l-113.118,293.579Zm118.205,-279.744l0.407,-0l64.29,168.457l-129.191,-0l64.494,-168.457Z" style="fill:#27aae1;fill-rule:nonzero;"/></g><path id="Baseline-L" d="M1095.83,6483.33l11554.2,0" style="fill:none;fill-rule:nonzero;stroke:#27aae1;stroke-width:2.08px;"/><path id="Capline-L" d="M1095.83,6189.75l11554.2,0" style="fill:none;fill-rule:nonzero;stroke:#27aae1;stroke-width:2.08px;"/><path id="left-margin" d="M5780.08,4294.96l0,497.209" style="fill:none;fill-rule:nonzero;stroke:#00aeef;stroke-width:2.08px;"/><path id="right-margin" d="M6301.96,4294.96l0,497.209" style="fill:none;fill-rule:nonzero;stroke:#00aeef;stroke-width:2.08px;"/></g><g id="Symbols"><g id="Semibold-L"><path d="M8720.23,6209.43l-47.699,48.323l53.449,54.492l-276.383,0l-0,68.543l276.383,0l-53.449,54.15l47.699,48.665l135.316,-137.086l-135.316,-137.087Zm-405.949,-102.815l236.803,0l0,-68.543l-236.803,-0c-37.212,-0 -67.659,30.844 -67.659,68.543l0,479.803c0,37.699 30.447,68.544 67.659,68.544l236.803,-0l0,-68.544l-236.803,0l-0,-479.803Z" style="fill:#576270;fill-rule:nonzero;stroke:#576270;stroke-width:8.33px;stroke-linejoin:round;stroke-miterlimit:2;"/></g><g id="Regular-L"><path d="M6211.9,6209.43l-47.699,48.323l53.45,54.492l-276.383,0l-0,68.543l276.383,0l-53.45,54.15l47.699,48.665l135.316,-137.086l-135.316,-137.087Zm-405.949,-102.815l236.804,0l-0,-68.543l-236.804,-0c-37.212,-0 -67.658,30.844 -67.658,68.543l0,479.803c0,37.699 30.446,68.544 67.658,68.544l236.804,-0l-0,-68.544l-236.804,0l0,-479.803Z" style="fill:#576270;fill-rule:nonzero;"/></g><g id="Semibold-M"><path d="M8674.9,4433.67l-34.916,35.372l39.126,39.888l-202.312,0l-0,50.173l202.312,0l-39.126,39.638l34.916,35.623l99.051,-100.347l-99.051,-100.347Zm-297.153,-75.26l173.339,-0l0,-50.174l-173.339,0c-27.239,0 -49.526,22.578 -49.526,50.174l0,351.214c0,27.595 22.287,50.173 49.526,50.173l173.339,0l0,-50.173l-173.339,-0l-0,-351.214Z" style="fill:#576270;fill-rule:nonzero;stroke:#576270;stroke-width:8.33px;stroke-linejoin:round;stroke-miterlimit:2;"/></g><g id="Regular-M"><path d="M6166.57,4433.67l-34.916,35.372l39.125,39.888l-202.312,0l0,50.173l202.312,0l-39.125,39.638l34.916,35.623l99.051,-100.347l-99.051,-100.347Zm-297.154,-75.26l173.34,-0l-0,-50.174l-173.34,0c-27.239,0 -49.525,22.578 -49.525,50.174l-0,351.214c-0,27.595 22.286,50.173 49.525,50.173l173.34,0l-0,-50.173l-173.34,-0l0,-351.214Z" style="fill:#576270;fill-rule:nonzero;"/></g><g id="Semibold-S"><path d="M8621.09,2689.78l-19.741,20l22.122,22.553l-114.389,-0l-0,28.368l114.389,-0l-22.122,22.411l19.741,20.142l56.005,-56.737l-56.005,-56.737Zm-168.012,-42.553l98.007,0l0,-28.368l-98.007,-0c-15.402,-0 -28.003,12.765 -28.003,28.368l0,198.579c0,15.603 12.601,28.369 28.003,28.369l98.007,-0l0,-28.369l-98.007,0l-0,-198.579Z" style="fill:#576270;fill-rule:nonzero;stroke:#576270;stroke-width:8.33px;stroke-linejoin:round;stroke-miterlimit:2;"/></g><g id="Regular-S"><path d="M6112.76,2689.78l-19.741,20l22.121,22.553l-114.388,-0l-0,28.368l114.388,-0l-22.121,22.411l19.741,20.142l56.004,-56.737l-56.004,-56.737Zm-168.013,-42.553l98.008,0l-0,-28.368l-98.008,-0c-15.401,-0 -28.002,12.765 -28.002,28.368l0,198.579c0,15.603 12.601,28.369 28.002,28.369l98.008,-0l-0,-28.369l-98.008,0l0,-198.579Z" style="fill:#576270;fill-rule:nonzero;"/></g></g></svg>