<?xml version="1.0" encoding="UTF-8" standalone="no"?><!DOCTYPE svg PUBLIC "-//W3C//DTD SVG 1.1//EN" "http://www.w3.org/Graphics/SVG/1.1/DTD/svg11.dtd"><svg width="100%" height="100%" viewBox="0 0 13750 9167" version="1.1" xmlns="http://www.w3.org/2000/svg" xmlns:xlink="http://www.w3.org/1999/xlink" xml:space="preserve" xmlns:serif="http://www.serif.com/" style="fill-rule:evenodd;clip-rule:evenodd;"><g id="Notes"><rect id="artboard" x="0" y="0" width="13750" height="9166.67" style="fill:#fff;"/><path d="M1095.83,1216.67l11554.2,-0" style="fill:none;fill-rule:nonzero;stroke:#000;stroke-width:2.08px;"/><text x="1095.83px" y="1341.67px" style="font-family:'Arial-BoldMT', 'Arial', sans-serif;font-weight:700;font-size:66.667px;">W<tspan x="1157.55px 1194.63px " y="1341.67px 1341.67px ">ei</tspan>ght/Scale V<tspan x="1568.85px 1605.92px " y="1341.67px 1341.67px ">ar</tspan>iations</text><text x="2200.6px" y="1341.67px" style="font-family:'ArialMT', 'Arial', sans-serif;font-size:66.667px;">Ultralight</text><text x="3503.58px" y="1341.67px" style="font-family:'ArialMT', 'Arial', sans-serif;font-size:66.667px;">Thin</text><text x="4732.43px" y="1341.67px" style="font-family:'ArialMT', 'Arial', sans-serif;font-size:66.667px;">Light</text><text x="5924.27px" y="1341.67px" style="font-family:'ArialMT', 'Arial', sans-serif;font-size:66.667px;">Regular</text><text x="7158.78px" y="1341.67px" style="font-family:'ArialMT', 'Arial', sans-serif;font-size:66.667px;">Medium</text><text x="8374.66px" y="1341.67px" style="font-family:'ArialMT', 'Arial', sans-serif;font-size:66.667px;">Semibold</text><text x="9683.2px" y="1341.67px" style="font-family:'ArialMT', 'Arial', sans-serif;font-size:66.667px;">Bold</text><text x="10891.7px" y="1341.67px" style="font-family:'ArialMT', 'Arial', sans-serif;font-size:66.667px;">Heavy</text><text x="12141px" y="1341.67px" style="font-family:'ArialMT', 'Arial', sans-serif;font-size:66.667px;">Black</text><path d="M1095.83,7929.17l11554.2,-0" style="fill:none;fill-rule:nonzero;stroke:#000;stroke-width:2.08px;"/><g><path d="M1134.37,8057.62c17.944,0 32.878,-14.892 32.878,-32.837c-0,-17.944 -14.975,-32.836 -32.919,-32.836c-17.903,-0 -32.796,14.892 -32.796,32.836c-0,17.945 14.933,32.837 32.837,32.837Zm-0,-6.185c-14.771,0 -26.571,-11.84 -26.571,-26.652c0,-14.811 11.76,-26.652 26.53,-26.652c14.812,0 26.652,11.841 26.693,26.652c0.041,14.812 -11.841,26.652 -26.652,26.652Zm-11.882,-23.6l8.789,0l0,8.83c0,1.831 1.221,3.092 3.012,3.092c1.871,0 3.092,-1.261 3.092,-3.092l-0,-8.83l8.87,0c1.832,0 3.093,-1.221 3.093,-3.011c-0,-1.831 -1.261,-3.092 -3.093,-3.092l-8.87,-0l-0,-8.789c-0,-1.872 -1.221,-3.133 -3.092,-3.133c-1.791,-0 -3.012,1.261 -3.012,3.133l0,8.789l-8.789,-0c-1.871,-0 -3.133,1.261 -3.133,3.092c0,1.79 1.262,3.011 3.133,3.011Z" style="fill-rule:nonzero;"/></g><g><path d="M1221.73,8066.29c22.705,0 41.504,-18.839 41.504,-41.504c-0,-22.705 -18.84,-41.503 -41.545,-41.503c-22.664,-0 -41.463,18.798 -41.463,41.503c0,22.665 18.84,41.504 41.504,41.504Zm0,-6.917c-19.206,0 -34.546,-15.381 -34.546,-34.587c0,-19.205 15.3,-34.586 34.505,-34.586c19.206,-0 34.587,15.381 34.628,34.586c0.04,19.206 -15.381,34.587 -34.587,34.587Zm-15.503,-31.169l12.044,0l0,12.126c0,2.035 1.384,3.418 3.378,3.418c2.034,0 3.458,-1.383 3.458,-3.418l0,-12.126l12.126,0c2.035,0 3.418,-1.383 3.418,-3.377c0,-2.034 -1.383,-3.459 -3.418,-3.459l-12.126,0l0,-12.044c0,-2.116 -1.424,-3.499 -3.458,-3.499c-1.994,-0 -3.378,1.424 -3.378,3.499l0,12.044l-12.044,0c-2.116,0 -3.499,1.425 -3.499,3.459c-0,1.994 1.424,3.377 3.499,3.377Z" style="fill-rule:nonzero;"/></g><g><path d="M1332.89,8077.77c29.012,-0 53.019,-24.007 53.019,-52.979c-0,-29.012 -24.048,-53.019 -53.06,-53.019c-28.971,0 -52.938,24.007 -52.938,53.019c0,28.972 24.007,52.979 52.979,52.979Zm-0,-7.568c-25.147,-0 -45.37,-20.264 -45.37,-45.411c0,-25.187 20.182,-45.41 45.329,-45.41c25.187,0 45.41,20.223 45.451,45.41c0.04,25.147 -20.223,45.411 -45.41,45.411Zm-20.467,-41.626l16.682,-0l0,16.723c0,2.238 1.547,3.784 3.703,3.784c2.238,0 3.785,-1.546 3.785,-3.784l-0,-16.723l16.764,-0c2.197,-0 3.784,-1.547 3.784,-3.703c-0,-2.238 -1.546,-3.825 -3.784,-3.825l-16.764,-0l-0,-16.683c-0,-2.319 -1.547,-3.866 -3.785,-3.866c-2.156,0 -3.703,1.587 -3.703,3.866l0,16.683l-16.682,-0c-2.32,-0 -3.866,1.587 -3.866,3.825c-0,2.156 1.587,3.703 3.866,3.703Z" style="fill-rule:nonzero;"/></g><text x="1095.83px" y="8137.5px" style="font-family:'Arial-BoldMT', 'Arial', sans-serif;font-weight:700;font-size:66.667px;">Design V<tspan x="1377.41px 1414.49px " y="8137.5px 8137.5px ">ar</tspan>iations</text><text x="1095.83px" y="8212.5px" style="font-family:'ArialMT', 'Arial', sans-serif;font-size:66.667px;">Symbols are supported in up to nine weights and three scales.</text><text x="1095.83px" y="8287.5px" style="font-family:'ArialMT', 'Arial', sans-serif;font-size:66.667px;">For optimal layout with text and other symbols, vertically align</text><text x="1095.83px" y="8362.5px" style="font-family:'ArialMT', 'Arial', sans-serif;font-size:66.667px;">symbols with the adjacent text.</text><path d="M3233.33,7995.83l0,58.334" style="fill:none;fill-rule:nonzero;stroke:#00aeef;stroke-width:2.08px;"/><g><path d="M3247.13,8054.7c2.157,-0 3.215,-0.814 3.988,-3.052l5.249,-14.404l24.007,-0l5.249,14.404c0.773,2.238 1.831,3.052 3.947,3.052c2.157,-0 3.54,-1.302 3.54,-3.337c0,-0.692 -0.122,-1.302 -0.447,-2.197l-19.084,-50.782c-0.936,-2.522 -2.604,-3.743 -5.208,-3.743c-2.523,0 -4.232,1.221 -5.127,3.703l-19.084,50.862c-0.326,0.896 -0.448,1.506 -0.448,2.198c0,2.034 1.302,3.296 3.418,3.296Zm11.231,-23.601l9.887,-27.384l0.204,-0l9.888,27.384l-19.979,0Z" style="fill-rule:nonzero;"/></g><path d="M3303.48,7995.83l0,58.334" style="fill:none;fill-rule:nonzero;stroke:#00aeef;stroke-width:2.08px;"/><text x="3233.33px" y="8137.5px" style="font-family:'Arial-BoldMT', 'Arial', sans-serif;font-weight:700;font-size:66.667px;">Margins</text><text x="3233.33px" y="8212.5px" style="font-family:'ArialMT', 'Arial', sans-serif;font-size:66.667px;">Leading and trailing margins on the left and right side of each symbol</text><text x="3233.33px" y="8287.5px" style="font-family:'ArialMT', 'Arial', sans-serif;font-size:66.667px;">can be adjusted by modifying the x-location of the margin guidelines.</text><text x="3233.33px" y="8362.5px" style="font-family:'ArialMT', 'Arial', sans-serif;font-size:66.667px;">Modiﬁcations are automatically applied proportionally to all</text><text x="3233.33px" y="8437.5px" style="font-family:'ArialMT', 'Arial', sans-serif;font-size:66.667px;">scales and weights.</text><g><path d="M5382.67,8061.94l7.08,7.121c3.581,3.622 7.691,3.378 11.556,-0.895l42.399,-46.712c1.099,0.366 2.238,0.285 3.54,0.041l4.436,-0.814l2.767,2.807l-0.163,2.32c-0.163,2.075 0.366,3.662 2.401,5.656l3.173,3.092c1.994,1.994 4.557,2.116 6.511,0.163l12.125,-12.167c1.954,-1.953 1.872,-4.435 -0.122,-6.429l-3.214,-3.173c-1.994,-1.994 -3.54,-2.645 -5.534,-2.483l-2.401,0.204l-2.685,-2.645l1.017,-4.679c0.529,-2.36 -0.122,-4.191 -2.564,-6.633l-9.155,-9.114c-13.916,-13.835 -32.389,-13.51 -44.433,-1.465c-1.75,1.709 -1.872,4.11 -0.896,5.737c0.977,1.506 2.889,2.482 5.575,1.79c6.103,-1.424 12.451,-1.668 18.392,2.238l-2.441,6.063c-0.814,1.994 -0.936,3.662 -0.408,5.168l-46.101,43.294c-4.11,3.825 -4.436,7.894 -0.855,11.515Zm32.959,-74.259c10.132,-7.406 23.845,-6.144 33.122,3.133l10.132,10.051c0.976,0.976 1.139,1.75 0.854,3.174l-1.343,6.184l6.267,6.185l4.11,-0.244c1.058,-0.041 1.383,0.041 2.197,0.855l2.401,2.4l-10.173,10.173l-2.401,-2.401c-0.814,-0.814 -0.936,-1.139 -0.895,-2.238l0.285,-4.069l-6.226,-6.185l-6.348,1.058c-1.342,0.285 -1.952,0.163 -2.97,-0.814l-8.341,-8.341c-1.058,-0.977 -1.18,-1.668 -0.529,-3.215l3.662,-8.707c-6.511,-6.063 -14.974,-8.667 -23.438,-6.185c-0.651,0.162 -0.895,-0.366 -0.366,-0.814Zm-22.827,76.091l-4.883,-4.843c-1.953,-1.912 -1.505,-3.336 0.163,-4.842l45.044,-42.399l6.103,6.185l-41.626,45.776c-1.464,1.669 -2.848,2.076 -4.801,0.123Z" style="fill-rule:nonzero;"/></g><text x="5370.83px" y="8137.5px" style="font-family:'Arial-BoldMT', 'Arial', sans-serif;font-weight:700;font-size:66.667px;">Exporting</text><text x="5370.83px" y="8212.5px" style="font-family:'ArialMT', 'Arial', sans-serif;font-size:66.667px;">Symbols should be outlined when exporting to ensure the</text><text x="5370.83px" y="8287.5px" style="font-family:'ArialMT', 'Arial', sans-serif;font-size:66.667px;">design is preserved when submitting to Xcode.</text><text id="template-version" x="12221.4px" y="8054.17px" style="font-family:'ArialMT', 'Arial', sans-serif;font-size:66.667px;">T<tspan x="12254.7px 12291.8px " y="8054.17px 8054.17px ">em</tspan>plate v<tspan x="12538.8px 12557.3px " y="8054.17px 8054.17px ">.2</tspan>.0</text><text x="11775.4px" y="8129.17px" style="font-family:'ArialMT', 'Arial', sans-serif;font-size:66.667px;">Requires Xcode 12 or greater</text><text x="12027.5px" y="8204.17px" style="font-family:'ArialMT', 'Arial', sans-serif;font-size:66.667px;">Generated from wind</text><text x="12016.2px" y="8279.17px" style="font-family:'ArialMT', 'Arial', sans-serif;font-size:66.667px;">T<tspan x="12053.3px 12086.6px " y="8279.17px 8279.17px ">yp</tspan>eset at 100 points</text><text x="1095.83px" y="3025px" style="font-family:'ArialMT', 'Arial', sans-serif;font-size:66.667px;">Small</text><text x="1095.83px" y="4816.67px" style="font-family:'ArialMT', 'Arial', sans-serif;font-size:66.667px;">Medium</text><text x="1095.83px" y="6608.33px" style="font-family:'ArialMT', 'Arial', sans-serif;font-size:66.667px;">Large</text></g><g id="Guides"><g id="H-reference"><path d="M1416.57,2900l11.19,0l38.859,-101.929l136.515,0l39.063,101.929l10.986,0l-113.119,-293.579l-10.376,-0l-113.118,293.579Zm118.205,-279.745l0.407,0l64.29,168.457l-129.191,0.001l64.494,-168.458Z" style="fill:#27aae1;fill-rule:nonzero;"/></g><path id="Baseline-S" d="M1095.83,2900l11554.2,0" style="fill:none;fill-rule:nonzero;stroke:#27aae1;stroke-width:2.08px;"/><path id="Capline-S" d="M1095.83,2606.42l11554.2,-0" style="fill:none;fill-rule:nonzero;stroke:#27aae1;stroke-width:2.08px;"/><g id="H-reference1" serif:id="H-reference"><path d="M1416.57,4691.67l11.19,-0l38.859,-101.929l136.515,-0l39.063,101.929l10.986,-0l-113.119,-293.579l-10.376,-0.001l-113.118,293.58Zm118.205,-279.745l0.407,0l64.29,168.457l-129.191,0l64.494,-168.457Z" style="fill:#27aae1;fill-rule:nonzero;"/></g><path id="Baseline-M" d="M1095.83,4691.67l11554.2,-0" style="fill:none;fill-rule:nonzero;stroke:#27aae1;stroke-width:2.08px;"/><path id="Capline-M" d="M1095.83,4398.08l11554.2,0" style="fill:none;fill-rule:nonzero;stroke:#27aae1;stroke-width:2.08px;"/><g id="H-reference2" serif:id="H-reference"><path d="M1416.57,6483.33l11.19,0l38.859,-101.928l136.515,-0l39.063,101.928l10.986,0l-113.119,-293.579l-10.376,0l-113.118,293.579Zm118.205,-279.744l0.407,-0l64.29,168.457l-129.191,-0l64.494,-168.457Z" style="fill:#27aae1;fill-rule:nonzero;"/></g><path id="Baseline-L" d="M1095.83,6483.33l11554.2,0" style="fill:none;fill-rule:nonzero;stroke:#27aae1;stroke-width:2.08px;"/><path id="Capline-L" d="M1095.83,6189.75l11554.2,0" style="fill:none;fill-rule:nonzero;stroke:#27aae1;stroke-width:2.08px;"/><path id="left-margin" d="M5780.08,4294.96l0,497.209" style="fill:none;fill-rule:nonzero;stroke:#00aeef;stroke-width:2.08px;"/><path id="right-margin" d="M6301.96,4294.96l0,497.209" style="fill:none;fill-rule:nonzero;stroke:#00aeef;stroke-width:2.08px;"/></g><g id="Symbols"><g id="Semibold-L"><path d="M9001.56,6472.63c-0.289,-0 -0.549,0.007 -0.821,0.007c-27.237,0 -47.483,-9.756 -60.162,-29.013c-14.066,-21.369 -14.766,-48.54 -13.933,-62.833c-36.397,3.042 -63.228,28.811 -87.074,51.711c-21.491,20.638 -41.795,40.128 -65.716,40.128c-0.272,-0 -0.55,0.007 -0.822,0.007c-27.236,0 -47.483,-9.756 -60.161,-29.013c-14.072,-21.369 -14.767,-48.54 -13.933,-62.833c-36.397,3.042 -63.228,28.811 -87.074,51.711c-21.491,20.639 -41.795,40.128 -65.716,40.128c-0.295,-0 -0.55,0.007 -0.822,0.007c-27.236,0 -47.483,-9.756 -60.155,-29.013c-14.073,-21.369 -14.773,-48.54 -13.934,-62.833c-36.396,3.042 -63.228,28.811 -87.073,51.711c-21.497,20.638 -41.801,40.128 -65.717,40.128c-0.283,-0 -0.555,0.007 -0.827,0.007c-27.237,0 -47.483,-9.756 -60.155,-29.013c-14.073,-21.369 -14.773,-48.54 -13.934,-62.833c-36.396,3.042 -63.228,28.811 -87.079,51.711c-21.491,20.638 -41.796,40.128 -65.711,40.128l-0.052,-0l0.012,-15.797l0.04,0c19.622,0 37.403,-17.076 58.003,-36.861c26.982,-25.906 57.569,-55.281 101.962,-55.281l7.737,-0l-1.54,9.473c-0.052,0.333 -5.427,35.597 10.387,59.516c10.161,15.37 27.109,23.16 50.365,23.16c0.254,-0.007 0.497,-0.057 0.752,-0.007c19.656,0 37.444,-17.076 58.043,-36.861c26.982,-25.906 57.569,-55.281 101.962,-55.281l7.737,-0l-1.539,9.473c-0.053,0.333 -5.428,35.597 10.386,59.516c10.265,15.522 27.462,22.922 51.077,23.153l0.034,0c19.663,0 37.45,-17.076 58.049,-36.861c26.982,-25.906 57.564,-55.281 101.962,-55.281l7.737,-0l-1.539,9.473c-0.052,0.333 -5.428,35.597 10.386,59.516c10.265,15.522 27.405,22.922 51.077,23.153l0.035,0c19.656,0 37.449,-17.076 58.043,-36.861c26.988,-25.906 57.569,-55.281 101.962,-55.281l7.742,-0l-1.539,9.473c-0.052,0.333 -5.428,35.597 10.381,59.516c10.166,15.37 27.109,23.16 50.37,23.16m-0.034,-142.185c-27.237,0 -47.483,-9.755 -60.162,-29.006c-14.066,-21.375 -14.766,-48.546 -13.933,-62.84c-36.397,3.042 -63.228,28.811 -87.074,51.704c-21.491,20.639 -41.795,40.135 -65.716,40.142c-0.272,-0.043 -0.55,0 -0.822,0c-27.236,0 -47.483,-9.755 -60.161,-29.006c-14.072,-21.375 -14.767,-48.546 -13.933,-62.84c-36.397,3.042 -63.228,28.811 -87.074,51.704c-21.491,20.639 -41.795,40.135 -65.716,40.142c-0.295,-0.043 -0.55,0 -0.822,0c-27.236,0 -47.483,-9.755 -60.155,-29.006c-14.073,-21.375 -14.773,-48.546 -13.934,-62.84c-36.396,3.042 -63.228,28.811 -87.073,51.704c-21.497,20.639 -41.801,40.135 -65.717,40.142c-0.283,-0.043 -0.555,0 -0.827,0c-27.237,0 -47.483,-9.755 -60.155,-29.006c-14.073,-21.375 -14.773,-48.546 -13.934,-62.84c-36.396,3.042 -63.228,28.811 -87.079,51.704c-21.491,20.639 -41.796,40.135 -65.711,40.142l-0.052,0l0.012,-15.803l0.04,-0c19.622,-0 37.403,-17.083 58.003,-36.855c26.982,-25.913 57.569,-55.288 101.962,-55.288l7.737,-0l-1.54,9.474c-0.052,0.332 -5.427,35.589 10.387,59.516c10.265,15.522 27.526,23.131 51.076,23.153l0.041,-0c19.656,-0 37.444,-17.083 58.043,-36.855c26.982,-25.913 57.569,-55.288 101.962,-55.288l7.737,-0l-1.539,9.474c-0.053,0.332 -5.428,35.589 10.386,59.516c10.265,15.522 27.462,23.131 51.077,23.153l0.034,-0c19.663,-0 37.45,-17.083 58.049,-36.855c26.982,-25.913 57.564,-55.288 101.962,-55.288l7.737,-0l-1.539,9.474c-0.052,0.332 -5.428,35.589 10.386,59.516c10.265,15.522 27.405,23.131 51.077,23.153l0.035,-0c19.656,-0 37.449,-17.083 58.043,-36.855c26.988,-25.913 57.569,-55.288 101.962,-55.288l7.742,-0l-1.539,9.474c-0.052,0.332 -5.428,35.589 10.381,59.516c10.271,15.522 27.346,23.131 51.082,23.153l0.035,-0" style="fill:#576270;fill-rule:nonzero;stroke:#576270;stroke-width:8.33px;stroke-linejoin:round;stroke-miterlimit:2;"/></g><g id="Regular-L"><g><path d="M6495.65,6472.12c-0.289,0 -0.549,0.008 -0.82,0.008c-27.185,-0 -47.392,-9.737 -60.046,-28.958c-14.04,-21.328 -14.739,-48.447 -13.907,-62.713c-36.327,3.036 -63.107,28.756 -86.907,51.613c-21.45,20.598 -41.715,40.05 -65.591,40.05c-0.271,0 -0.548,0.008 -0.82,0.008c-27.184,-0 -47.392,-9.737 -60.046,-28.958c-14.046,-21.328 -14.739,-48.447 -13.907,-62.713c-36.327,3.036 -63.107,28.756 -86.907,51.613c-21.45,20.598 -41.715,40.05 -65.591,40.05c-0.294,0 -0.548,0.008 -0.82,0.008c-27.184,-0 -47.392,-9.737 -60.04,-28.958c-14.046,-21.328 -14.745,-48.447 -13.907,-62.713c-36.327,3.036 -63.107,28.756 -86.907,51.613c-21.456,20.598 -41.721,40.05 -65.591,40.05c-0.283,0 -0.554,0.008 -0.826,0.008c-27.184,-0 -47.392,-9.737 -60.04,-28.958c-14.046,-21.328 -14.744,-48.447 -13.907,-62.713c-36.327,3.036 -63.107,28.756 -86.913,51.613c-21.449,20.598 -41.715,40.05 -65.585,40.05l-0.052,0l0.012,-15.766l0.04,0c19.585,0 37.332,-17.043 57.892,-36.791c26.931,-25.857 57.459,-55.176 101.768,-55.176l7.721,0l-1.536,9.456c-0.052,0.332 -5.417,35.529 10.367,59.402c10.141,15.341 27.057,23.116 50.268,23.116c0.254,-0.007 0.497,-0.058 0.751,-0.007c19.619,0 37.372,-17.043 57.932,-36.791c26.931,-25.857 57.459,-55.176 101.767,-55.176l7.722,0l-1.536,9.456c-0.052,0.332 -5.418,35.529 10.366,59.402c10.246,15.493 27.41,22.878 50.979,23.109l0.035,0c19.625,0 37.378,-17.043 57.938,-36.791c26.93,-25.857 57.453,-55.176 101.767,-55.176l7.722,0l-1.536,9.456c-0.052,0.332 -5.418,35.529 10.366,59.402c10.246,15.493 27.352,22.878 50.979,23.109l0.035,0c19.619,0 37.378,-17.043 57.932,-36.791c26.936,-25.857 57.459,-55.176 101.767,-55.176l7.728,0l-1.537,9.456c-0.052,0.332 -5.417,35.529 10.361,59.402c10.148,15.341 27.058,23.116 50.275,23.116c0.242,-0.007 0.456,-0.058 0.745,-0.007" style="fill:#576270;fill-rule:nonzero;"/><path d="M6495.65,6314.45c-0.289,-0.043 -0.549,0 -0.82,0c-27.185,0 -47.392,-9.737 -60.046,-28.951c-14.04,-21.334 -14.739,-48.453 -13.907,-62.72c-36.327,3.037 -63.107,28.757 -86.907,51.606c-21.45,20.599 -41.715,40.058 -65.591,40.065c-0.271,-0.043 -0.548,0 -0.82,0c-27.184,0 -47.392,-9.737 -60.046,-28.951c-14.046,-21.334 -14.739,-48.453 -13.907,-62.72c-36.327,3.037 -63.107,28.757 -86.907,51.606c-21.45,20.599 -41.715,40.058 -65.591,40.065c-0.294,-0.043 -0.548,0 -0.82,0c-27.184,0 -47.392,-9.737 -60.04,-28.951c-14.046,-21.334 -14.745,-48.453 -13.907,-62.72c-36.327,3.037 -63.107,28.757 -86.907,51.606c-21.456,20.599 -41.721,40.058 -65.591,40.065c-0.283,-0.043 -0.554,0 -0.826,0c-27.184,0 -47.392,-9.737 -60.04,-28.951c-14.046,-21.334 -14.744,-48.453 -13.907,-62.72c-36.327,3.037 -63.107,28.757 -86.913,51.606c-21.449,20.599 -41.715,40.058 -65.585,40.065l-0.052,0l0.012,-15.773l0.04,-0c19.585,-0 37.332,-17.051 57.892,-36.784c26.931,-25.864 57.459,-55.183 101.768,-55.183l7.721,-0l-1.536,9.456c-0.052,0.331 -5.417,35.521 10.367,59.402c10.245,15.492 27.473,23.087 50.978,23.109l0.041,-0c19.619,-0 37.372,-17.051 57.932,-36.784c26.931,-25.864 57.459,-55.183 101.767,-55.183l7.722,-0l-1.536,9.456c-0.052,0.331 -5.418,35.521 10.366,59.402c10.246,15.492 27.41,23.087 50.979,23.109l0.035,-0c19.625,-0 37.378,-17.051 57.938,-36.784c26.93,-25.864 57.453,-55.183 101.767,-55.183l7.722,-0l-1.536,9.456c-0.052,0.331 -5.418,35.521 10.366,59.402c10.246,15.492 27.352,23.087 50.979,23.109l0.035,-0c19.619,-0 37.378,-17.051 57.932,-36.784c26.936,-25.864 57.459,-55.183 101.767,-55.183l7.728,-0l-1.537,9.456c-0.052,0.331 -5.417,35.521 10.361,59.402c10.252,15.492 27.295,23.087 50.985,23.109l0.035,-0" style="fill:#576270;fill-rule:nonzero;"/></g></g><g id="Semibold-M"><path d="M8384.31,4576.91c-0.029,0.188 -3.057,20.05 5.85,33.522c5.723,8.657 15.269,13.044 28.367,13.044c0.143,-0.004 0.28,-0.032 0.424,-0.004c11.071,0 21.089,-9.618 32.692,-20.761c15.197,-14.592 32.424,-31.136 57.428,-31.136l4.357,-0l-0.867,5.335c-0.029,0.188 -3.057,20.05 5.85,33.522c5.782,8.742 15.468,12.91 28.768,13.04l0.02,0c11.074,0 21.092,-9.618 32.695,-20.761c15.197,-14.592 32.421,-31.136 57.428,-31.136l4.357,-0l-0.867,5.335c-0.029,0.188 -3.057,20.05 5.85,33.522c5.782,8.742 15.435,12.91 28.768,13.04l0.02,0c11.071,0 21.092,-9.618 32.691,-20.761c15.201,-14.592 32.425,-31.136 57.429,-31.136l4.36,-0l-0.867,5.335c-0.029,0.188 -3.057,20.05 5.847,33.522c5.726,8.657 15.269,13.044 28.37,13.044l-0.019,8.897c-15.341,0 -26.744,-5.494 -33.885,-16.341c-7.923,-12.035 -8.317,-27.339 -7.848,-35.389c-20.499,1.713 -35.611,16.227 -49.042,29.125c-12.104,11.624 -23.54,22.601 -37.013,22.601c-0.039,0 -0.077,0 -0.116,0.001l-0.232,0.003c-0.038,0 -0.077,0 -0.115,0c-15.341,0 -26.744,-5.494 -33.885,-16.341c-7.926,-12.035 -8.317,-27.339 -7.848,-35.389c-20.499,1.713 -35.612,16.227 -49.042,29.125c-12.104,11.624 -23.541,22.601 -37.014,22.601c-0.166,0 -0.309,0.004 -0.462,0.004c-15.341,0 -26.744,-5.494 -33.882,-16.341c-7.926,-12.035 -8.32,-27.339 -7.848,-35.389c-20.499,1.713 -35.611,16.227 -49.042,29.125c-12.108,11.624 -23.544,22.601 -37.013,22.601c-0.16,0 -0.313,0.004 -0.466,0.004c-15.341,0 -26.744,-5.494 -33.882,-16.341c-7.926,-12.035 -8.32,-27.339 -7.848,-35.389c-20.499,1.713 -35.612,16.227 -49.045,29.125c-12.105,11.624 -23.541,22.601 -37.011,22.601l-0.029,0l0.007,-8.897l0.022,0c11.052,0 21.067,-9.618 32.669,-20.761c15.197,-14.592 32.425,-31.136 57.429,-31.136l4.357,-0l-0.867,5.335Zm419.414,-33.517c-0.163,-0.024 -0.31,0 -0.463,0c-15.341,0 -26.744,-5.494 -33.885,-16.337c-7.923,-12.039 -8.317,-27.343 -7.848,-35.393c-20.499,1.713 -35.611,16.227 -49.042,29.121c-12.104,11.624 -23.54,22.605 -37.013,22.609c-0.154,-0.024 -0.31,0 -0.463,0c-15.341,0 -26.744,-5.494 -33.885,-16.337c-7.926,-12.039 -8.317,-27.343 -7.848,-35.393c-20.499,1.713 -35.612,16.227 -49.042,29.121c-12.104,11.624 -23.541,22.605 -37.014,22.609c-0.166,-0.024 -0.309,0 -0.462,0c-15.341,0 -26.744,-5.494 -33.882,-16.337c-7.926,-12.039 -8.32,-27.343 -7.848,-35.393c-20.499,1.713 -35.611,16.227 -49.042,29.121c-12.108,11.624 -23.544,22.605 -37.013,22.609c-0.16,-0.024 -0.313,0 -0.466,0c-15.341,0 -26.744,-5.494 -33.882,-16.337c-7.926,-12.039 -8.32,-27.343 -7.848,-35.393c-20.499,1.713 -35.612,16.227 -49.045,29.121c-12.105,11.624 -23.541,22.605 -37.011,22.609l-0.029,0l0.007,-8.901l0.022,0c11.052,0 21.067,-9.622 32.669,-20.757c15.197,-14.596 32.425,-31.141 57.429,-31.141l4.357,0l-0.867,5.336c-0.029,0.188 -3.057,20.045 5.85,33.521c5.782,8.743 15.503,13.029 28.768,13.041l0.023,0c11.071,0 21.089,-9.622 32.692,-20.757c15.197,-14.596 32.424,-31.141 57.428,-31.141l4.357,0l-0.867,5.336c-0.029,0.188 -3.057,20.045 5.85,33.521c5.782,8.743 15.468,13.029 28.768,13.041l0.02,0c11.074,0 21.092,-9.622 32.695,-20.757c15.197,-14.596 32.421,-31.141 57.428,-31.141l4.357,0l-0.867,5.336c-0.029,0.188 -3.057,20.045 5.85,33.521c5.782,8.743 15.435,13.029 28.768,13.041l0.02,0c11.071,0 21.092,-9.622 32.691,-20.757c15.201,-14.596 32.425,-31.141 57.429,-31.141l4.36,0l-0.867,5.336c-0.029,0.188 -3.057,20.045 5.847,33.521c5.785,8.743 15.403,13.029 28.771,13.041l0.043,8.901Z" style="fill:#576270;fill-rule:nonzero;stroke:#576270;stroke-width:8.33px;stroke-linejoin:round;stroke-miterlimit:2;"/></g><g id="Regular-M"><g><path d="M6295.9,4610.47c-0.161,-0 -0.307,0.004 -0.459,0.004c-15.231,-0 -26.554,-5.456 -33.643,-16.225c-7.867,-11.95 -8.258,-27.144 -7.792,-35.138c-20.354,1.701 -35.359,16.112 -48.694,28.918c-12.018,11.542 -23.372,22.441 -36.75,22.441c-0.152,-0 -0.307,0.004 -0.459,0.004c-15.231,-0 -26.554,-5.456 -33.643,-16.225c-7.87,-11.95 -8.258,-27.144 -7.792,-35.138c-20.354,1.701 -35.359,16.112 -48.694,28.918c-12.018,11.542 -23.373,22.441 -36.75,22.441c-0.165,-0 -0.307,0.004 -0.459,0.004c-15.231,-0 -26.554,-5.456 -33.64,-16.225c-7.87,-11.95 -8.261,-27.144 -7.792,-35.138c-20.354,1.701 -35.359,16.112 -48.694,28.918c-12.021,11.542 -23.376,22.441 -36.749,22.441c-0.159,-0 -0.311,0.004 -0.463,0.004c-15.231,-0 -26.554,-5.456 -33.64,-16.225c-7.87,-11.95 -8.261,-27.144 -7.792,-35.138c-20.354,1.701 -35.359,16.112 -48.697,28.918c-12.018,11.542 -23.373,22.441 -36.746,22.441l-0.03,-0l0.007,-8.834l0.023,-0c10.972,-0 20.916,-9.549 32.436,-20.614c15.089,-14.487 32.194,-30.914 57.019,-30.914l4.327,-0l-0.861,5.298c-0.029,0.185 -3.035,19.906 5.808,33.282c5.682,8.595 15.16,12.952 28.165,12.952c0.143,-0.004 0.279,-0.033 0.421,-0.004c10.992,-0 20.939,-9.549 32.459,-20.614c15.089,-14.487 32.194,-30.914 57.019,-30.914l4.327,-0l-0.861,5.298c-0.029,0.185 -3.035,19.906 5.808,33.282c5.741,8.68 15.358,12.818 28.563,12.948l0.02,-0c10.995,-0 20.942,-9.549 32.462,-20.614c15.089,-14.487 32.19,-30.914 57.019,-30.914l4.327,-0l-0.861,5.298c-0.029,0.185 -3.035,19.906 5.808,33.282c5.741,8.68 15.325,12.818 28.563,12.948l0.02,-0c10.992,-0 20.942,-9.549 32.459,-20.614c15.092,-14.487 32.193,-30.914 57.019,-30.914l4.33,-0l-0.861,5.298c-0.029,0.185 -3.035,19.906 5.805,33.282c5.685,8.595 15.16,12.952 28.168,12.952c0.136,-0.004 0.256,-0.033 0.418,-0.004" style="fill:#576270;fill-rule:nonzero;"/><path d="M6295.9,4522.12c-0.161,-0.024 -0.307,0 -0.459,0c-15.231,0 -26.554,-5.455 -33.643,-16.221c-7.867,-11.953 -8.258,-27.148 -7.792,-35.141c-20.354,1.701 -35.359,16.112 -48.694,28.914c-12.018,11.541 -23.372,22.444 -36.75,22.448c-0.152,-0.024 -0.307,0 -0.459,0c-15.231,0 -26.554,-5.455 -33.643,-16.221c-7.87,-11.953 -8.258,-27.148 -7.792,-35.141c-20.354,1.701 -35.359,16.112 -48.694,28.914c-12.018,11.541 -23.373,22.444 -36.75,22.448c-0.165,-0.024 -0.307,0 -0.459,0c-15.231,0 -26.554,-5.455 -33.64,-16.221c-7.87,-11.953 -8.261,-27.148 -7.792,-35.141c-20.354,1.701 -35.359,16.112 -48.694,28.914c-12.021,11.541 -23.376,22.444 -36.749,22.448c-0.159,-0.024 -0.311,0 -0.463,0c-15.231,0 -26.554,-5.455 -33.64,-16.221c-7.87,-11.953 -8.261,-27.148 -7.792,-35.141c-20.354,1.701 -35.359,16.112 -48.697,28.914c-12.018,11.541 -23.373,22.444 -36.746,22.448l-0.03,0l0.007,-8.838l0.023,0c10.972,0 20.916,-9.553 32.436,-20.609c15.089,-14.492 32.194,-30.919 57.019,-30.919l4.327,0l-0.861,5.298c-0.029,0.186 -3.035,19.902 5.808,33.283c5.741,8.68 15.393,12.935 28.563,12.947l0.023,0c10.992,0 20.939,-9.553 32.459,-20.609c15.089,-14.492 32.194,-30.919 57.019,-30.919l4.327,0l-0.861,5.298c-0.029,0.186 -3.035,19.902 5.808,33.283c5.741,8.68 15.358,12.935 28.563,12.947l0.02,0c10.995,0 20.942,-9.553 32.462,-20.609c15.089,-14.492 32.19,-30.919 57.019,-30.919l4.327,0l-0.861,5.298c-0.029,0.186 -3.035,19.902 5.808,33.283c5.741,8.68 15.325,12.935 28.563,12.947l0.02,0c10.992,0 20.942,-9.553 32.459,-20.609c15.092,-14.492 32.193,-30.919 57.019,-30.919l4.33,0l-0.861,5.298c-0.029,0.186 -3.035,19.902 5.805,33.283c5.744,8.68 15.293,12.935 28.566,12.947l0.02,0" style="fill:#576270;fill-rule:nonzero;"/></g></g><g id="Semibold-S"><path d="M8749.27,2809.33c-12.145,-0 -21.173,-4.351 -26.827,-12.938c-6.272,-9.528 -6.584,-21.644 -6.213,-28.018c-16.23,1.357 -28.194,12.847 -38.827,23.059c-9.583,9.203 -18.637,17.893 -29.304,17.893c-0.121,0 -0.245,0.004 -0.366,0.004c-12.145,-0 -21.174,-4.351 -26.827,-12.938c-6.275,-9.528 -6.585,-21.644 -6.213,-28.018c-16.23,1.357 -28.194,12.847 -38.827,23.059c-9.583,9.203 -18.637,17.893 -29.304,17.893c-0.132,0 -0.245,0.004 -0.366,0.004c-12.146,-0 -21.174,-4.351 -26.825,-12.938c-6.275,-9.528 -6.587,-21.644 -6.213,-28.018c-16.229,1.357 -28.194,12.847 -38.827,23.059c-9.586,9.203 -18.64,17.893 -29.304,17.893c-0.126,0 -0.247,0.004 -0.369,0.004c-12.145,-0 -21.173,-4.351 -26.824,-12.938c-6.275,-9.528 -6.587,-21.644 -6.213,-28.018c-16.23,1.357 -28.194,12.847 -38.83,23.059c-9.583,9.203 -18.637,17.893 -29.301,17.893l-0.023,0l0.005,-7.043l0.018,-0c8.75,-0 16.679,-7.615 25.864,-16.438c12.032,-11.551 25.671,-24.65 45.467,-24.65l3.449,-0l-0.686,4.224c-0.023,0.149 -2.42,15.873 4.632,26.539c4.53,6.854 12.088,10.328 22.458,10.328c0.113,-0.003 0.222,-0.026 0.335,-0.003c8.765,-0 16.697,-7.615 25.883,-16.438c12.031,-11.551 25.67,-24.65 45.466,-24.65l3.45,-0l-0.687,4.224c-0.023,0.149 -2.42,15.873 4.632,26.539c4.577,6.922 12.245,10.221 22.775,10.325l0.016,-0c8.768,-0 16.699,-7.615 25.885,-16.438c12.031,-11.551 25.668,-24.65 45.466,-24.65l3.45,-0l-0.687,4.224c-0.023,0.149 -2.42,15.873 4.632,26.539c4.577,6.922 12.22,10.221 22.776,10.325l0.015,-0c8.765,-0 16.699,-7.615 25.882,-16.438c12.035,-11.551 25.671,-24.65 45.467,-24.65l3.452,-0l-0.686,4.224c-0.024,0.149 -2.421,15.873 4.629,26.539c4.533,6.854 12.088,10.328 22.461,10.328c0.108,-0.003 0.203,-0.026 0.332,-0.003m0.018,-63.399c-0.129,-0.02 -0.245,-0 -0.366,-0c-12.145,-0 -21.173,-4.351 -26.827,-12.935c-6.272,-9.531 -6.584,-21.647 -6.213,-28.021c-16.23,1.357 -28.194,12.847 -38.827,23.056c-9.583,9.203 -18.637,17.896 -29.304,17.9c-0.121,-0.02 -0.245,-0 -0.366,-0c-12.145,-0 -21.174,-4.351 -26.827,-12.935c-6.275,-9.531 -6.585,-21.647 -6.213,-28.021c-16.23,1.357 -28.194,12.847 -38.827,23.056c-9.583,9.203 -18.637,17.896 -29.304,17.9c-0.132,-0.02 -0.245,-0 -0.366,-0c-12.146,-0 -21.174,-4.351 -26.825,-12.935c-6.275,-9.531 -6.587,-21.647 -6.213,-28.021c-16.229,1.357 -28.194,12.847 -38.827,23.056c-9.586,9.203 -18.64,17.896 -29.304,17.9c-0.126,-0.02 -0.247,-0 -0.369,-0c-12.145,-0 -21.173,-4.351 -26.824,-12.935c-6.275,-9.531 -6.587,-21.647 -6.213,-28.021c-16.23,1.357 -28.194,12.847 -38.83,23.056c-9.583,9.203 -18.637,17.896 -29.301,17.9l-0.023,-0l0.005,-7.048l0.018,0c8.75,0 16.679,-7.617 25.864,-16.433c12.032,-11.556 25.671,-24.654 45.467,-24.654l3.449,-0l-0.686,4.224c-0.023,0.148 -2.42,15.87 4.632,26.539c4.577,6.922 12.274,10.315 22.775,10.324l0.018,0c8.765,0 16.697,-7.617 25.883,-16.433c12.031,-11.556 25.67,-24.654 45.466,-24.654l3.45,-0l-0.687,4.224c-0.023,0.148 -2.42,15.87 4.632,26.539c4.577,6.922 12.245,10.315 22.775,10.324l0.016,0c8.768,0 16.699,-7.617 25.885,-16.433c12.031,-11.556 25.668,-24.654 45.466,-24.654l3.45,-0l-0.687,4.224c-0.023,0.148 -2.42,15.87 4.632,26.539c4.577,6.922 12.22,10.315 22.776,10.324l0.015,0c8.765,0 16.699,-7.617 25.882,-16.433c12.035,-11.556 25.671,-24.654 45.467,-24.654l3.452,-0l-0.686,4.224c-0.024,0.148 -2.421,15.87 4.629,26.539c4.579,6.922 12.194,10.315 22.778,10.324l0.015,0" style="fill:#576270;fill-rule:nonzero;stroke:#576270;stroke-width:8.33px;stroke-linejoin:round;stroke-miterlimit:2;"/></g><g id="Regular-S"><g><path d="M6242.53,2746.87c-0.128,-0.02 -0.244,-0 -0.364,-0c-12.057,-0 -21.02,-4.319 -26.633,-12.841c-6.227,-9.463 -6.537,-21.491 -6.168,-27.819c-16.112,1.347 -27.99,12.755 -38.546,22.889c-9.514,9.136 -18.502,17.767 -29.092,17.771c-0.12,-0.02 -0.243,-0 -0.364,-0c-12.057,-0 -21.02,-4.319 -26.632,-12.841c-6.23,-9.463 -6.537,-21.491 -6.168,-27.819c-16.113,1.347 -27.991,12.755 -38.547,22.889c-9.513,9.136 -18.502,17.767 -29.091,17.771c-0.131,-0.02 -0.244,-0 -0.364,-0c-12.057,-0 -21.02,-4.319 -26.63,-12.841c-6.23,-9.463 -6.54,-21.491 -6.168,-27.819c-16.113,1.347 -27.99,12.755 -38.547,22.889c-9.516,9.136 -18.504,17.767 -29.091,17.771c-0.126,-0.02 -0.246,-0 -0.367,-0c-12.057,-0 -21.02,-4.319 -26.63,-12.841c-6.229,-9.463 -6.539,-21.491 -6.168,-27.819c-16.112,1.347 -27.99,12.755 -38.549,22.889c-9.513,9.136 -18.502,17.767 -29.089,17.771l-0.023,-0l0.005,-6.997l0.018,0c8.686,0 16.558,-7.562 25.677,-16.314c11.945,-11.472 25.485,-24.476 45.138,-24.476l3.424,0l-0.681,4.194c-0.023,0.147 -2.403,15.755 4.598,26.347c4.544,6.871 12.185,10.24 22.611,10.249l0.018,0c8.701,0 16.576,-7.562 25.695,-16.314c11.944,-11.472 25.485,-24.476 45.137,-24.476l3.425,0l-0.682,4.194c-0.023,0.147 -2.402,15.755 4.598,26.347c4.545,6.871 12.158,10.24 22.611,10.249l0.016,0c8.704,0 16.578,-7.562 25.697,-16.314c11.945,-11.472 25.483,-24.476 45.137,-24.476l3.425,0l-0.681,4.194c-0.023,0.147 -2.403,15.755 4.598,26.347c4.544,6.871 12.131,10.24 22.611,10.249l0.015,0c8.702,0 16.579,-7.562 25.695,-16.314c11.947,-11.472 25.485,-24.476 45.137,-24.476l3.428,0l-0.682,4.194c-0.023,0.147 -2.402,15.755 4.596,26.347c4.547,6.871 12.106,10.24 22.613,10.249l0.016,0" style="fill:#576270;fill-rule:nonzero;"/><path d="M6242.53,2816.8c-0.128,-0 -0.244,0.003 -0.364,0.003c-12.057,-0 -21.02,-4.319 -26.633,-12.844c-6.227,-9.459 -6.537,-21.488 -6.168,-27.815c-16.112,1.346 -27.99,12.754 -38.546,22.892c-9.514,9.136 -18.502,17.764 -29.092,17.764c-0.12,-0 -0.243,0.003 -0.364,0.003c-12.057,-0 -21.02,-4.319 -26.632,-12.844c-6.23,-9.459 -6.537,-21.488 -6.168,-27.815c-16.113,1.346 -27.991,12.754 -38.547,22.892c-9.513,9.136 -18.502,17.764 -29.091,17.764c-0.131,-0 -0.244,0.003 -0.364,0.003c-12.057,-0 -21.02,-4.319 -26.63,-12.844c-6.23,-9.459 -6.54,-21.488 -6.168,-27.815c-16.113,1.346 -27.99,12.754 -38.547,22.892c-9.516,9.136 -18.504,17.764 -29.091,17.764c-0.126,-0 -0.246,0.003 -0.367,0.003c-12.057,-0 -21.02,-4.319 -26.63,-12.844c-6.229,-9.459 -6.539,-21.488 -6.168,-27.815c-16.112,1.346 -27.99,12.754 -38.549,22.892c-9.513,9.136 -18.502,17.764 -29.089,17.764l-0.023,-0l0.005,-6.993l0.018,-0c8.686,-0 16.558,-7.559 25.677,-16.318c11.945,-11.469 25.485,-24.473 45.138,-24.473l3.424,0l-0.681,4.194c-0.023,0.147 -2.403,15.759 4.598,26.347c4.498,6.804 12.001,10.253 22.296,10.253c0.112,-0.003 0.22,-0.026 0.333,-0.003c8.701,-0 16.576,-7.559 25.695,-16.318c11.944,-11.469 25.485,-24.473 45.137,-24.473l3.425,0l-0.682,4.194c-0.023,0.147 -2.402,15.759 4.598,26.347c4.545,6.872 12.158,10.147 22.611,10.25l0.016,-0c8.704,-0 16.578,-7.559 25.697,-16.318c11.945,-11.469 25.483,-24.473 45.137,-24.473l3.425,0l-0.681,4.194c-0.023,0.147 -2.403,15.759 4.598,26.347c4.544,6.872 12.131,10.147 22.611,10.25l0.015,-0c8.702,-0 16.579,-7.559 25.695,-16.318c11.947,-11.469 25.485,-24.473 45.137,-24.473l3.428,0l-0.682,4.194c-0.023,0.147 -2.402,15.759 4.596,26.347c4.5,6.804 12.001,10.253 22.298,10.253c0.108,-0.003 0.203,-0.026 0.331,-0.003" style="fill:#576270;fill-rule:nonzero;"/></g></g></g></svg>