<?xml version="1.0" encoding="UTF-8" standalone="no"?><!DOCTYPE svg PUBLIC "-//W3C//DTD SVG 1.1//EN" "http://www.w3.org/Graphics/SVG/1.1/DTD/svg11.dtd"><svg width="100%" height="100%" viewBox="0 0 18334 12223" version="1.1" xmlns="http://www.w3.org/2000/svg" xmlns:xlink="http://www.w3.org/1999/xlink" xml:space="preserve" xmlns:serif="http://www.serif.com/" style="fill-rule:evenodd;clip-rule:evenodd;"><g id="Notes"><rect id="artboard" x="0" y="0" width="18333.3" height="12222.2" style="fill:#fff;"/><path d="M1461.11,1622.22l15405.6,0" style="fill:none;fill-rule:nonzero;stroke:#000;stroke-width:2.78px;"/><text x="1461.11px" y="1788.89px" style="font-family:'Arial-BoldMT', 'Arial', sans-serif;font-weight:700;font-size:88.889px;">W<tspan x="1543.4px 1592.84px " y="1788.89px 1788.89px ">ei</tspan>ght/Scale V<tspan x="2091.8px 2141.23px " y="1788.89px 1788.89px ">ar</tspan>iations</text><text x="2934.14px" y="1788.89px" style="font-family:'ArialMT', 'Arial', sans-serif;font-size:88.889px;">Ultralight</text><text x="4671.44px" y="1788.89px" style="font-family:'ArialMT', 'Arial', sans-serif;font-size:88.889px;">Thin</text><text x="6309.9px" y="1788.89px" style="font-family:'ArialMT', 'Arial', sans-serif;font-size:88.889px;">Light</text><text x="7899.02px" y="1788.89px" style="font-family:'ArialMT', 'Arial', sans-serif;font-size:88.889px;">Regular</text><text x="9545.04px" y="1788.89px" style="font-family:'ArialMT', 'Arial', sans-serif;font-size:88.889px;">Medium</text><text x="11166.2px" y="1788.89px" style="font-family:'ArialMT', 'Arial', sans-serif;font-size:88.889px;">Semibold</text><text x="12910.9px" y="1788.89px" style="font-family:'ArialMT', 'Arial', sans-serif;font-size:88.889px;">Bold</text><text x="14522.3px" y="1788.89px" style="font-family:'ArialMT', 'Arial', sans-serif;font-size:88.889px;">Heavy</text><text x="16188px" y="1788.89px" style="font-family:'ArialMT', 'Arial', sans-serif;font-size:88.889px;">Black</text><path d="M1461.11,10572.2l15405.6,0" style="fill:none;fill-rule:nonzero;stroke:#000;stroke-width:2.78px;"/><g><path d="M1512.49,10743.5c23.926,0 43.837,-19.856 43.837,-43.782c0,-23.926 -19.965,-43.782 -43.891,-43.782c-23.872,-0 -43.728,19.856 -43.728,43.782c-0,23.926 19.911,43.782 43.782,43.782Zm0,-8.246c-19.694,-0 -35.427,-15.788 -35.427,-35.536c-0,-19.749 15.679,-35.536 35.373,-35.536c19.748,-0 35.536,15.787 35.59,35.536c0.054,19.748 -15.788,35.536 -35.536,35.536Zm-15.842,-31.467l11.719,-0l-0,11.773c-0,2.441 1.628,4.123 4.015,4.123c2.495,0 4.123,-1.682 4.123,-4.123l-0,-11.773l11.827,-0c2.442,-0 4.123,-1.628 4.123,-4.015c0,-2.441 -1.681,-4.123 -4.123,-4.123l-11.827,-0l-0,-11.719c-0,-2.496 -1.628,-4.177 -4.123,-4.177c-2.387,-0 -4.015,1.681 -4.015,4.177l-0,11.719l-11.719,-0c-2.495,-0 -4.177,1.682 -4.177,4.123c-0,2.387 1.682,4.015 4.177,4.015Z" style="fill-rule:nonzero;"/></g><g><path d="M1628.97,10755.1c30.274,0 55.339,-25.119 55.339,-55.338c-0,-30.274 -25.12,-55.339 -55.393,-55.339c-30.219,0 -55.284,25.065 -55.284,55.339c-0,30.219 25.119,55.338 55.338,55.338Zm0,-9.223c-25.608,0 -46.061,-20.508 -46.061,-46.115c-0,-25.608 20.399,-46.116 46.007,-46.116c25.608,0 46.115,20.508 46.17,46.116c0.054,25.607 -20.508,46.115 -46.116,46.115Zm-20.67,-41.558l16.059,0l-0,16.168c-0,2.712 1.844,4.557 4.503,4.557c2.712,0 4.611,-1.845 4.611,-4.557l-0,-16.168l16.168,0c2.713,0 4.557,-1.844 4.557,-4.503c0,-2.713 -1.844,-4.611 -4.557,-4.611l-16.168,-0l-0,-16.059c-0,-2.821 -1.899,-4.666 -4.611,-4.666c-2.659,-0 -4.503,1.898 -4.503,4.666l-0,16.059l-16.059,-0c-2.822,-0 -4.666,1.898 -4.666,4.611c-0,2.659 1.899,4.503 4.666,4.503Z" style="fill-rule:nonzero;"/></g><g><path d="M1777.19,10770.4c38.683,-0 70.692,-32.01 70.692,-70.638c0,-38.683 -32.064,-70.692 -70.747,-70.692c-38.628,-0 -70.583,32.009 -70.583,70.692c-0,38.628 32.009,70.638 70.638,70.638Zm-0,-10.091c-33.529,-0 -60.493,-27.018 -60.493,-60.547c0,-33.583 26.91,-60.547 60.438,-60.547c33.584,0 60.548,26.964 60.601,60.547c0.055,33.529 -26.963,60.547 -60.546,60.547Zm-27.29,-55.502l22.244,0l0,22.299c0,2.984 2.062,5.045 4.937,5.045c2.984,0 5.046,-2.061 5.046,-5.045l0,-22.299l22.352,0c2.93,0 5.046,-2.061 5.046,-4.937c-0,-2.984 -2.062,-5.099 -5.046,-5.099l-22.352,-0l0,-22.244c0,-3.093 -2.062,-5.155 -5.046,-5.155c-2.875,0 -4.937,2.116 -4.937,5.155l0,22.244l-22.244,-0c-3.092,-0 -5.154,2.115 -5.154,5.099c0,2.876 2.116,4.937 5.154,4.937Z" style="fill-rule:nonzero;"/></g><text x="1461.11px" y="10850px" style="font-family:'Arial-BoldMT', 'Arial', sans-serif;font-weight:700;font-size:88.889px;">Design V<tspan x="1836.55px 1885.98px " y="10850px 10850px ">ar</tspan>iations</text><text x="1461.11px" y="10950px" style="font-family:'ArialMT', 'Arial', sans-serif;font-size:88.889px;">Symbols are supported in up to nine weights and three scales.</text><text x="1461.11px" y="11050px" style="font-family:'ArialMT', 'Arial', sans-serif;font-size:88.889px;">For optimal layout with text and other symbols, vertically align</text><text x="1461.11px" y="11150px" style="font-family:'ArialMT', 'Arial', sans-serif;font-size:88.889px;">symbols with the adjacent text.</text><path d="M4311.11,10661.1l0,77.778" style="fill:none;fill-rule:nonzero;stroke:#00aeef;stroke-width:2.78px;"/><g><path d="M4329.5,10739.6c2.875,0 4.286,-1.085 5.317,-4.069l6.999,-19.206l32.009,0l6.999,19.206c1.031,2.984 2.441,4.069 5.262,4.069c2.876,0 4.72,-1.736 4.72,-4.449c0,-0.922 -0.162,-1.736 -0.596,-2.929l-25.445,-67.709c-1.248,-3.363 -3.472,-4.991 -6.945,-4.991c-3.363,0 -5.642,1.628 -6.836,4.937l-25.444,67.817c-0.434,1.194 -0.597,2.007 -0.597,2.93c-0,2.712 1.736,4.394 4.557,4.394Zm14.974,-31.467l13.184,-36.513l0.271,0l13.184,36.513l-26.639,0Z" style="fill-rule:nonzero;"/></g><path d="M4404.64,10661.1l0,77.778" style="fill:none;fill-rule:nonzero;stroke:#00aeef;stroke-width:2.78px;"/><text x="4311.11px" y="10850px" style="font-family:'Arial-BoldMT', 'Arial', sans-serif;font-weight:700;font-size:88.889px;">Margins</text><text x="4311.11px" y="10950px" style="font-family:'ArialMT', 'Arial', sans-serif;font-size:88.889px;">Leading and trailing margins on the left and right side of each symbol</text><text x="4311.11px" y="11050px" style="font-family:'ArialMT', 'Arial', sans-serif;font-size:88.889px;">can be adjusted by modifying the x-location of the margin guidelines.</text><text x="4311.11px" y="11150px" style="font-family:'ArialMT', 'Arial', sans-serif;font-size:88.889px;">Modiﬁcations are automatically applied proportionally to all</text><text x="4311.11px" y="11250px" style="font-family:'ArialMT', 'Arial', sans-serif;font-size:88.889px;">scales and weights.</text><g><path d="M7176.9,10749.3l9.44,9.495c4.774,4.828 10.254,4.503 15.408,-1.194l56.532,-62.283c1.465,0.488 2.984,0.38 4.72,0.054l5.914,-1.085l3.689,3.744l-0.217,3.092c-0.217,2.767 0.488,4.883 3.201,7.541l4.232,4.124c2.658,2.658 6.076,2.821 8.68,0.217l16.168,-16.222c2.604,-2.604 2.496,-5.914 -0.163,-8.572l-4.286,-4.232c-2.659,-2.658 -4.72,-3.526 -7.379,-3.309l-3.2,0.271l-3.581,-3.526l1.356,-6.24c0.705,-3.147 -0.162,-5.588 -3.418,-8.843l-12.207,-12.153c-18.555,-18.446 -43.186,-18.012 -59.245,-1.953c-2.333,2.279 -2.495,5.48 -1.193,7.65c1.302,2.007 3.852,3.309 7.433,2.387c8.138,-1.899 16.601,-2.225 24.522,2.984l-3.255,8.084c-1.085,2.658 -1.248,4.882 -0.543,6.89l-61.469,57.726c-5.479,5.099 -5.913,10.525 -1.139,15.353Zm43.945,-99.012c13.509,-9.875 31.793,-8.192 44.163,4.177l13.509,13.401c1.302,1.302 1.518,2.333 1.139,4.232l-1.791,8.246l8.355,8.247l5.48,-0.326c1.411,-0.054 1.845,0.054 2.93,1.139l3.201,3.201l-13.563,13.564l-3.201,-3.201c-1.085,-1.085 -1.248,-1.519 -1.194,-2.984l0.38,-5.425l-8.301,-8.247l-8.464,1.411c-1.79,0.379 -2.604,0.217 -3.96,-1.085l-11.122,-11.122c-1.411,-1.303 -1.573,-2.225 -0.706,-4.286l4.883,-11.61c-8.68,-8.084 -19.965,-11.557 -31.25,-8.247c-0.868,0.217 -1.193,-0.488 -0.488,-1.085Zm-30.436,101.454l-6.51,-6.456c-2.605,-2.55 -2.008,-4.449 0.217,-6.457l60.058,-56.532l8.138,8.247l-55.501,61.035c-1.953,2.224 -3.798,2.767 -6.402,0.163Z" style="fill-rule:nonzero;"/></g><text x="7161.11px" y="10850px" style="font-family:'Arial-BoldMT', 'Arial', sans-serif;font-weight:700;font-size:88.889px;">Exporting</text><text x="7161.11px" y="10950px" style="font-family:'ArialMT', 'Arial', sans-serif;font-size:88.889px;">Symbols should be outlined when exporting to ensure the</text><text x="7161.11px" y="11050px" style="font-family:'ArialMT', 'Arial', sans-serif;font-size:88.889px;">design is preserved when submitting to Xcode.</text><text id="template-version" x="16295.2px" y="10738.9px" style="font-family:'ArialMT', 'Arial', sans-serif;font-size:88.889px;">T<tspan x="16339.6px 16389.1px " y="10738.9px 10738.9px ">em</tspan>plate v<tspan x="16718.4px 16743.1px " y="10738.9px 10738.9px ">.2</tspan>.0</text><text x="15700.6px" y="10838.9px" style="font-family:'ArialMT', 'Arial', sans-serif;font-size:88.889px;">Requires Xcode 12 or greater</text><text x="16036.6px" y="10938.9px" style="font-family:'ArialMT', 'Arial', sans-serif;font-size:88.889px;">Generated from wind</text><text x="16021.7px" y="11038.9px" style="font-family:'ArialMT', 'Arial', sans-serif;font-size:88.889px;">T<tspan x="16071.1px 16115.5px " y="11038.9px 11038.9px ">yp</tspan>eset at 100 points</text><text x="1461.11px" y="4033.33px" style="font-family:'ArialMT', 'Arial', sans-serif;font-size:88.889px;">Small</text><text x="1461.11px" y="6422.22px" style="font-family:'ArialMT', 'Arial', sans-serif;font-size:88.889px;">Medium</text><text x="1461.11px" y="8811.11px" style="font-family:'ArialMT', 'Arial', sans-serif;font-size:88.889px;">Large</text></g><g id="Guides"><g id="H-reference"><path d="M1888.76,3866.67l14.919,-0l51.813,-135.905l182.02,-0l52.083,135.905l14.649,-0l-150.825,-391.439l-13.835,-0l-150.824,391.439Zm157.606,-372.993l0.543,-0l85.72,224.609l-172.255,0l85.992,-224.609Z" style="fill:#27aae1;fill-rule:nonzero;"/></g><path id="Baseline-S" d="M1461.11,3866.67l15405.6,-0" style="fill:none;fill-rule:nonzero;stroke:#27aae1;stroke-width:2.78px;"/><path id="Capline-S" d="M1461.11,3475.23l15405.6,-0" style="fill:none;fill-rule:nonzero;stroke:#27aae1;stroke-width:2.78px;"/><g id="H-reference1" serif:id="H-reference"><path d="M1888.76,6255.56l14.919,-0l51.813,-135.905l182.02,-0l52.083,135.905l14.649,-0l-150.825,-391.439l-13.835,-0l-150.824,391.439Zm157.606,-372.993l0.543,-0l85.72,224.609l-172.255,0l85.992,-224.609Z" style="fill:#27aae1;fill-rule:nonzero;"/></g><path id="Baseline-M" d="M1461.11,6255.56l15405.6,-0" style="fill:none;fill-rule:nonzero;stroke:#27aae1;stroke-width:2.78px;"/><path id="Capline-M" d="M1461.11,5864.11l15405.6,0" style="fill:none;fill-rule:nonzero;stroke:#27aae1;stroke-width:2.78px;"/><g id="H-reference2" serif:id="H-reference"><path d="M1888.76,8644.44l14.919,0l51.813,-135.905l182.02,0l52.083,135.905l14.649,0l-150.825,-391.438l-13.835,-0l-150.824,391.438Zm157.606,-372.992l0.543,-0l85.72,224.609l-172.255,0l85.992,-224.609Z" style="fill:#27aae1;fill-rule:nonzero;"/></g><path id="Baseline-L" d="M1461.11,8644.44l15405.6,0" style="fill:none;fill-rule:nonzero;stroke:#27aae1;stroke-width:2.78px;"/><path id="Capline-L" d="M1461.11,8253l15405.6,0" style="fill:none;fill-rule:nonzero;stroke:#27aae1;stroke-width:2.78px;"/><path id="left-margin" d="M7706.78,5726.61l-0,662.945" style="fill:none;fill-rule:nonzero;stroke:#00aeef;stroke-width:2.78px;"/><path id="right-margin" d="M8402.61,5726.61l0,662.945" style="fill:none;fill-rule:nonzero;stroke:#00aeef;stroke-width:2.78px;"/></g><g id="Symbols"><g id="Semibold-L"><path d="M11888.1,8675.44c-27.365,20.59 -62.42,30.09 -96.969,32.404c-34.694,2.411 -69.822,-0.868 -103.841,-8.583c-67.797,-16.202 -133.231,-45.76 -187.309,-94.968c-26.159,-24.761 -51.33,-56.659 -57.044,-99.815c-2.58,-21.217 1.688,-44.362 11.91,-63.072c9.885,-18.998 24.159,-34.018 39.13,-46.025c30.33,-23.942 63.771,-38.745 97.115,-50.752c33.465,-12.03 67.556,-20.083 101.599,-26.616l-13.622,43.469c-32.789,-34.139 -66.664,-67.073 -102.298,-97.235c-35.659,-29.848 -72.884,-58.176 -112.955,-76.814c-39.974,-18.66 -82.336,-24.254 -117.391,-3.568c-35.707,19.867 -63.987,58.25 -89.109,97.332c-50.005,79.49 -93.692,167.828 -157.824,242.183c-31.993,36.96 -69.074,70.208 -111.363,94.776c-42.12,24.953 -89.399,39.733 -137.064,45.326c46.869,-10.56 91.255,-29.583 130.144,-56.224c38.937,-26.714 71.824,-61.046 99.839,-98.73c56.996,-75.415 94.125,-163.103 143.116,-247.656c25.026,-41.541 52.488,-85.807 100.081,-115.559c23.796,-14.345 53.017,-21.795 80.96,-20.662c27.992,1.158 54.151,8.801 77.971,19.023c47.472,21.072 88.362,50.221 126.143,81.708c37.852,31.512 73.1,65.29 107.024,100.056l32.524,33.368l-46.171,10.078c-63.505,13.887 -129.519,30.764 -177.038,66.302c-22.953,18.107 -37.298,39.998 -35.201,64.591c1.544,25.049 18.879,51.498 39.95,73.824c21.337,22.615 47.497,42.047 75.44,58.418c27.871,16.563 57.719,30.523 88.82,40.842c61.336,20.855 131.231,31.728 193.433,2.579Z" style="fill:#333;fill-rule:nonzero;stroke:#333;stroke-width:33.33px;stroke-linejoin:round;stroke-miterlimit:2;"/></g><g id="Regular-L"><path d="M8588.09,8675.44c-27.365,20.59 -62.42,30.09 -96.969,32.404c-34.694,2.411 -69.822,-0.868 -103.841,-8.583c-67.797,-16.202 -133.231,-45.76 -187.309,-94.968c-26.159,-24.761 -51.33,-56.659 -57.044,-99.815c-2.58,-21.217 1.688,-44.362 11.91,-63.072c9.885,-18.998 24.159,-34.018 39.13,-46.025c30.33,-23.942 63.771,-38.745 97.115,-50.752c33.465,-12.03 67.556,-20.083 101.599,-26.616l-13.622,43.469c-32.789,-34.139 -66.664,-67.073 -102.298,-97.235c-35.659,-29.848 -72.884,-58.176 -112.955,-76.814c-39.974,-18.66 -82.336,-24.254 -117.391,-3.568c-35.707,19.867 -63.987,58.25 -89.109,97.332c-50.005,79.49 -93.692,167.828 -157.824,242.183c-31.993,36.96 -69.074,70.208 -111.363,94.776c-42.12,24.953 -89.399,39.733 -137.064,45.326c46.869,-10.56 91.255,-29.583 130.144,-56.224c38.937,-26.714 71.824,-61.046 99.839,-98.73c56.996,-75.415 94.125,-163.103 143.116,-247.656c25.026,-41.541 52.488,-85.807 100.081,-115.559c23.796,-14.345 53.017,-21.795 80.96,-20.662c27.992,1.158 54.151,8.801 77.971,19.023c47.472,21.072 88.362,50.221 126.143,81.708c37.852,31.512 73.1,65.29 107.024,100.056l32.524,33.368l-46.171,10.078c-63.505,13.887 -129.519,30.764 -177.038,66.302c-22.953,18.107 -37.298,39.998 -35.201,64.591c1.544,25.049 18.879,51.498 39.95,73.824c21.337,22.615 47.497,42.047 75.44,58.418c27.871,16.563 57.719,30.523 88.82,40.842c61.336,20.855 131.231,31.728 193.433,2.579Z" style="fill:#333;fill-rule:nonzero;stroke:#333;stroke-width:16.67px;stroke-linejoin:round;stroke-miterlimit:2;"/></g><g id="Semibold-M"><path d="M11686,6217.74c-17.048,12.827 -38.887,18.745 -60.411,20.187c-21.614,1.502 -43.497,-0.541 -64.691,-5.347c-42.236,-10.093 -83.001,-28.508 -116.69,-59.164c-16.297,-15.425 -31.978,-35.297 -35.538,-62.183c-1.607,-13.217 1.052,-27.637 7.42,-39.292c6.158,-11.836 15.05,-21.193 24.378,-28.673c18.895,-14.915 39.728,-24.137 60.5,-31.618c20.848,-7.494 42.087,-12.511 63.295,-16.581l-8.487,27.08c-20.427,-21.268 -41.53,-41.785 -63.729,-60.575c-22.215,-18.595 -45.406,-36.243 -70.369,-47.854c-24.904,-11.625 -51.294,-15.11 -73.133,-2.223c-22.245,12.376 -39.863,36.289 -55.514,60.636c-31.152,49.521 -58.368,104.554 -98.321,150.876c-19.932,23.026 -43.032,43.738 -69.377,59.044c-26.241,15.546 -55.695,24.753 -85.389,28.237c29.199,-6.578 56.85,-18.429 81.078,-35.026c24.257,-16.642 44.744,-38.031 62.197,-61.507c35.508,-46.983 58.639,-101.611 89.159,-154.286c15.591,-25.88 32.699,-53.456 62.349,-71.991c14.825,-8.937 33.029,-13.578 50.437,-12.872c17.438,0.721 33.735,5.482 48.575,11.851c29.574,13.127 55.048,31.286 78.584,50.903c23.582,19.631 45.541,40.674 66.675,62.333l20.262,20.787l-28.764,6.279c-39.563,8.651 -80.688,19.165 -110.292,41.305c-14.299,11.28 -23.236,24.918 -21.929,40.239c0.961,15.605 11.761,32.082 24.888,45.991c13.292,14.089 29.589,26.195 46.998,36.393c17.363,10.319 35.957,19.016 55.333,25.444c38.211,12.993 81.755,19.767 120.506,1.607Z" style="fill:#333;fill-rule:nonzero;stroke:#333;stroke-width:33.33px;stroke-linejoin:round;stroke-miterlimit:2;"/></g><g id="Regular-M"><path d="M8386,6217.74c-17.048,12.827 -38.887,18.745 -60.411,20.187c-21.614,1.502 -43.497,-0.541 -64.691,-5.347c-42.236,-10.093 -83.001,-28.508 -116.69,-59.164c-16.297,-15.425 -31.978,-35.297 -35.538,-62.183c-1.607,-13.217 1.052,-27.637 7.42,-39.292c6.158,-11.836 15.05,-21.193 24.378,-28.673c18.895,-14.915 39.728,-24.137 60.5,-31.618c20.848,-7.494 42.087,-12.511 63.295,-16.581l-8.487,27.08c-20.427,-21.268 -41.53,-41.785 -63.729,-60.575c-22.215,-18.595 -45.406,-36.243 -70.369,-47.854c-24.904,-11.625 -51.294,-15.11 -73.133,-2.223c-22.245,12.376 -39.863,36.289 -55.514,60.636c-31.152,49.521 -58.368,104.554 -98.321,150.876c-19.932,23.026 -43.032,43.738 -69.377,59.044c-26.241,15.546 -55.695,24.753 -85.389,28.237c29.199,-6.578 56.85,-18.429 81.078,-35.026c24.257,-16.642 44.744,-38.031 62.197,-61.507c35.508,-46.983 58.639,-101.611 89.159,-154.286c15.591,-25.88 32.699,-53.456 62.349,-71.991c14.825,-8.937 33.029,-13.578 50.437,-12.872c17.438,0.721 33.735,5.482 48.575,11.851c29.574,13.127 55.048,31.286 78.584,50.903c23.582,19.631 45.541,40.674 66.675,62.333l20.262,20.787l-28.764,6.279c-39.563,8.651 -80.688,19.165 -110.292,41.305c-14.299,11.28 -23.236,24.918 -21.929,40.239c0.961,15.605 11.761,32.082 24.888,45.991c13.292,14.089 29.589,26.195 46.998,36.393c17.363,10.319 35.957,19.016 55.333,25.444c38.211,12.993 81.755,19.767 120.506,1.607Z" style="fill:#333;fill-rule:nonzero;stroke:#333;stroke-width:16.67px;stroke-linejoin:round;stroke-miterlimit:2;"/></g><g id="Semibold-S"><path d="M11667.9,3811.24c-14.518,10.923 -33.115,15.963 -51.444,17.191c-18.406,1.279 -37.042,-0.461 -55.09,-4.554c-35.967,-8.595 -70.681,-24.276 -99.37,-50.382c-13.878,-13.136 -27.232,-30.058 -30.263,-52.954c-1.369,-11.256 0.895,-23.535 6.319,-33.46c5.243,-10.079 12.816,-18.048 20.759,-24.418c16.09,-12.701 33.831,-20.554 51.521,-26.924c17.753,-6.383 35.839,-10.654 53.899,-14.121l-7.226,23.062c-17.395,-18.112 -35.367,-35.584 -54.271,-51.585c-18.917,-15.835 -38.666,-30.864 -59.924,-40.751c-21.207,-9.9 -43.681,-12.868 -62.278,-1.893c-18.944,10.539 -33.947,30.902 -47.274,51.636c-26.529,42.171 -49.705,89.036 -83.728,128.482c-16.974,19.608 -36.646,37.247 -59.08,50.28c-22.346,13.239 -47.428,21.079 -72.715,24.047c24.865,-5.602 48.412,-15.694 69.043,-29.828c20.657,-14.172 38.104,-32.386 52.966,-52.378c30.238,-40.009 49.936,-86.529 75.926,-131.386c13.277,-22.038 27.846,-45.522 53.095,-61.306c12.624,-7.61 28.126,-11.562 42.95,-10.961c14.85,0.614 28.729,4.669 41.365,10.092c25.185,11.179 46.878,26.643 66.921,43.347c20.082,16.718 38.781,34.638 56.778,53.082l17.255,17.702l-24.495,5.346c-33.69,7.368 -68.711,16.321 -93.921,35.175c-12.177,9.606 -19.787,21.22 -18.675,34.266c0.819,13.29 10.016,27.321 21.194,39.165c11.32,11.998 25.198,22.307 40.023,30.992c14.786,8.787 30.62,16.193 47.12,21.667c32.539,11.064 69.62,16.833 102.62,1.369Z" style="fill:#333;fill-rule:nonzero;stroke:#333;stroke-width:33.33px;stroke-linejoin:round;stroke-miterlimit:2;"/></g><g id="Regular-S"><path d="M8367.89,3811.24c-14.518,10.923 -33.115,15.963 -51.444,17.191c-18.406,1.279 -37.042,-0.461 -55.09,-4.554c-35.967,-8.595 -70.681,-24.276 -99.37,-50.382c-13.878,-13.136 -27.232,-30.058 -30.263,-52.954c-1.369,-11.256 0.895,-23.535 6.319,-33.46c5.243,-10.079 12.816,-18.048 20.759,-24.418c16.09,-12.701 33.831,-20.554 51.521,-26.924c17.753,-6.383 35.839,-10.654 53.899,-14.121l-7.226,23.062c-17.395,-18.112 -35.367,-35.584 -54.271,-51.585c-18.917,-15.835 -38.666,-30.864 -59.924,-40.751c-21.207,-9.9 -43.681,-12.868 -62.278,-1.893c-18.944,10.539 -33.947,30.902 -47.274,51.636c-26.529,42.171 -49.705,89.036 -83.728,128.482c-16.974,19.608 -36.646,37.247 -59.08,50.28c-22.346,13.239 -47.428,21.079 -72.715,24.047c24.865,-5.602 48.412,-15.694 69.043,-29.828c20.657,-14.172 38.104,-32.386 52.966,-52.378c30.238,-40.009 49.936,-86.529 75.926,-131.386c13.277,-22.038 27.846,-45.522 53.095,-61.306c12.624,-7.61 28.126,-11.562 42.95,-10.961c14.85,0.614 28.729,4.669 41.365,10.092c25.185,11.179 46.878,26.643 66.921,43.347c20.082,16.718 38.781,34.638 56.778,53.082l17.255,17.702l-24.495,5.346c-33.69,7.368 -68.711,16.321 -93.921,35.175c-12.177,9.606 -19.787,21.22 -18.675,34.266c0.819,13.29 10.016,27.321 21.194,39.165c11.32,11.998 25.198,22.307 40.023,30.992c14.786,8.787 30.62,16.193 47.12,21.667c32.539,11.064 69.62,16.833 102.62,1.369Z" style="fill:#333;fill-rule:nonzero;stroke:#333;stroke-width:16.67px;stroke-linejoin:round;stroke-miterlimit:2;"/></g></g></svg>