<?xml version="1.0" encoding="UTF-8" standalone="no"?><!DOCTYPE svg PUBLIC "-//W3C//DTD SVG 1.1//EN" "http://www.w3.org/Graphics/SVG/1.1/DTD/svg11.dtd"><svg width="100%" height="100%" viewBox="0 0 18334 12223" version="1.1" xmlns="http://www.w3.org/2000/svg" xmlns:xlink="http://www.w3.org/1999/xlink" xml:space="preserve" xmlns:serif="http://www.serif.com/" style="fill-rule:evenodd;clip-rule:evenodd;"><g id="Notes"><rect id="artboard" x="0" y="0" width="18333.3" height="12222.2" style="fill:#fff;"/><path d="M1461.11,1622.22l15405.6,0" style="fill:none;fill-rule:nonzero;stroke:#000;stroke-width:2.78px;"/><text x="1461.11px" y="1788.89px" style="font-family:'Arial-BoldMT', 'Arial', sans-serif;font-weight:700;font-size:88.889px;">W<tspan x="1543.4px 1592.84px " y="1788.89px 1788.89px ">ei</tspan>ght/Scale V<tspan x="2091.8px 2141.23px " y="1788.89px 1788.89px ">ar</tspan>iations</text><text x="2934.14px" y="1788.89px" style="font-family:'ArialMT', 'Arial', sans-serif;font-size:88.889px;">Ultralight</text><text x="4671.44px" y="1788.89px" style="font-family:'ArialMT', 'Arial', sans-serif;font-size:88.889px;">Thin</text><text x="6309.9px" y="1788.89px" style="font-family:'ArialMT', 'Arial', sans-serif;font-size:88.889px;">Light</text><text x="7899.02px" y="1788.89px" style="font-family:'ArialMT', 'Arial', sans-serif;font-size:88.889px;">Regular</text><text x="9545.04px" y="1788.89px" style="font-family:'ArialMT', 'Arial', sans-serif;font-size:88.889px;">Medium</text><text x="11166.2px" y="1788.89px" style="font-family:'ArialMT', 'Arial', sans-serif;font-size:88.889px;">Semibold</text><text x="12910.9px" y="1788.89px" style="font-family:'ArialMT', 'Arial', sans-serif;font-size:88.889px;">Bold</text><text x="14522.3px" y="1788.89px" style="font-family:'ArialMT', 'Arial', sans-serif;font-size:88.889px;">Heavy</text><text x="16188px" y="1788.89px" style="font-family:'ArialMT', 'Arial', sans-serif;font-size:88.889px;">Black</text><path d="M1461.11,10572.2l15405.6,0" style="fill:none;fill-rule:nonzero;stroke:#000;stroke-width:2.78px;"/><g><path d="M1512.49,10743.5c23.926,0 43.837,-19.856 43.837,-43.782c0,-23.926 -19.965,-43.782 -43.891,-43.782c-23.872,-0 -43.728,19.856 -43.728,43.782c-0,23.926 19.911,43.782 43.782,43.782Zm0,-8.246c-19.694,-0 -35.427,-15.788 -35.427,-35.536c-0,-19.749 15.679,-35.536 35.373,-35.536c19.748,-0 35.536,15.787 35.59,35.536c0.054,19.748 -15.788,35.536 -35.536,35.536Zm-15.842,-31.467l11.719,-0l-0,11.773c-0,2.441 1.628,4.123 4.015,4.123c2.495,0 4.123,-1.682 4.123,-4.123l-0,-11.773l11.827,-0c2.442,-0 4.123,-1.628 4.123,-4.015c0,-2.441 -1.681,-4.123 -4.123,-4.123l-11.827,-0l-0,-11.719c-0,-2.496 -1.628,-4.177 -4.123,-4.177c-2.387,-0 -4.015,1.681 -4.015,4.177l-0,11.719l-11.719,-0c-2.495,-0 -4.177,1.682 -4.177,4.123c-0,2.387 1.682,4.015 4.177,4.015Z" style="fill-rule:nonzero;"/></g><g><path d="M1628.97,10755.1c30.274,0 55.339,-25.119 55.339,-55.338c-0,-30.274 -25.12,-55.339 -55.393,-55.339c-30.219,0 -55.284,25.065 -55.284,55.339c-0,30.219 25.119,55.338 55.338,55.338Zm0,-9.223c-25.608,0 -46.061,-20.508 -46.061,-46.115c-0,-25.608 20.399,-46.116 46.007,-46.116c25.608,0 46.115,20.508 46.17,46.116c0.054,25.607 -20.508,46.115 -46.116,46.115Zm-20.67,-41.558l16.059,0l-0,16.168c-0,2.712 1.844,4.557 4.503,4.557c2.712,0 4.611,-1.845 4.611,-4.557l-0,-16.168l16.168,0c2.713,0 4.557,-1.844 4.557,-4.503c0,-2.713 -1.844,-4.611 -4.557,-4.611l-16.168,-0l-0,-16.059c-0,-2.821 -1.899,-4.666 -4.611,-4.666c-2.659,-0 -4.503,1.898 -4.503,4.666l-0,16.059l-16.059,-0c-2.822,-0 -4.666,1.898 -4.666,4.611c-0,2.659 1.899,4.503 4.666,4.503Z" style="fill-rule:nonzero;"/></g><g><path d="M1777.19,10770.4c38.683,-0 70.692,-32.01 70.692,-70.638c0,-38.683 -32.064,-70.692 -70.747,-70.692c-38.628,-0 -70.583,32.009 -70.583,70.692c-0,38.628 32.009,70.638 70.638,70.638Zm-0,-10.091c-33.529,-0 -60.493,-27.018 -60.493,-60.547c0,-33.583 26.91,-60.547 60.438,-60.547c33.584,0 60.548,26.964 60.601,60.547c0.055,33.529 -26.963,60.547 -60.546,60.547Zm-27.29,-55.502l22.244,0l0,22.299c0,2.984 2.062,5.045 4.937,5.045c2.984,0 5.046,-2.061 5.046,-5.045l0,-22.299l22.352,0c2.93,0 5.046,-2.061 5.046,-4.937c-0,-2.984 -2.062,-5.099 -5.046,-5.099l-22.352,-0l0,-22.244c0,-3.093 -2.062,-5.155 -5.046,-5.155c-2.875,0 -4.937,2.116 -4.937,5.155l0,22.244l-22.244,-0c-3.092,-0 -5.154,2.115 -5.154,5.099c0,2.876 2.116,4.937 5.154,4.937Z" style="fill-rule:nonzero;"/></g><text x="1461.11px" y="10850px" style="font-family:'Arial-BoldMT', 'Arial', sans-serif;font-weight:700;font-size:88.889px;">Design V<tspan x="1836.55px 1885.98px " y="10850px 10850px ">ar</tspan>iations</text><text x="1461.11px" y="10950px" style="font-family:'ArialMT', 'Arial', sans-serif;font-size:88.889px;">Symbols are supported in up to nine weights and three scales.</text><text x="1461.11px" y="11050px" style="font-family:'ArialMT', 'Arial', sans-serif;font-size:88.889px;">For optimal layout with text and other symbols, vertically align</text><text x="1461.11px" y="11150px" style="font-family:'ArialMT', 'Arial', sans-serif;font-size:88.889px;">symbols with the adjacent text.</text><path d="M4311.11,10661.1l0,77.778" style="fill:none;fill-rule:nonzero;stroke:#00aeef;stroke-width:2.78px;"/><g><path d="M4329.5,10739.6c2.875,0 4.286,-1.085 5.317,-4.069l6.999,-19.206l32.009,0l6.999,19.206c1.031,2.984 2.441,4.069 5.262,4.069c2.876,0 4.72,-1.736 4.72,-4.449c0,-0.922 -0.162,-1.736 -0.596,-2.929l-25.445,-67.709c-1.248,-3.363 -3.472,-4.991 -6.945,-4.991c-3.363,0 -5.642,1.628 -6.836,4.937l-25.444,67.817c-0.434,1.194 -0.597,2.007 -0.597,2.93c-0,2.712 1.736,4.394 4.557,4.394Zm14.974,-31.467l13.184,-36.513l0.271,0l13.184,36.513l-26.639,0Z" style="fill-rule:nonzero;"/></g><path d="M4404.64,10661.1l0,77.778" style="fill:none;fill-rule:nonzero;stroke:#00aeef;stroke-width:2.78px;"/><text x="4311.11px" y="10850px" style="font-family:'Arial-BoldMT', 'Arial', sans-serif;font-weight:700;font-size:88.889px;">Margins</text><text x="4311.11px" y="10950px" style="font-family:'ArialMT', 'Arial', sans-serif;font-size:88.889px;">Leading and trailing margins on the left and right side of each symbol</text><text x="4311.11px" y="11050px" style="font-family:'ArialMT', 'Arial', sans-serif;font-size:88.889px;">can be adjusted by modifying the x-location of the margin guidelines.</text><text x="4311.11px" y="11150px" style="font-family:'ArialMT', 'Arial', sans-serif;font-size:88.889px;">Modiﬁcations are automatically applied proportionally to all</text><text x="4311.11px" y="11250px" style="font-family:'ArialMT', 'Arial', sans-serif;font-size:88.889px;">scales and weights.</text><g><path d="M7176.9,10749.3l9.44,9.495c4.774,4.828 10.254,4.503 15.408,-1.194l56.532,-62.283c1.465,0.488 2.984,0.38 4.72,0.054l5.914,-1.085l3.689,3.744l-0.217,3.092c-0.217,2.767 0.488,4.883 3.201,7.541l4.232,4.124c2.658,2.658 6.076,2.821 8.68,0.217l16.168,-16.222c2.604,-2.604 2.496,-5.914 -0.163,-8.572l-4.286,-4.232c-2.659,-2.658 -4.72,-3.526 -7.379,-3.309l-3.2,0.271l-3.581,-3.526l1.356,-6.24c0.705,-3.147 -0.162,-5.588 -3.418,-8.843l-12.207,-12.153c-18.555,-18.446 -43.186,-18.012 -59.245,-1.953c-2.333,2.279 -2.495,5.48 -1.193,7.65c1.302,2.007 3.852,3.309 7.433,2.387c8.138,-1.899 16.601,-2.225 24.522,2.984l-3.255,8.084c-1.085,2.658 -1.248,4.882 -0.543,6.89l-61.469,57.726c-5.479,5.099 -5.913,10.525 -1.139,15.353Zm43.945,-99.012c13.509,-9.875 31.793,-8.192 44.163,4.177l13.509,13.401c1.302,1.302 1.518,2.333 1.139,4.232l-1.791,8.246l8.355,8.247l5.48,-0.326c1.411,-0.054 1.845,0.054 2.93,1.139l3.201,3.201l-13.563,13.564l-3.201,-3.201c-1.085,-1.085 -1.248,-1.519 -1.194,-2.984l0.38,-5.425l-8.301,-8.247l-8.464,1.411c-1.79,0.379 -2.604,0.217 -3.96,-1.085l-11.122,-11.122c-1.411,-1.303 -1.573,-2.225 -0.706,-4.286l4.883,-11.61c-8.68,-8.084 -19.965,-11.557 -31.25,-8.247c-0.868,0.217 -1.193,-0.488 -0.488,-1.085Zm-30.436,101.454l-6.51,-6.456c-2.605,-2.55 -2.008,-4.449 0.217,-6.457l60.058,-56.532l8.138,8.247l-55.501,61.035c-1.953,2.224 -3.798,2.767 -6.402,0.163Z" style="fill-rule:nonzero;"/></g><text x="7161.11px" y="10850px" style="font-family:'Arial-BoldMT', 'Arial', sans-serif;font-weight:700;font-size:88.889px;">Exporting</text><text x="7161.11px" y="10950px" style="font-family:'ArialMT', 'Arial', sans-serif;font-size:88.889px;">Symbols should be outlined when exporting to ensure the</text><text x="7161.11px" y="11050px" style="font-family:'ArialMT', 'Arial', sans-serif;font-size:88.889px;">design is preserved when submitting to Xcode.</text><text id="template-version" x="16295.2px" y="10738.9px" style="font-family:'ArialMT', 'Arial', sans-serif;font-size:88.889px;">T<tspan x="16339.6px 16389.1px " y="10738.9px 10738.9px ">em</tspan>plate v<tspan x="16718.4px 16743.1px " y="10738.9px 10738.9px ">.2</tspan>.0</text><text x="15700.6px" y="10838.9px" style="font-family:'ArialMT', 'Arial', sans-serif;font-size:88.889px;">Requires Xcode 12 or greater</text><text x="16036.6px" y="10938.9px" style="font-family:'ArialMT', 'Arial', sans-serif;font-size:88.889px;">Generated from wind</text><text x="16021.7px" y="11038.9px" style="font-family:'ArialMT', 'Arial', sans-serif;font-size:88.889px;">T<tspan x="16071.1px 16115.5px " y="11038.9px 11038.9px ">yp</tspan>eset at 100 points</text><text x="1461.11px" y="4033.33px" style="font-family:'ArialMT', 'Arial', sans-serif;font-size:88.889px;">Small</text><text x="1461.11px" y="6422.22px" style="font-family:'ArialMT', 'Arial', sans-serif;font-size:88.889px;">Medium</text><text x="1461.11px" y="8811.11px" style="font-family:'ArialMT', 'Arial', sans-serif;font-size:88.889px;">Large</text></g><g id="Guides"><g id="H-reference"><path d="M1888.76,3866.67l14.919,-0l51.813,-135.905l182.02,-0l52.083,135.905l14.649,-0l-150.825,-391.439l-13.835,-0l-150.824,391.439Zm157.606,-372.993l0.543,-0l85.72,224.609l-172.255,0l85.992,-224.609Z" style="fill:#27aae1;fill-rule:nonzero;"/></g><path id="Baseline-S" d="M1461.11,3866.67l15405.6,-0" style="fill:none;fill-rule:nonzero;stroke:#27aae1;stroke-width:2.78px;"/><path id="Capline-S" d="M1461.11,3475.23l15405.6,-0" style="fill:none;fill-rule:nonzero;stroke:#27aae1;stroke-width:2.78px;"/><g id="H-reference1" serif:id="H-reference"><path d="M1888.76,6255.56l14.919,-0l51.813,-135.905l182.02,-0l52.083,135.905l14.649,-0l-150.825,-391.439l-13.835,-0l-150.824,391.439Zm157.606,-372.993l0.543,-0l85.72,224.609l-172.255,0l85.992,-224.609Z" style="fill:#27aae1;fill-rule:nonzero;"/></g><path id="Baseline-M" d="M1461.11,6255.56l15405.6,-0" style="fill:none;fill-rule:nonzero;stroke:#27aae1;stroke-width:2.78px;"/><path id="Capline-M" d="M1461.11,5864.11l15405.6,0" style="fill:none;fill-rule:nonzero;stroke:#27aae1;stroke-width:2.78px;"/><g id="H-reference2" serif:id="H-reference"><path d="M1888.76,8644.44l14.919,0l51.813,-135.905l182.02,0l52.083,135.905l14.649,0l-150.825,-391.438l-13.835,-0l-150.824,391.438Zm157.606,-372.992l0.543,-0l85.72,224.609l-172.255,0l85.992,-224.609Z" style="fill:#27aae1;fill-rule:nonzero;"/></g><path id="Baseline-L" d="M1461.11,8644.44l15405.6,0" style="fill:none;fill-rule:nonzero;stroke:#27aae1;stroke-width:2.78px;"/><path id="Capline-L" d="M1461.11,8253l15405.6,0" style="fill:none;fill-rule:nonzero;stroke:#27aae1;stroke-width:2.78px;"/><path id="left-margin" d="M7706.78,5726.61l-0,662.945" style="fill:none;fill-rule:nonzero;stroke:#00aeef;stroke-width:2.78px;"/><path id="right-margin" d="M8402.61,5726.61l0,662.945" style="fill:none;fill-rule:nonzero;stroke:#00aeef;stroke-width:2.78px;"/></g><g id="Symbols"><g id="Semibold-L"><path d="M11795.5,8123.41l-653.3,-98.611c-3.556,-0.543 -7.158,0.502 -9.879,2.844c-2.721,2.342 -4.287,5.753 -4.287,9.343l0,32.579l-108.152,132.185c-0.154,0.188 -0.268,0.404 -0.409,0.598c-0.185,0.259 -0.37,0.515 -0.534,0.783c-0.237,0.388 -0.44,0.789 -0.631,1.199c-0.133,0.28 -0.275,0.554 -0.385,0.844c-0.173,0.453 -0.296,0.924 -0.413,1.399c-0.065,0.253 -0.154,0.496 -0.201,0.752c-0.132,0.721 -0.206,1.451 -0.209,2.191c-0,0.015 -0.003,0.031 -0.003,0.043l-0,591.664c-0,6.808 5.519,12.327 12.326,12.327c6.807,-0 12.326,-5.519 12.326,-12.327l0,-561.908l86.285,86.285l0,31.873c0,3.59 1.566,7.001 4.287,9.343c2.252,1.939 5.109,2.983 8.04,2.983c0.61,0 1.226,-0.046 1.839,-0.138l653.3,-98.612c6.027,-0.909 10.486,-6.089 10.486,-12.187l0,-123.264c0,-6.099 -4.459,-11.279 -10.486,-12.188Zm-164.823,492.917l-428.684,0c-6.808,0 -12.327,5.519 -12.327,12.327c0,6.807 5.519,12.326 12.327,12.326l428.684,0c46.067,0 83.545,37.479 83.545,83.545c0,35.494 -28.874,64.372 -64.371,64.372c-27.035,-0 -49.031,-21.997 -49.031,-49.031c-0,-20.271 16.489,-36.761 36.76,-36.761c14.856,0 26.942,12.089 26.942,26.943c0,10.526 -8.563,19.09 -19.087,19.09c-6.807,0 -12.326,5.519 -12.326,12.327c-0,6.807 5.519,12.326 12.326,12.326c24.12,-0 43.74,-19.624 43.74,-43.743c0,-28.45 -23.146,-51.596 -51.595,-51.596c-33.864,0 -61.413,27.55 -61.413,61.414c-0,40.627 33.056,73.684 73.684,73.684c49.09,-0 89.024,-39.935 89.024,-89.025c0,-59.659 -48.535,-108.198 -108.198,-108.198Zm113.677,-160.243c-28.548,0 -51.77,23.223 -51.77,51.771c-0,24.197 19.685,43.882 43.881,43.882c6.808,-0 12.327,-5.519 12.327,-12.326c-0,-6.808 -5.519,-12.327 -12.327,-12.327c-10.6,0 -19.229,-8.625 -19.229,-19.229c0,-14.952 12.166,-27.118 27.118,-27.118c20.391,-0 36.98,16.588 36.98,36.979c-0,27.186 -22.12,49.306 -49.306,49.306l-554.688,-0c-6.807,-0 -12.327,5.519 -12.327,12.326c0,6.807 5.52,12.327 12.327,12.327l554.688,-0c40.782,-0 73.958,-33.177 73.958,-73.959c0,-33.984 -27.648,-61.632 -61.632,-61.632Zm-61.632,-24.653c0,-50.298 -40.917,-91.215 -91.215,-91.215c-41.599,-0 -75.438,33.839 -75.438,75.438c0,34.637 28.179,62.815 62.816,62.815c29.068,-0 52.717,-23.648 52.717,-52.714c-0,-24.619 -20.025,-44.643 -44.64,-44.643c-6.808,-0 -12.327,5.519 -12.327,12.326c0,6.808 5.519,12.327 12.327,12.327c11.019,-0 19.987,8.967 19.987,19.99c-0,15.473 -12.588,28.061 -28.064,28.061c-21.041,0 -38.163,-17.121 -38.163,-38.162c0,-28.003 22.782,-50.785 50.785,-50.785c36.702,-0 66.563,29.86 66.563,66.562c-0,47.577 -38.708,86.285 -86.285,86.285l-419.098,0c-6.807,0 -12.326,5.519 -12.326,12.327c-0,6.807 5.519,12.326 12.326,12.326l419.098,-0c61.173,-0 110.937,-49.765 110.937,-110.938Zm-530.035,-88.284l0,-291.834l86.285,13.023l-0,265.788l-86.285,13.023Zm271.181,-40.933l-86.285,13.023l0,-236.014l86.285,13.023l-0,209.968Zm-377.841,-93.487l82.007,-100.229l0,182.237l-82.007,-82.008Zm476.452,-101.597l86.285,13.026l-0,154.148l-86.285,13.026l0,-180.2Zm258.855,141.128l-73.959,11.161l0,-124.379l73.959,11.161l-0,102.057Z" style="fill:#333;fill-rule:nonzero;stroke:#333;stroke-width:19.44px;stroke-linejoin:round;stroke-miterlimit:2;"/></g><g id="Regular-L"><path d="M8478.82,8123.41l-653.299,-98.611c-3.556,-0.543 -7.159,0.502 -9.88,2.844c-2.721,2.342 -4.286,5.753 -4.286,9.343l-0,32.579l-108.152,132.185c-0.154,0.188 -0.268,0.404 -0.41,0.598c-0.185,0.259 -0.37,0.515 -0.533,0.783c-0.237,0.388 -0.441,0.789 -0.632,1.199c-0.132,0.28 -0.274,0.554 -0.385,0.844c-0.173,0.453 -0.296,0.924 -0.413,1.399c-0.065,0.253 -0.154,0.496 -0.2,0.752c-0.133,0.721 -0.207,1.451 -0.21,2.191c0,0.015 -0.003,0.031 -0.003,0.043l0,591.664c0,6.808 5.519,12.327 12.326,12.327c6.808,-0 12.327,-5.519 12.327,-12.327l-0,-561.908l86.285,86.285l-0,31.873c-0,3.59 1.565,7.001 4.286,9.343c2.253,1.939 5.109,2.983 8.04,2.983c0.61,0 1.226,-0.046 1.84,-0.138l653.299,-98.612c6.028,-0.909 10.487,-6.089 10.487,-12.187l-0,-123.264c-0,-6.099 -4.459,-11.279 -10.487,-12.188Zm-164.822,492.917l-428.685,0c-6.807,0 -12.326,5.519 -12.326,12.327c-0,6.807 5.519,12.326 12.326,12.326l428.685,0c46.066,0 83.545,37.479 83.545,83.545c-0,35.494 -28.875,64.372 -64.372,64.372c-27.035,-0 -49.031,-21.997 -49.031,-49.031c-0,-20.271 16.49,-36.761 36.76,-36.761c14.857,0 26.943,12.089 26.943,26.943c-0,10.526 -8.564,19.09 -19.088,19.09c-6.807,0 -12.326,5.519 -12.326,12.327c-0,6.807 5.519,12.326 12.326,12.326c24.12,-0 43.741,-19.624 43.741,-43.743c-0,-28.45 -23.146,-51.596 -51.596,-51.596c-33.863,0 -61.413,27.55 -61.413,61.414c0,40.627 33.056,73.684 73.684,73.684c49.09,-0 89.025,-39.935 89.025,-89.025c-0,-59.659 -48.536,-108.198 -108.198,-108.198Zm113.677,-160.243c-28.548,0 -51.771,23.223 -51.771,51.771c-0,24.197 19.685,43.882 43.882,43.882c6.807,-0 12.326,-5.519 12.326,-12.326c0,-6.808 -5.519,-12.327 -12.326,-12.327c-10.601,0 -19.229,-8.625 -19.229,-19.229c-0,-14.952 12.166,-27.118 27.118,-27.118c20.391,-0 36.979,16.588 36.979,36.979c-0,27.186 -22.12,49.306 -49.306,49.306l-554.688,-0c-6.807,-0 -12.326,5.519 -12.326,12.326c-0,6.807 5.519,12.327 12.326,12.327l554.688,-0c40.782,-0 73.959,-33.177 73.959,-73.959c-0,-33.984 -27.648,-61.632 -61.632,-61.632Zm-61.632,-24.653c-0,-50.298 -40.918,-91.215 -91.216,-91.215c-41.598,-0 -75.437,33.839 -75.437,75.438c-0,34.637 28.178,62.815 62.815,62.815c29.069,-0 52.717,-23.648 52.717,-52.714c0,-24.619 -20.024,-44.643 -44.64,-44.643c-6.807,-0 -12.326,5.519 -12.326,12.326c-0,6.808 5.519,12.327 12.326,12.327c11.02,-0 19.987,8.967 19.987,19.99c0,15.473 -12.588,28.061 -28.064,28.061c-21.041,0 -38.162,-17.121 -38.162,-38.162c-0,-28.003 22.782,-50.785 50.784,-50.785c36.702,-0 66.563,29.86 66.563,66.562c-0,31.269 -16.72,58.707 -41.689,73.843c-13.022,7.894 -28.288,12.442 -44.596,12.442l-419.098,0c-6.807,0 -12.326,5.519 -12.326,12.327c0,6.807 5.519,12.326 12.326,12.326l419.098,-0c61.173,-0 110.938,-49.765 110.938,-110.938Zm-530.036,-88.284l0,-291.834l86.285,13.023l0,265.788l-86.285,13.023Zm271.181,-40.933l-86.285,13.023l0,-236.014l86.285,13.023l0,209.968Zm-377.841,-93.487l82.008,-100.229l-0,182.237l-82.008,-82.008Zm476.452,-101.597l86.285,13.026l0,154.148l-86.285,13.026l0,-180.2Zm258.855,141.128l-73.959,11.161l0,-124.379l73.959,11.161l-0,102.057Z" style="fill:#414042;fill-rule:nonzero;"/></g><g id="Semibold-M"><path d="M11692.1,5831.02l-519.879,-78.472c-2.83,-0.432 -5.697,0.4 -7.862,2.263c-2.166,1.864 -3.411,4.579 -3.411,7.436l-0,25.925l-86.065,105.19c-0.123,0.149 -0.213,0.321 -0.326,0.475c-0.147,0.206 -0.294,0.41 -0.424,0.623c-0.189,0.309 -0.351,0.628 -0.503,0.954c-0.105,0.223 -0.218,0.442 -0.307,0.672c-0.137,0.36 -0.235,0.736 -0.328,1.113c-0.052,0.201 -0.123,0.395 -0.16,0.599c-0.105,0.574 -0.164,1.155 -0.166,1.743c-0,0.012 -0.003,0.025 -0.003,0.035l0,470.831c0,5.417 4.392,9.809 9.809,9.809c5.417,0 9.809,-4.392 9.809,-9.809l0,-447.152l68.664,68.663l-0,25.364c-0,2.857 1.245,5.571 3.411,7.435c1.792,1.542 4.066,2.374 6.398,2.374c0.485,-0 0.976,-0.037 1.464,-0.111l519.879,-78.472c4.797,-0.723 8.345,-4.846 8.345,-9.699l-0,-98.09c-0,-4.853 -3.548,-8.975 -8.345,-9.699Zm-131.162,392.252l-341.136,-0c-5.417,-0 -9.809,4.392 -9.809,9.809c-0,5.417 4.392,9.809 9.809,9.809l341.136,-0c36.659,-0 66.483,29.824 66.483,66.483c0,28.245 -22.977,51.225 -51.225,51.225c-21.513,0 -39.018,-17.504 -39.018,-39.018c0,-16.131 13.122,-29.253 29.253,-29.253c11.823,0 21.44,9.62 21.44,21.44c0,8.377 -6.814,15.192 -15.189,15.192c-5.417,0 -9.809,4.392 -9.809,9.809c0,5.417 4.392,9.809 9.809,9.809c19.194,0 34.808,-15.616 34.808,-34.81c-0,-22.639 -18.419,-41.058 -41.059,-41.058c-26.948,0 -48.871,21.923 -48.871,48.871c0,32.331 26.306,58.636 58.636,58.636c39.065,0 70.844,-31.779 70.844,-70.843c-0,-47.476 -38.624,-86.101 -86.102,-86.101Zm90.462,-127.518c-22.718,-0 -41.198,18.48 -41.198,41.198c-0,19.255 15.665,34.92 34.92,34.92c5.417,0 9.809,-4.392 9.809,-9.809c-0,-5.417 -4.392,-9.809 -9.809,-9.809c-8.436,0 -15.302,-6.864 -15.302,-15.302c-0,-11.898 9.681,-21.58 21.58,-21.58c16.226,0 29.427,13.201 29.427,29.427c-0,21.634 -17.602,39.236 -39.236,39.236l-441.407,0c-5.417,0 -9.809,4.392 -9.809,9.809c-0,5.417 4.392,9.809 9.809,9.809l441.407,0c32.453,0 58.854,-26.401 58.854,-58.854c-0,-27.043 -22.002,-49.045 -49.045,-49.045Zm-49.045,-19.618c-0,-40.026 -32.562,-72.587 -72.587,-72.587c-33.103,-0 -60.032,26.928 -60.032,60.031c0,27.564 22.424,49.987 49.987,49.987c23.132,0 41.951,-18.818 41.951,-41.948c-0,-19.591 -15.935,-35.526 -35.524,-35.526c-5.417,-0 -9.809,4.392 -9.809,9.809c0,5.417 4.392,9.809 9.809,9.809c8.77,-0 15.906,7.136 15.906,15.908c-0,12.313 -10.018,22.33 -22.333,22.33c-16.744,0 -30.369,-13.625 -30.369,-30.369c0,-22.283 18.13,-40.413 40.414,-40.413c29.206,0 52.968,23.762 52.968,52.969c0,37.86 -30.802,68.663 -68.663,68.663l-333.507,0c-5.417,0 -9.809,4.392 -9.809,9.809c-0,5.417 4.392,9.809 9.809,9.809l333.507,0c48.68,0 88.282,-39.601 88.282,-88.281Zm-421.789,-70.255l-0,-232.234l68.663,10.363l-0,211.508l-68.663,10.363Zm215.799,-32.573l-68.664,10.363l0,-187.814l68.664,10.363l-0,167.088Zm-300.677,-74.395l65.26,-79.759l-0,145.019l-65.26,-65.26Zm379.149,-80.848l68.663,10.366l0,122.667l-68.663,10.365l-0,-143.398Zm205.99,112.306l-58.854,8.882l-0,-98.978l58.854,8.882l-0,81.214Z" style="fill:#333;fill-rule:nonzero;stroke:#333;stroke-width:19.44px;stroke-linejoin:round;stroke-miterlimit:2;"/></g><g id="Regular-M"><path d="M8375.41,5831.02l-519.879,-78.472c-2.83,-0.432 -5.697,0.4 -7.862,2.263c-2.165,1.864 -3.411,4.579 -3.411,7.436l-0,25.925l-86.065,105.19c-0.122,0.149 -0.213,0.321 -0.326,0.475c-0.147,0.206 -0.294,0.41 -0.424,0.623c-0.189,0.309 -0.351,0.628 -0.503,0.954c-0.105,0.223 -0.218,0.442 -0.306,0.672c-0.138,0.36 -0.236,0.736 -0.329,1.113c-0.051,0.201 -0.122,0.395 -0.159,0.599c-0.106,0.574 -0.165,1.155 -0.167,1.743c0,0.012 -0.002,0.025 -0.002,0.035l-0,470.831c-0,5.417 4.392,9.809 9.809,9.809c5.417,0 9.809,-4.392 9.809,-9.809l-0,-447.152l68.663,68.663l-0,25.364c-0,2.857 1.246,5.571 3.411,7.435c1.793,1.542 4.066,2.374 6.398,2.374c0.486,-0 0.976,-0.037 1.464,-0.111l519.879,-78.472c4.797,-0.723 8.345,-4.846 8.345,-9.699l0,-98.09c0,-4.853 -3.548,-8.975 -8.345,-9.699Zm-131.161,392.252l-341.137,-0c-5.417,-0 -9.809,4.392 -9.809,9.809c0,5.417 4.392,9.809 9.809,9.809l341.137,-0c36.658,-0 66.483,29.824 66.483,66.483c-0,28.245 -22.978,51.225 -51.225,51.225c-21.514,0 -39.018,-17.504 -39.018,-39.018c-0,-16.131 13.122,-29.253 29.253,-29.253c11.822,0 21.44,9.62 21.44,21.44c-0,8.377 -6.815,15.192 -15.19,15.192c-5.417,0 -9.809,4.392 -9.809,9.809c0,5.417 4.392,9.809 9.809,9.809c19.194,0 34.808,-15.616 34.808,-34.81c-0,-22.639 -18.419,-41.058 -41.058,-41.058c-26.948,0 -48.871,21.923 -48.871,48.871c-0,32.331 26.305,58.636 58.636,58.636c39.064,0 70.843,-31.779 70.843,-70.843c-0,-47.476 -38.623,-86.101 -86.101,-86.101Zm90.461,-127.518c-22.718,-0 -41.198,18.48 -41.198,41.198c0,19.255 15.665,34.92 34.92,34.92c5.417,0 9.809,-4.392 9.809,-9.809c0,-5.417 -4.392,-9.809 -9.809,-9.809c-8.435,0 -15.302,-6.864 -15.302,-15.302c0,-11.898 9.682,-21.58 21.58,-21.58c16.227,0 29.427,13.201 29.427,29.427c0,21.634 -17.602,39.236 -39.236,39.236l-441.407,0c-5.417,0 -9.809,4.392 -9.809,9.809c0,5.417 4.392,9.809 9.809,9.809l441.407,0c32.453,0 58.854,-26.401 58.854,-58.854c0,-27.043 -22.001,-49.045 -49.045,-49.045Zm-49.045,-19.618c-0,-40.026 -32.561,-72.587 -72.587,-72.587c-33.103,-0 -60.031,26.928 -60.031,60.031c-0,27.564 22.423,49.987 49.986,49.987c23.133,0 41.951,-18.818 41.951,-41.948c0,-19.591 -15.935,-35.526 -35.523,-35.526c-5.417,-0 -9.809,4.392 -9.809,9.809c-0,5.417 4.392,9.809 9.809,9.809c8.769,-0 15.905,7.136 15.905,15.908c0,12.313 -10.017,22.33 -22.333,22.33c-16.744,0 -30.368,-13.625 -30.368,-30.369c-0,-22.283 18.129,-40.413 40.413,-40.413c29.206,0 52.969,23.762 52.969,52.969c-0,37.86 -30.803,68.663 -68.664,68.663l-333.507,0c-5.417,0 -9.809,4.392 -9.809,9.809c-0,5.417 4.392,9.809 9.809,9.809l333.507,0c48.68,0 88.282,-39.601 88.282,-88.281Zm-421.789,-70.255l0,-232.234l68.663,10.363l0,211.508l-68.663,10.363Zm215.799,-32.573l-68.663,10.363l-0,-187.814l68.663,10.363l-0,167.088Zm-300.677,-74.395l65.26,-79.759l-0,145.019l-65.26,-65.26Zm379.149,-80.848l68.664,10.366l-0,122.667l-68.664,10.365l0,-143.398Zm205.99,112.306l-58.854,8.882l-0,-98.978l58.854,8.882l0,81.214Z" style="fill:#414042;fill-rule:nonzero;"/></g><g id="Semibold-S"><path d="M11632.7,3465.03l-414.063,-62.5c-2.254,-0.344 -4.537,0.318 -6.262,1.803c-1.724,1.484 -2.716,3.646 -2.716,5.922l-0,20.648l-68.547,83.78c-0.098,0.119 -0.17,0.255 -0.26,0.379c-0.117,0.164 -0.235,0.326 -0.338,0.496c-0.151,0.246 -0.279,0.5 -0.401,0.759c-0.083,0.178 -0.173,0.352 -0.244,0.536c-0.109,0.287 -0.187,0.585 -0.261,0.886c-0.041,0.16 -0.098,0.315 -0.127,0.477c-0.084,0.457 -0.131,0.92 -0.133,1.389c-0,0.009 -0.002,0.019 -0.002,0.027l-0,374.999c-0,4.314 3.498,7.812 7.812,7.812c4.315,0 7.813,-3.498 7.813,-7.812l-0,-356.14l54.688,54.688l-0,20.201c-0,2.276 0.992,4.438 2.716,5.922c1.428,1.229 3.239,1.891 5.096,1.891c0.387,-0 0.777,-0.03 1.166,-0.088l414.063,-62.5c3.821,-0.577 6.647,-3.86 6.647,-7.725l-0,-78.125c-0,-3.865 -2.826,-7.149 -6.647,-7.725Zm-104.465,312.413l-271.701,-0c-4.315,-0 -7.813,3.498 -7.813,7.812c0,4.315 3.498,7.813 7.813,7.813l271.701,-0c29.198,-0 52.952,23.754 52.952,52.951c-0,22.496 -18.301,40.799 -40.799,40.799c-17.135,0 -31.076,-13.941 -31.076,-31.076c-0,-12.848 10.451,-23.299 23.298,-23.299c9.416,0 17.077,7.662 17.077,17.076c-0,6.672 -5.428,12.1 -12.098,12.1c-4.315,-0 -7.813,3.498 -7.813,7.812c0,4.315 3.498,7.813 7.813,7.813c15.287,-0 27.723,-12.438 27.723,-27.725c-0,-18.031 -14.67,-32.701 -32.702,-32.701c-21.463,0 -38.924,17.461 -38.924,38.924c0,25.75 20.952,46.701 46.702,46.701c31.113,0 56.424,-25.31 56.424,-56.424c-0,-37.812 -30.762,-68.576 -68.577,-68.576Zm72.049,-101.563c-18.093,0 -32.812,14.719 -32.812,32.813c-0,15.336 12.476,27.812 27.812,27.812c4.315,0 7.813,-3.498 7.813,-7.812c-0,-4.315 -3.498,-7.813 -7.813,-7.813c-6.718,0 -12.187,-5.466 -12.187,-12.187c-0,-9.477 7.711,-17.188 17.187,-17.188c12.924,0 23.438,10.514 23.438,23.438c-0,17.23 -14.02,31.25 -31.25,31.25l-351.563,-0c-4.315,-0 -7.813,3.498 -7.813,7.812c0,4.315 3.498,7.813 7.813,7.813l351.563,-0c25.848,-0 46.875,-21.027 46.875,-46.875c-0,-21.539 -17.523,-39.063 -39.063,-39.063Zm-39.062,-15.625c-0,-31.879 -25.934,-57.812 -57.813,-57.812c-26.365,-0 -47.812,21.447 -47.812,47.812c-0,21.953 17.859,39.813 39.812,39.813c18.424,-0 33.412,-14.989 33.412,-33.41c0,-15.604 -12.691,-28.295 -28.293,-28.295c-4.314,-0 -7.812,3.498 -7.812,7.812c-0,4.315 3.498,7.813 7.812,7.813c6.985,-0 12.668,5.683 12.668,12.67c0,9.806 -7.978,17.785 -17.787,17.785c-13.336,-0 -24.187,-10.852 -24.187,-24.188c-0,-17.748 14.439,-32.187 32.187,-32.187c23.262,-0 42.188,18.925 42.188,42.187c-0,30.155 -24.534,54.688 -54.688,54.688l-265.625,-0c-4.315,-0 -7.813,3.498 -7.813,7.812c0,4.315 3.498,7.813 7.813,7.813l265.625,-0c38.772,-0 70.313,-31.541 70.313,-70.313Zm-335.938,-55.955l-0,-184.965l54.687,8.254l0,168.457l-54.687,8.254Zm171.875,-25.943l-54.688,8.254l0,-149.587l54.688,8.254l-0,133.079Zm-239.477,-59.252l51.977,-63.526l-0,115.502l-51.977,-51.976Zm301.977,-64.393l54.688,8.256l-0,97.699l-54.688,8.256l0,-114.211Zm164.063,89.447l-46.875,7.075l-0,-78.833l46.875,7.075l-0,64.683Z" style="fill:#333;fill-rule:nonzero;stroke:#333;stroke-width:19.44px;stroke-linejoin:round;stroke-miterlimit:2;"/></g><g id="Regular-S"><path d="M8316,3465.03l-414.064,-62.5c-2.254,-0.344 -4.537,0.318 -6.261,1.803c-1.725,1.484 -2.717,3.646 -2.717,5.922l-0,20.648l-68.547,83.78c-0.098,0.119 -0.17,0.255 -0.26,0.379c-0.117,0.164 -0.234,0.326 -0.338,0.496c-0.15,0.246 -0.279,0.5 -0.4,0.759c-0.084,0.178 -0.174,0.352 -0.244,0.536c-0.11,0.287 -0.188,0.585 -0.262,0.886c-0.041,0.16 -0.098,0.315 -0.127,0.477c-0.084,0.457 -0.131,0.92 -0.133,1.389c0,0.009 -0.002,0.019 -0.002,0.027l0,374.999c0,4.314 3.498,7.812 7.813,7.812c4.314,0 7.812,-3.498 7.812,-7.812l0,-356.14l54.688,54.688l-0,20.201c-0,2.276 0.992,4.438 2.717,5.922c1.427,1.229 3.238,1.891 5.095,1.891c0.387,-0 0.778,-0.03 1.166,-0.088l414.064,-62.5c3.82,-0.577 6.646,-3.86 6.646,-7.725l0,-78.125c0,-3.865 -2.826,-7.149 -6.646,-7.725Zm-104.465,312.413l-271.702,-0c-4.314,-0 -7.813,3.498 -7.813,7.812c0,4.315 3.499,7.813 7.813,7.813l271.702,-0c29.197,-0 52.951,23.754 52.951,52.951c-0,22.496 -18.301,40.799 -40.799,40.799c-17.135,0 -31.076,-13.941 -31.076,-31.076c-0,-12.848 10.451,-23.299 23.299,-23.299c9.416,0 17.076,7.662 17.076,17.076c-0,6.672 -5.428,12.1 -12.098,12.1c-4.314,-0 -7.812,3.498 -7.812,7.812c-0,4.315 3.498,7.813 7.812,7.813c15.287,-0 27.723,-12.438 27.723,-27.725c-0,-18.031 -14.67,-32.701 -32.701,-32.701c-21.463,0 -38.924,17.461 -38.924,38.924c-0,25.75 20.951,46.701 46.701,46.701c31.113,0 56.424,-25.31 56.424,-56.424c0,-37.812 -30.762,-68.576 -68.576,-68.576Zm72.049,-101.563c-18.094,0 -32.813,14.719 -32.813,32.813c0,15.336 12.477,27.812 27.813,27.812c4.314,0 7.812,-3.498 7.812,-7.812c0,-4.315 -3.498,-7.813 -7.812,-7.813c-6.719,0 -12.188,-5.466 -12.188,-12.187c0,-9.477 7.711,-17.188 17.188,-17.188c12.924,0 23.437,10.514 23.437,23.438c0,17.23 -14.019,31.25 -31.25,31.25l-351.563,-0c-4.315,-0 -7.813,3.498 -7.813,7.812c0,4.315 3.498,7.813 7.813,7.813l351.563,-0c25.848,-0 46.875,-21.027 46.875,-46.875c0,-21.539 -17.523,-39.063 -39.062,-39.063Zm-39.063,-15.625c0,-31.879 -25.934,-57.812 -57.813,-57.812c-26.365,-0 -47.812,21.447 -47.812,47.812c-0,21.953 17.859,39.813 39.812,39.813c18.424,-0 33.413,-14.989 33.413,-33.41c-0,-15.604 -12.692,-28.295 -28.293,-28.295c-4.315,-0 -7.813,3.498 -7.813,7.812c0,4.315 3.498,7.813 7.813,7.813c6.984,-0 12.668,5.683 12.668,12.67c-0,9.806 -7.979,17.785 -17.788,17.785c-13.335,-0 -24.187,-10.852 -24.187,-24.188c-0,-17.748 14.439,-32.187 32.187,-32.187c23.262,-0 42.188,18.925 42.188,42.187c0,30.155 -24.533,54.688 -54.688,54.688l-265.625,-0c-4.315,-0 -7.813,3.498 -7.813,7.812c0,4.315 3.498,7.813 7.813,7.813l265.625,-0c38.772,-0 70.313,-31.541 70.313,-70.313Zm-335.938,-55.955l-0,-184.965l54.688,8.254l-0,168.457l-54.688,8.254Zm171.875,-25.943l-54.687,8.254l-0,-149.587l54.687,8.254l0,133.079Zm-239.477,-59.252l51.977,-63.526l-0,115.502l-51.977,-51.976Zm301.977,-64.393l54.688,8.256l0,97.699l-54.688,8.256l0,-114.211Zm164.063,89.447l-46.875,7.075l0,-78.833l46.875,7.075l0,64.683Z" style="fill:#414042;fill-rule:nonzero;"/></g><g id="Regular-M1" serif:id="Regular-M"></g><g id="Regular-S1" serif:id="Regular-S"></g></g></svg>