<?xml version="1.0" encoding="UTF-8" standalone="no"?><!DOCTYPE svg PUBLIC "-//W3C//DTD SVG 1.1//EN" "http://www.w3.org/Graphics/SVG/1.1/DTD/svg11.dtd"><svg width="100%" height="100%" viewBox="0 0 18334 12223" version="1.1" xmlns="http://www.w3.org/2000/svg" xmlns:xlink="http://www.w3.org/1999/xlink" xml:space="preserve" xmlns:serif="http://www.serif.com/" style="fill-rule:evenodd;clip-rule:evenodd;"><g id="Notes"><rect id="artboard" x="0" y="0" width="18333.3" height="12222.2" style="fill:#fff;"/><path d="M1461.11,1622.22l15405.6,0" style="fill:none;fill-rule:nonzero;stroke:#000;stroke-width:2.78px;"/><text x="1461.11px" y="1788.89px" style="font-family:'Arial-BoldMT', 'Arial', sans-serif;font-weight:700;font-size:88.889px;">W<tspan x="1543.4px 1592.84px " y="1788.89px 1788.89px ">ei</tspan>ght/Scale V<tspan x="2091.8px 2141.23px " y="1788.89px 1788.89px ">ar</tspan>iations</text><text x="2934.14px" y="1788.89px" style="font-family:'ArialMT', 'Arial', sans-serif;font-size:88.889px;">Ultralight</text><text x="4671.44px" y="1788.89px" style="font-family:'ArialMT', 'Arial', sans-serif;font-size:88.889px;">Thin</text><text x="6309.9px" y="1788.89px" style="font-family:'ArialMT', 'Arial', sans-serif;font-size:88.889px;">Light</text><text x="7899.02px" y="1788.89px" style="font-family:'ArialMT', 'Arial', sans-serif;font-size:88.889px;">Regular</text><text x="9545.04px" y="1788.89px" style="font-family:'ArialMT', 'Arial', sans-serif;font-size:88.889px;">Medium</text><text x="11166.2px" y="1788.89px" style="font-family:'ArialMT', 'Arial', sans-serif;font-size:88.889px;">Semibold</text><text x="12910.9px" y="1788.89px" style="font-family:'ArialMT', 'Arial', sans-serif;font-size:88.889px;">Bold</text><text x="14522.3px" y="1788.89px" style="font-family:'ArialMT', 'Arial', sans-serif;font-size:88.889px;">Heavy</text><text x="16188px" y="1788.89px" style="font-family:'ArialMT', 'Arial', sans-serif;font-size:88.889px;">Black</text><path d="M1461.11,10572.2l15405.6,0" style="fill:none;fill-rule:nonzero;stroke:#000;stroke-width:2.78px;"/><g><path d="M1512.49,10743.5c23.926,0 43.837,-19.856 43.837,-43.782c0,-23.926 -19.965,-43.782 -43.891,-43.782c-23.872,-0 -43.728,19.856 -43.728,43.782c-0,23.926 19.911,43.782 43.782,43.782Zm0,-8.246c-19.694,-0 -35.427,-15.788 -35.427,-35.536c-0,-19.749 15.679,-35.536 35.373,-35.536c19.748,-0 35.536,15.787 35.59,35.536c0.054,19.748 -15.788,35.536 -35.536,35.536Zm-15.842,-31.467l11.719,-0l-0,11.773c-0,2.441 1.628,4.123 4.015,4.123c2.495,0 4.123,-1.682 4.123,-4.123l-0,-11.773l11.827,-0c2.442,-0 4.123,-1.628 4.123,-4.015c0,-2.441 -1.681,-4.123 -4.123,-4.123l-11.827,-0l-0,-11.719c-0,-2.496 -1.628,-4.177 -4.123,-4.177c-2.387,-0 -4.015,1.681 -4.015,4.177l-0,11.719l-11.719,-0c-2.495,-0 -4.177,1.682 -4.177,4.123c-0,2.387 1.682,4.015 4.177,4.015Z" style="fill-rule:nonzero;"/></g><g><path d="M1628.97,10755.1c30.274,0 55.339,-25.119 55.339,-55.338c-0,-30.274 -25.12,-55.339 -55.393,-55.339c-30.219,0 -55.284,25.065 -55.284,55.339c-0,30.219 25.119,55.338 55.338,55.338Zm0,-9.223c-25.608,0 -46.061,-20.508 -46.061,-46.115c-0,-25.608 20.399,-46.116 46.007,-46.116c25.608,0 46.115,20.508 46.17,46.116c0.054,25.607 -20.508,46.115 -46.116,46.115Zm-20.67,-41.558l16.059,0l-0,16.168c-0,2.712 1.844,4.557 4.503,4.557c2.712,0 4.611,-1.845 4.611,-4.557l-0,-16.168l16.168,0c2.713,0 4.557,-1.844 4.557,-4.503c0,-2.713 -1.844,-4.611 -4.557,-4.611l-16.168,-0l-0,-16.059c-0,-2.821 -1.899,-4.666 -4.611,-4.666c-2.659,-0 -4.503,1.898 -4.503,4.666l-0,16.059l-16.059,-0c-2.822,-0 -4.666,1.898 -4.666,4.611c-0,2.659 1.899,4.503 4.666,4.503Z" style="fill-rule:nonzero;"/></g><g><path d="M1777.19,10770.4c38.683,-0 70.692,-32.01 70.692,-70.638c0,-38.683 -32.064,-70.692 -70.747,-70.692c-38.628,-0 -70.583,32.009 -70.583,70.692c-0,38.628 32.009,70.638 70.638,70.638Zm-0,-10.091c-33.529,-0 -60.493,-27.018 -60.493,-60.547c0,-33.583 26.91,-60.547 60.438,-60.547c33.584,0 60.548,26.964 60.601,60.547c0.055,33.529 -26.963,60.547 -60.546,60.547Zm-27.29,-55.502l22.244,0l0,22.299c0,2.984 2.062,5.045 4.937,5.045c2.984,0 5.046,-2.061 5.046,-5.045l0,-22.299l22.352,0c2.93,0 5.046,-2.061 5.046,-4.937c-0,-2.984 -2.062,-5.099 -5.046,-5.099l-22.352,-0l0,-22.244c0,-3.093 -2.062,-5.155 -5.046,-5.155c-2.875,0 -4.937,2.116 -4.937,5.155l0,22.244l-22.244,-0c-3.092,-0 -5.154,2.115 -5.154,5.099c0,2.876 2.116,4.937 5.154,4.937Z" style="fill-rule:nonzero;"/></g><text x="1461.11px" y="10850px" style="font-family:'Arial-BoldMT', 'Arial', sans-serif;font-weight:700;font-size:88.889px;">Design V<tspan x="1836.55px 1885.98px " y="10850px 10850px ">ar</tspan>iations</text><text x="1461.11px" y="10950px" style="font-family:'ArialMT', 'Arial', sans-serif;font-size:88.889px;">Symbols are supported in up to nine weights and three scales.</text><text x="1461.11px" y="11050px" style="font-family:'ArialMT', 'Arial', sans-serif;font-size:88.889px;">For optimal layout with text and other symbols, vertically align</text><text x="1461.11px" y="11150px" style="font-family:'ArialMT', 'Arial', sans-serif;font-size:88.889px;">symbols with the adjacent text.</text><path d="M4311.11,10661.1l0,77.778" style="fill:none;fill-rule:nonzero;stroke:#00aeef;stroke-width:2.78px;"/><g><path d="M4329.5,10739.6c2.875,0 4.286,-1.085 5.317,-4.069l6.999,-19.206l32.009,0l6.999,19.206c1.031,2.984 2.441,4.069 5.262,4.069c2.876,0 4.72,-1.736 4.72,-4.449c0,-0.922 -0.162,-1.736 -0.596,-2.929l-25.445,-67.709c-1.248,-3.363 -3.472,-4.991 -6.945,-4.991c-3.363,0 -5.642,1.628 -6.836,4.937l-25.444,67.817c-0.434,1.194 -0.597,2.007 -0.597,2.93c-0,2.712 1.736,4.394 4.557,4.394Zm14.974,-31.467l13.184,-36.513l0.271,0l13.184,36.513l-26.639,0Z" style="fill-rule:nonzero;"/></g><path d="M4404.64,10661.1l0,77.778" style="fill:none;fill-rule:nonzero;stroke:#00aeef;stroke-width:2.78px;"/><text x="4311.11px" y="10850px" style="font-family:'Arial-BoldMT', 'Arial', sans-serif;font-weight:700;font-size:88.889px;">Margins</text><text x="4311.11px" y="10950px" style="font-family:'ArialMT', 'Arial', sans-serif;font-size:88.889px;">Leading and trailing margins on the left and right side of each symbol</text><text x="4311.11px" y="11050px" style="font-family:'ArialMT', 'Arial', sans-serif;font-size:88.889px;">can be adjusted by modifying the x-location of the margin guidelines.</text><text x="4311.11px" y="11150px" style="font-family:'ArialMT', 'Arial', sans-serif;font-size:88.889px;">Modiﬁcations are automatically applied proportionally to all</text><text x="4311.11px" y="11250px" style="font-family:'ArialMT', 'Arial', sans-serif;font-size:88.889px;">scales and weights.</text><g><path d="M7176.9,10749.3l9.44,9.495c4.774,4.828 10.254,4.503 15.408,-1.194l56.532,-62.283c1.465,0.488 2.984,0.38 4.72,0.054l5.914,-1.085l3.689,3.744l-0.217,3.092c-0.217,2.767 0.488,4.883 3.201,7.541l4.232,4.124c2.658,2.658 6.076,2.821 8.68,0.217l16.168,-16.222c2.604,-2.604 2.496,-5.914 -0.163,-8.572l-4.286,-4.232c-2.659,-2.658 -4.72,-3.526 -7.379,-3.309l-3.2,0.271l-3.581,-3.526l1.356,-6.24c0.705,-3.147 -0.162,-5.588 -3.418,-8.843l-12.207,-12.153c-18.555,-18.446 -43.186,-18.012 -59.245,-1.953c-2.333,2.279 -2.495,5.48 -1.193,7.65c1.302,2.007 3.852,3.309 7.433,2.387c8.138,-1.899 16.601,-2.225 24.522,2.984l-3.255,8.084c-1.085,2.658 -1.248,4.882 -0.543,6.89l-61.469,57.726c-5.479,5.099 -5.913,10.525 -1.139,15.353Zm43.945,-99.012c13.509,-9.875 31.793,-8.192 44.163,4.177l13.509,13.401c1.302,1.302 1.518,2.333 1.139,4.232l-1.791,8.246l8.355,8.247l5.48,-0.326c1.411,-0.054 1.845,0.054 2.93,1.139l3.201,3.201l-13.563,13.564l-3.201,-3.201c-1.085,-1.085 -1.248,-1.519 -1.194,-2.984l0.38,-5.425l-8.301,-8.247l-8.464,1.411c-1.79,0.379 -2.604,0.217 -3.96,-1.085l-11.122,-11.122c-1.411,-1.303 -1.573,-2.225 -0.706,-4.286l4.883,-11.61c-8.68,-8.084 -19.965,-11.557 -31.25,-8.247c-0.868,0.217 -1.193,-0.488 -0.488,-1.085Zm-30.436,101.454l-6.51,-6.456c-2.605,-2.55 -2.008,-4.449 0.217,-6.457l60.058,-56.532l8.138,8.247l-55.501,61.035c-1.953,2.224 -3.798,2.767 -6.402,0.163Z" style="fill-rule:nonzero;"/></g><text x="7161.11px" y="10850px" style="font-family:'Arial-BoldMT', 'Arial', sans-serif;font-weight:700;font-size:88.889px;">Exporting</text><text x="7161.11px" y="10950px" style="font-family:'ArialMT', 'Arial', sans-serif;font-size:88.889px;">Symbols should be outlined when exporting to ensure the</text><text x="7161.11px" y="11050px" style="font-family:'ArialMT', 'Arial', sans-serif;font-size:88.889px;">design is preserved when submitting to Xcode.</text><text id="template-version" x="16295.2px" y="10738.9px" style="font-family:'ArialMT', 'Arial', sans-serif;font-size:88.889px;">T<tspan x="16339.6px 16389.1px " y="10738.9px 10738.9px ">em</tspan>plate v<tspan x="16718.4px 16743.1px " y="10738.9px 10738.9px ">.2</tspan>.0</text><text x="15700.6px" y="10838.9px" style="font-family:'ArialMT', 'Arial', sans-serif;font-size:88.889px;">Requires Xcode 12 or greater</text><text x="16036.6px" y="10938.9px" style="font-family:'ArialMT', 'Arial', sans-serif;font-size:88.889px;">Generated from wind</text><text x="16021.7px" y="11038.9px" style="font-family:'ArialMT', 'Arial', sans-serif;font-size:88.889px;">T<tspan x="16071.1px 16115.5px " y="11038.9px 11038.9px ">yp</tspan>eset at 100 points</text><text x="1461.11px" y="4033.33px" style="font-family:'ArialMT', 'Arial', sans-serif;font-size:88.889px;">Small</text><text x="1461.11px" y="6422.22px" style="font-family:'ArialMT', 'Arial', sans-serif;font-size:88.889px;">Medium</text><text x="1461.11px" y="8811.11px" style="font-family:'ArialMT', 'Arial', sans-serif;font-size:88.889px;">Large</text></g><g id="Guides"><g id="H-reference"><path d="M1888.76,3866.67l14.919,-0l51.813,-135.905l182.02,-0l52.083,135.905l14.649,-0l-150.825,-391.439l-13.835,-0l-150.824,391.439Zm157.606,-372.993l0.543,-0l85.72,224.609l-172.255,0l85.992,-224.609Z" style="fill:#27aae1;fill-rule:nonzero;"/></g><path id="Baseline-S" d="M1461.11,3866.67l15405.6,-0" style="fill:none;fill-rule:nonzero;stroke:#27aae1;stroke-width:2.78px;"/><path id="Capline-S" d="M1461.11,3475.23l15405.6,-0" style="fill:none;fill-rule:nonzero;stroke:#27aae1;stroke-width:2.78px;"/><g id="H-reference1" serif:id="H-reference"><path d="M1888.76,6255.56l14.919,-0l51.813,-135.905l182.02,-0l52.083,135.905l14.649,-0l-150.825,-391.439l-13.835,-0l-150.824,391.439Zm157.606,-372.993l0.543,-0l85.72,224.609l-172.255,0l85.992,-224.609Z" style="fill:#27aae1;fill-rule:nonzero;"/></g><path id="Baseline-M" d="M1461.11,6255.56l15405.6,-0" style="fill:none;fill-rule:nonzero;stroke:#27aae1;stroke-width:2.78px;"/><path id="Capline-M" d="M1461.11,5864.11l15405.6,0" style="fill:none;fill-rule:nonzero;stroke:#27aae1;stroke-width:2.78px;"/><g id="H-reference2" serif:id="H-reference"><path d="M1888.76,8644.44l14.919,0l51.813,-135.905l182.02,0l52.083,135.905l14.649,0l-150.825,-391.438l-13.835,-0l-150.824,391.438Zm157.606,-372.992l0.543,-0l85.72,224.609l-172.255,0l85.992,-224.609Z" style="fill:#27aae1;fill-rule:nonzero;"/></g><path id="Baseline-L" d="M1461.11,8644.44l15405.6,0" style="fill:none;fill-rule:nonzero;stroke:#27aae1;stroke-width:2.78px;"/><path id="Capline-L" d="M1461.11,8253l15405.6,0" style="fill:none;fill-rule:nonzero;stroke:#27aae1;stroke-width:2.78px;"/><path id="left-margin" d="M7706.78,5726.61l-0,662.945" style="fill:none;fill-rule:nonzero;stroke:#00aeef;stroke-width:2.78px;"/><path id="right-margin" d="M8402.61,5726.61l0,662.945" style="fill:none;fill-rule:nonzero;stroke:#00aeef;stroke-width:2.78px;"/></g><g id="Symbols"><g id="Semibold-L"><path d="M11409.2,8616.78c-20.815,0.08 -30.887,10.333 -43.618,23.296c-14.145,14.418 -31.746,32.35 -65.393,32.35c-33.641,0 -51.249,-17.932 -65.394,-32.35c-12.78,-13.013 -22.874,-23.296 -43.855,-23.296c-20.974,-0 -31.067,10.283 -43.84,23.296c-14.146,14.418 -31.746,32.35 -65.394,32.35c-33.648,0 -51.248,-17.932 -65.394,-32.35c-12.78,-13.013 -22.874,-23.296 -43.847,-23.296l0,-30.177c33.64,-0 51.241,17.932 65.386,32.342c12.78,13.014 22.867,23.304 43.855,23.304c20.981,0 31.075,-10.29 43.848,-23.304c14.145,-14.41 31.746,-32.342 65.386,-32.342c33.64,-0 51.248,17.932 65.393,32.342c12.781,13.014 22.867,23.304 43.856,23.304c20.98,0 31.082,-10.29 43.862,-23.304c14.145,-14.41 31.746,-32.342 65.394,-32.342l0.393,0c33.384,0.139 50.903,17.988 64.993,32.342c12.773,13.014 22.867,23.304 43.855,23.304c20.981,0 31.075,-10.29 43.847,-23.304c14.146,-14.41 31.747,-32.342 65.387,-32.342c33.639,-0 51.248,17.932 65.393,32.342c12.773,13.014 22.867,23.304 43.856,23.304c20.98,0 31.082,-10.29 43.862,-23.304c14.145,-14.41 31.746,-32.342 65.394,-32.342l-0,30.177c-20.981,-0 -31.083,10.283 -43.863,23.296c-14.145,14.418 -31.754,32.35 -65.393,32.35c-33.641,0 -51.249,-17.932 -65.395,-32.35c-12.779,-13.013 -22.874,-23.296 -43.854,-23.296c-20.974,-0 -31.068,10.283 -43.84,23.296c-14.146,14.418 -31.746,32.35 -65.394,32.35c-33.648,0 -51.249,-17.932 -65.394,-32.35c-12.78,-13.013 -22.874,-23.296 -43.847,-23.296l-0.245,0Zm-0,-166.517c-20.815,0.08 -30.887,10.34 -43.618,23.304c-14.145,14.402 -31.746,32.334 -65.393,32.334c-33.641,0 -51.249,-17.932 -65.387,-32.334c-12.787,-13.014 -22.881,-23.305 -43.862,-23.305c-20.974,0 -31.067,10.291 -43.84,23.297c-14.146,14.41 -31.746,32.342 -65.394,32.342c-33.648,0 -51.248,-17.932 -65.394,-32.342c-12.78,-13.006 -22.874,-23.297 -43.847,-23.297l0,-30.177c33.64,0 51.241,17.933 65.378,32.335c12.788,13.021 22.875,23.304 43.863,23.304c20.981,0 31.075,-10.283 43.855,-23.304c14.138,-14.402 31.739,-32.335 65.379,-32.335c33.64,0 51.248,17.933 65.386,32.335c12.788,13.021 22.874,23.304 43.863,23.304c20.98,0 31.082,-10.283 43.862,-23.304c14.145,-14.402 31.746,-32.335 65.394,-32.335l0.393,0.001c33.384,0.139 50.903,17.988 64.985,32.334c12.781,13.021 22.875,23.304 43.863,23.304c20.981,0 31.075,-10.283 43.855,-23.304c14.138,-14.402 31.739,-32.335 65.379,-32.335c33.639,0 51.248,17.933 65.386,32.335c12.78,13.021 22.874,23.304 43.863,23.304c20.98,0 31.082,-10.283 43.862,-23.304c14.145,-14.402 31.746,-32.335 65.394,-32.335l-0,30.177c-20.981,0 -31.083,10.291 -43.863,23.305c-14.145,14.402 -31.754,32.334 -65.393,32.334c-33.641,0 -51.249,-17.932 -65.387,-32.334c-12.787,-13.014 -22.882,-23.305 -43.862,-23.305c-20.974,0 -31.068,10.291 -43.84,23.297c-14.146,14.41 -31.746,32.342 -65.394,32.342c-33.648,0 -51.249,-17.932 -65.394,-32.342c-12.78,-13.006 -22.874,-23.297 -43.847,-23.297l-0.245,0.001Zm-14.851,-351.76l-65.394,65.394l-21.335,-21.336l101.817,-101.817l101.818,101.817l-21.335,21.336l-65.394,-65.394l-0,210.025l-30.177,-0l-0,-210.025Z" style="fill:#333;fill-rule:nonzero;stroke:#333;stroke-width:17.78px;stroke-linejoin:round;stroke-miterlimit:2;"/></g><g id="Regular-L"><path d="M8092.51,8616.78c-20.814,0.08 -30.887,10.333 -43.617,23.296c-14.146,14.418 -31.747,32.35 -65.394,32.35c-33.64,0 -51.248,-17.932 -65.394,-32.35c-12.78,-13.013 -22.874,-23.296 -43.855,-23.296c-20.973,-0 -31.067,10.283 -43.84,23.296c-14.145,14.418 -31.746,32.35 -65.394,32.35c-33.647,0 -51.248,-17.932 -65.394,-32.35c-12.779,-13.013 -22.874,-23.296 -43.847,-23.296l0,-30.177c33.64,-0 51.241,17.932 65.387,32.342c12.779,13.014 22.866,23.304 43.854,23.304c20.981,0 31.076,-10.29 43.848,-23.304c14.145,-14.41 31.746,-32.342 65.386,-32.342c33.64,-0 51.248,17.932 65.394,32.342c12.78,13.014 22.867,23.304 43.855,23.304c20.98,0 31.082,-10.29 43.862,-23.304c14.146,-14.41 31.747,-32.342 65.394,-32.342l0.394,0c33.383,0.139 50.902,17.988 64.992,32.342c12.773,13.014 22.867,23.304 43.855,23.304c20.981,0 31.075,-10.29 43.848,-23.304c14.145,-14.41 31.746,-32.342 65.386,-32.342c33.64,-0 51.248,17.932 65.394,32.342c12.772,13.014 22.866,23.304 43.855,23.304c20.981,0 31.082,-10.29 43.862,-23.304c14.146,-14.41 31.746,-32.342 65.394,-32.342l0,30.177c-20.981,-0 -31.082,10.283 -43.863,23.296c-14.145,14.418 -31.753,32.35 -65.393,32.35c-33.64,0 -51.249,-17.932 -65.394,-32.35c-12.78,-13.013 -22.874,-23.296 -43.855,-23.296c-20.973,-0 -31.067,10.283 -43.84,23.296c-14.146,14.418 -31.746,32.35 -65.394,32.35c-33.647,0 -51.248,-17.932 -65.394,-32.35c-12.78,-13.013 -22.874,-23.296 -43.847,-23.296l-0.245,0Zm-0,-166.517c-20.814,0.08 -30.887,10.34 -43.617,23.304c-14.146,14.402 -31.747,32.334 -65.394,32.334c-33.64,0 -51.248,-17.932 -65.387,-32.334c-12.787,-13.014 -22.881,-23.305 -43.862,-23.305c-20.973,0 -31.067,10.291 -43.84,23.297c-14.145,14.41 -31.746,32.342 -65.394,32.342c-33.647,0 -51.248,-17.932 -65.394,-32.342c-12.779,-13.006 -22.874,-23.297 -43.847,-23.297l0,-30.177c33.64,0 51.241,17.933 65.379,32.335c12.787,13.021 22.874,23.304 43.862,23.304c20.981,0 31.076,-10.283 43.855,-23.304c14.138,-14.402 31.739,-32.335 65.379,-32.335c33.64,0 51.248,17.933 65.386,32.335c12.788,13.021 22.875,23.304 43.863,23.304c20.98,0 31.082,-10.283 43.862,-23.304c14.146,-14.402 31.747,-32.335 65.394,-32.335l0.394,0.001c33.383,0.139 50.902,17.988 64.985,32.334c12.78,13.021 22.874,23.304 43.862,23.304c20.981,0 31.075,-10.283 43.855,-23.304c14.138,-14.402 31.739,-32.335 65.379,-32.335c33.64,0 51.248,17.933 65.386,32.335c12.78,13.021 22.874,23.304 43.863,23.304c20.981,0 31.082,-10.283 43.862,-23.304c14.146,-14.402 31.746,-32.335 65.394,-32.335l0,30.177c-20.981,0 -31.082,10.291 -43.863,23.305c-14.145,14.402 -31.753,32.334 -65.393,32.334c-33.64,0 -51.249,-17.932 -65.387,-32.334c-12.787,-13.014 -22.881,-23.305 -43.862,-23.305c-20.973,0 -31.067,10.291 -43.84,23.297c-14.146,14.41 -31.746,32.342 -65.394,32.342c-33.647,0 -51.248,-17.932 -65.394,-32.342c-12.78,-13.006 -22.874,-23.297 -43.847,-23.297l-0.245,0.001Zm-14.851,-351.76l-65.394,65.394l-21.335,-21.336l101.817,-101.817l101.818,101.817l-21.335,21.336l-65.394,-65.394l0,210.025l-30.177,-0l-0,-210.025Z" style="fill:#333;fill-rule:nonzero;stroke:#333;stroke-width:5.56px;stroke-linejoin:round;stroke-miterlimit:2;"/></g><g id="Semibold-M"><path d="M11369.8,6223.1c-16.024,0.061 -23.778,7.955 -33.579,17.935c-10.89,11.099 -24.441,24.905 -50.344,24.905c-25.899,-0 -39.455,-13.806 -50.345,-24.905c-9.839,-10.019 -17.61,-17.936 -33.762,-17.936c-16.147,0 -23.918,7.917 -33.751,17.936c-10.891,11.099 -24.441,24.905 -50.345,24.905c-25.904,-0 -39.454,-13.806 -50.344,-24.905c-9.839,-10.019 -17.61,-17.936 -33.757,-17.936l0,-23.232c25.898,-0 39.449,13.806 50.339,24.899c9.839,10.019 17.604,17.941 33.762,17.941c16.153,0 23.924,-7.922 33.757,-17.941c10.89,-11.093 24.44,-24.899 50.339,-24.899c25.898,-0 39.454,13.806 50.344,24.899c9.839,10.019 17.604,17.941 33.763,17.941c16.152,0 23.929,-7.922 33.768,-17.941c10.89,-11.093 24.44,-24.899 50.344,-24.899l0.303,0c25.701,0.107 39.188,13.849 50.036,24.899c9.833,10.019 17.604,17.941 33.762,17.941c16.153,0 23.924,-7.922 33.757,-17.941c10.89,-11.093 24.44,-24.899 50.339,-24.899c25.898,-0 39.454,13.806 50.344,24.899c9.833,10.019 17.604,17.941 33.763,17.941c16.152,0 23.929,-7.922 33.768,-17.941c10.89,-11.093 24.44,-24.899 50.344,-24.899l0,23.232c-16.152,0 -23.929,7.917 -33.768,17.936c-10.89,11.099 -24.446,24.905 -50.344,24.905c-25.899,-0 -39.455,-13.806 -50.345,-24.905c-9.839,-10.019 -17.61,-17.936 -33.762,-17.936c-16.147,0 -23.918,7.917 -33.751,17.936c-10.891,11.099 -24.441,24.905 -50.345,24.905c-25.904,-0 -39.454,-13.806 -50.344,-24.905c-9.839,-10.019 -17.61,-17.936 -33.757,-17.936l-0.189,0.001Zm0,-128.197c-16.024,0.062 -23.778,7.961 -33.579,17.941c-10.89,11.088 -24.441,24.894 -50.344,24.894c-25.899,-0 -39.455,-13.806 -50.339,-24.894c-9.845,-10.019 -17.616,-17.941 -33.768,-17.941c-16.147,0 -23.918,7.922 -33.751,17.935c-10.891,11.094 -24.441,24.9 -50.345,24.9c-25.904,-0 -39.454,-13.806 -50.344,-24.9c-9.839,-10.013 -17.61,-17.935 -33.757,-17.935l0,-23.232c25.898,-0 39.449,13.806 50.333,24.893c9.845,10.025 17.61,17.941 33.768,17.941c16.153,0 23.924,-7.916 33.763,-17.941c10.884,-11.087 24.434,-24.893 50.333,-24.893c25.898,-0 39.454,13.806 50.338,24.893c9.845,10.025 17.61,17.941 33.769,17.941c16.152,0 23.929,-7.916 33.768,-17.941c10.89,-11.087 24.44,-24.893 50.344,-24.893l0.303,0c25.701,0.107 39.188,13.849 50.03,24.893c9.839,10.025 17.61,17.941 33.768,17.941c16.153,0 23.924,-7.916 33.763,-17.941c10.884,-11.087 24.434,-24.893 50.333,-24.893c25.898,-0 39.454,13.806 50.338,24.893c9.839,10.025 17.61,17.941 33.769,17.941c16.152,0 23.929,-7.916 33.768,-17.941c10.89,-11.087 24.44,-24.893 50.344,-24.893l0,23.232c-16.152,0 -23.929,7.922 -33.768,17.941c-10.89,11.088 -24.446,24.894 -50.344,24.894c-25.899,-0 -39.455,-13.806 -50.339,-24.894c-9.845,-10.019 -17.616,-17.941 -33.768,-17.941c-16.147,0 -23.918,7.922 -33.751,17.935c-10.891,11.094 -24.441,24.9 -50.345,24.9c-25.904,-0 -39.454,-13.806 -50.344,-24.9c-9.839,-10.013 -17.61,-17.935 -33.757,-17.935l-0.189,0Zm-11.433,-270.808l-50.344,50.345l-16.426,-16.425l78.386,-78.386l78.386,78.386l-16.425,16.425l-50.345,-50.345l0,161.692l-23.232,-0l0,-161.692Z" style="fill:#333;fill-rule:nonzero;stroke:#333;stroke-width:17.78px;stroke-linejoin:round;stroke-miterlimit:2;"/></g><g id="Regular-M"><path d="M8053.11,6223.1c-16.024,0.061 -23.779,7.955 -33.58,17.935c-10.89,11.099 -24.44,24.905 -50.344,24.905c-25.899,-0 -39.455,-13.806 -50.345,-24.905c-9.839,-10.019 -17.61,-17.936 -33.762,-17.936c-16.147,0 -23.918,7.917 -33.751,17.936c-10.89,11.099 -24.44,24.905 -50.344,24.905c-25.905,-0 -39.455,-13.806 -50.345,-24.905c-9.839,-10.019 -17.61,-17.936 -33.756,-17.936l-0,-23.232c25.898,-0 39.448,13.806 50.338,24.899c9.839,10.019 17.605,17.941 33.763,17.941c16.152,0 23.923,-7.922 33.756,-17.941c10.89,-11.093 24.441,-24.899 50.339,-24.899c25.898,-0 39.454,13.806 50.344,24.899c9.839,10.019 17.605,17.941 33.763,17.941c16.152,0 23.929,-7.922 33.768,-17.941c10.89,-11.093 24.44,-24.899 50.345,-24.899l0.302,0c25.701,0.107 39.189,13.849 50.036,24.899c9.833,10.019 17.605,17.941 33.763,17.941c16.152,0 23.923,-7.922 33.756,-17.941c10.89,-11.093 24.441,-24.899 50.339,-24.899c25.898,-0 39.454,13.806 50.344,24.899c9.834,10.019 17.605,17.941 33.763,17.941c16.152,0 23.929,-7.922 33.768,-17.941c10.89,-11.093 24.44,-24.899 50.345,-24.899l-0,23.232c-16.153,0 -23.93,7.917 -33.769,17.936c-10.89,11.099 -24.446,24.905 -50.344,24.905c-25.899,-0 -39.455,-13.806 -50.345,-24.905c-9.839,-10.019 -17.61,-17.936 -33.762,-17.936c-16.147,0 -23.918,7.917 -33.751,17.936c-10.89,11.099 -24.44,24.905 -50.344,24.905c-25.905,-0 -39.455,-13.806 -50.345,-24.905c-9.839,-10.019 -17.61,-17.936 -33.756,-17.936l-0.189,0.001Zm-0,-128.197c-16.024,0.062 -23.779,7.961 -33.58,17.941c-10.89,11.088 -24.44,24.894 -50.344,24.894c-25.899,-0 -39.455,-13.806 -50.339,-24.894c-9.845,-10.019 -17.616,-17.941 -33.768,-17.941c-16.147,0 -23.918,7.922 -33.751,17.935c-10.89,11.094 -24.44,24.9 -50.344,24.9c-25.905,-0 -39.455,-13.806 -50.345,-24.9c-9.839,-10.013 -17.61,-17.935 -33.756,-17.935l-0,-23.232c25.898,-0 39.448,13.806 50.332,24.893c9.845,10.025 17.611,17.941 33.769,17.941c16.152,0 23.923,-7.916 33.762,-17.941c10.884,-11.087 24.435,-24.893 50.333,-24.893c25.898,-0 39.454,13.806 50.338,24.893c9.845,10.025 17.611,17.941 33.769,17.941c16.152,0 23.929,-7.916 33.768,-17.941c10.89,-11.087 24.44,-24.893 50.345,-24.893l0.302,0c25.701,0.107 39.188,13.849 50.03,24.893c9.839,10.025 17.611,17.941 33.769,17.941c16.152,0 23.923,-7.916 33.762,-17.941c10.884,-11.087 24.435,-24.893 50.333,-24.893c25.898,-0 39.454,13.806 50.339,24.893c9.839,10.025 17.61,17.941 33.768,17.941c16.152,0 23.929,-7.916 33.768,-17.941c10.89,-11.087 24.44,-24.893 50.345,-24.893l-0,23.232c-16.153,0 -23.93,7.922 -33.769,17.941c-10.89,11.088 -24.446,24.894 -50.344,24.894c-25.899,-0 -39.455,-13.806 -50.339,-24.894c-9.845,-10.019 -17.616,-17.941 -33.768,-17.941c-16.147,0 -23.918,7.922 -33.751,17.935c-10.89,11.094 -24.44,24.9 -50.344,24.9c-25.905,-0 -39.455,-13.806 -50.345,-24.9c-9.839,-10.013 -17.61,-17.935 -33.756,-17.935l-0.189,0Zm-11.434,-270.808l-50.344,50.345l-16.425,-16.425l78.386,-78.386l78.386,78.386l-16.426,16.425l-50.344,-50.345l-0,161.692l-23.233,-0l0,-161.692Z" style="fill:#333;fill-rule:nonzero;stroke:#333;stroke-width:5.56px;stroke-linejoin:round;stroke-miterlimit:2;"/></g><g id="Semibold-S"><path d="M11387.1,3807.96c-13.67,0.052 -20.286,6.787 -28.647,15.301c-9.291,9.469 -20.851,21.247 -42.95,21.247c-22.094,-0 -33.659,-11.778 -42.949,-21.247c-8.394,-8.548 -15.024,-15.301 -28.803,-15.301c-13.775,-0 -20.405,6.753 -28.794,15.301c-9.29,9.469 -20.85,21.247 -42.949,21.247c-22.1,-0 -33.66,-11.778 -42.95,-21.247c-8.394,-8.548 -15.023,-15.301 -28.798,-15.301l-0,-19.82c22.094,-0 33.654,11.778 42.944,21.242c8.394,8.547 15.019,15.306 28.804,15.306c13.779,-0 20.409,-6.759 28.798,-15.306c9.29,-9.464 20.85,-21.242 42.945,-21.242c22.094,-0 33.658,11.778 42.949,21.242c8.394,8.547 15.019,15.306 28.803,15.306c13.78,-0 20.415,-6.759 28.808,-15.306c9.291,-9.464 20.851,-21.242 42.95,-21.242l0.259,0c21.925,0.092 33.432,11.815 42.686,21.242c8.389,8.547 15.018,15.306 28.803,15.306c13.78,-0 20.41,-6.759 28.798,-15.306c9.291,-9.464 20.851,-21.242 42.945,-21.242c22.094,-0 33.659,11.778 42.949,21.242c8.389,8.547 15.019,15.306 28.804,15.306c13.78,-0 20.414,-6.759 28.808,-15.306c9.29,-9.464 20.85,-21.242 42.95,-21.242l-0,19.82c-13.78,-0 -20.415,6.753 -28.809,15.301c-9.29,9.469 -20.855,21.247 -42.949,21.247c-22.095,-0 -33.659,-11.778 -42.95,-21.247c-8.394,-8.548 -15.023,-15.301 -28.803,-15.301c-13.775,-0 -20.405,6.753 -28.794,15.301c-9.29,9.469 -20.85,21.247 -42.949,21.247c-22.099,-0 -33.659,-11.778 -42.95,-21.247c-8.393,-8.548 -15.023,-15.301 -28.798,-15.301l-0.161,0Zm0,-109.366c-13.67,0.052 -20.286,6.792 -28.647,15.306c-9.291,9.459 -20.851,21.237 -42.95,21.237c-22.094,-0 -33.659,-11.778 -42.944,-21.237c-8.399,-8.548 -15.029,-15.306 -28.808,-15.306c-13.775,-0 -20.405,6.758 -28.794,15.301c-9.29,9.464 -20.85,21.242 -42.949,21.242c-22.1,-0 -33.66,-11.778 -42.95,-21.242c-8.394,-8.543 -15.023,-15.301 -28.798,-15.301l-0,-19.82c22.094,-0 33.654,11.778 42.939,21.237c8.399,8.552 15.024,15.306 28.809,15.306c13.779,-0 20.409,-6.754 28.803,-15.306c9.285,-9.459 20.845,-21.237 42.94,-21.237c22.094,-0 33.658,11.778 42.944,21.237c8.399,8.552 15.024,15.306 28.808,15.306c13.78,-0 20.415,-6.754 28.808,-15.306c9.291,-9.459 20.851,-21.237 42.95,-21.237l0.259,0c21.925,0.092 33.431,11.815 42.681,21.237c8.394,8.552 15.023,15.306 28.808,15.306c13.78,-0 20.41,-6.754 28.803,-15.306c9.286,-9.459 20.846,-21.237 42.94,-21.237c22.094,-0 33.659,11.778 42.945,21.237c8.393,8.552 15.023,15.306 28.808,15.306c13.78,-0 20.414,-6.754 28.808,-15.306c9.29,-9.459 20.85,-21.237 42.95,-21.237l-0,19.82c-13.78,-0 -20.415,6.758 -28.809,15.306c-9.29,9.459 -20.855,21.237 -42.949,21.237c-22.095,-0 -33.659,-11.778 -42.945,-21.237c-8.399,-8.548 -15.028,-15.306 -28.808,-15.306c-13.775,-0 -20.405,6.758 -28.794,15.301c-9.29,9.464 -20.85,21.242 -42.949,21.242c-22.099,-0 -33.659,-11.778 -42.95,-21.242c-8.393,-8.543 -15.023,-15.301 -28.798,-15.301l-0.161,0Zm-9.754,-231.03l-42.949,42.949l-14.013,-14.012l66.872,-66.872l66.872,66.872l-14.012,14.012l-42.95,-42.949l-0,137.941l-19.82,-0l0,-137.941Z" style="fill:#333;fill-rule:nonzero;stroke:#333;stroke-width:17.78px;stroke-linejoin:round;stroke-miterlimit:2;"/></g><g id="Regular-S"><path d="M8070.39,3807.96c-13.67,0.052 -20.286,6.787 -28.647,15.301c-9.29,9.469 -20.85,21.247 -42.949,21.247c-22.095,-0 -33.659,-11.778 -42.95,-21.247c-8.394,-8.548 -15.023,-15.301 -28.803,-15.301c-13.775,-0 -20.405,6.753 -28.794,15.301c-9.29,9.469 -20.85,21.247 -42.949,21.247c-22.099,-0 -33.659,-11.778 -42.95,-21.247c-8.393,-8.548 -15.023,-15.301 -28.798,-15.301l0,-19.82c22.094,-0 33.654,11.778 42.945,21.242c8.393,8.547 15.018,15.306 28.803,15.306c13.78,-0 20.41,-6.759 28.798,-15.306c9.291,-9.464 20.851,-21.242 42.945,-21.242c22.094,-0 33.659,11.778 42.949,21.242c8.394,8.547 15.019,15.306 28.804,15.306c13.779,-0 20.414,-6.759 28.808,-15.306c9.29,-9.464 20.85,-21.242 42.95,-21.242l0.258,0c21.926,0.092 33.432,11.815 42.686,21.242c8.389,8.547 15.019,15.306 28.803,15.306c13.78,-0 20.41,-6.759 28.799,-15.306c9.29,-9.464 20.85,-21.242 42.944,-21.242c22.094,-0 33.659,11.778 42.95,21.242c8.389,8.547 15.018,15.306 28.803,15.306c13.78,-0 20.415,-6.759 28.808,-15.306c9.291,-9.464 20.851,-21.242 42.95,-21.242l-0,19.82c-13.78,-0 -20.415,6.753 -28.808,15.301c-9.291,9.469 -20.856,21.247 -42.95,21.247c-22.094,-0 -33.659,-11.778 -42.95,-21.247c-8.393,-8.548 -15.023,-15.301 -28.803,-15.301c-13.775,-0 -20.404,6.753 -28.793,15.301c-9.291,9.469 -20.85,21.247 -42.95,21.247c-22.099,-0 -33.659,-11.778 -42.949,-21.247c-8.394,-8.548 -15.024,-15.301 -28.798,-15.301l-0.162,0Zm0,-109.366c-13.67,0.052 -20.286,6.792 -28.647,15.306c-9.29,9.459 -20.85,21.237 -42.949,21.237c-22.095,-0 -33.659,-11.778 -42.945,-21.237c-8.399,-8.548 -15.028,-15.306 -28.808,-15.306c-13.775,-0 -20.405,6.758 -28.794,15.301c-9.29,9.464 -20.85,21.242 -42.949,21.242c-22.099,-0 -33.659,-11.778 -42.95,-21.242c-8.393,-8.543 -15.023,-15.301 -28.798,-15.301l0,-19.82c22.094,-0 33.654,11.778 42.94,21.237c8.398,8.552 15.023,15.306 28.808,15.306c13.78,-0 20.41,-6.754 28.803,-15.306c9.286,-9.459 20.846,-21.237 42.94,-21.237c22.094,-0 33.659,11.778 42.945,21.237c8.398,8.552 15.023,15.306 28.808,15.306c13.779,-0 20.414,-6.754 28.808,-15.306c9.29,-9.459 20.85,-21.237 42.95,-21.237l0.258,0c21.926,0.092 33.432,11.815 42.681,21.237c8.394,8.552 15.024,15.306 28.808,15.306c13.78,-0 20.41,-6.754 28.803,-15.306c9.286,-9.459 20.846,-21.237 42.94,-21.237c22.094,-0 33.659,11.778 42.945,21.237c8.394,8.552 15.023,15.306 28.808,15.306c13.78,-0 20.415,-6.754 28.808,-15.306c9.291,-9.459 20.851,-21.237 42.95,-21.237l-0,19.82c-13.78,-0 -20.415,6.758 -28.808,15.306c-9.291,9.459 -20.856,21.237 -42.95,21.237c-22.094,-0 -33.659,-11.778 -42.945,-21.237c-8.398,-8.548 -15.028,-15.306 -28.808,-15.306c-13.775,-0 -20.404,6.758 -28.793,15.301c-9.291,9.464 -20.85,21.242 -42.95,21.242c-22.099,-0 -33.659,-11.778 -42.949,-21.242c-8.394,-8.543 -15.024,-15.301 -28.798,-15.301l-0.162,0Zm-9.754,-231.03l-42.949,42.949l-14.013,-14.012l66.872,-66.872l66.873,66.872l-14.013,14.012l-42.95,-42.949l0,137.941l-19.82,-0l0,-137.941Z" style="fill:#333;fill-rule:nonzero;stroke:#333;stroke-width:5.56px;stroke-linejoin:round;stroke-miterlimit:2;"/></g></g></svg>