<?xml version="1.0" encoding="UTF-8" standalone="no"?><!DOCTYPE svg PUBLIC "-//W3C//DTD SVG 1.1//EN" "http://www.w3.org/Graphics/SVG/1.1/DTD/svg11.dtd"><svg width="100%" height="100%" viewBox="0 0 18334 12223" version="1.1" xmlns="http://www.w3.org/2000/svg" xmlns:xlink="http://www.w3.org/1999/xlink" xml:space="preserve" xmlns:serif="http://www.serif.com/" style="fill-rule:evenodd;clip-rule:evenodd;"><g id="Notes"><rect id="artboard" x="0" y="0" width="18333.3" height="12222.2" style="fill:#fff;"/><path d="M1461.11,1622.22l15405.6,0" style="fill:none;fill-rule:nonzero;stroke:#000;stroke-width:2.78px;"/><text x="1461.11px" y="1788.89px" style="font-family:'Arial-BoldMT', 'Arial', sans-serif;font-weight:700;font-size:88.889px;">W<tspan x="1543.4px 1592.84px " y="1788.89px 1788.89px ">ei</tspan>ght/Scale V<tspan x="2091.8px 2141.23px " y="1788.89px 1788.89px ">ar</tspan>iations</text><text x="2934.14px" y="1788.89px" style="font-family:'ArialMT', 'Arial', sans-serif;font-size:88.889px;">Ultralight</text><text x="4671.44px" y="1788.89px" style="font-family:'ArialMT', 'Arial', sans-serif;font-size:88.889px;">Thin</text><text x="6309.9px" y="1788.89px" style="font-family:'ArialMT', 'Arial', sans-serif;font-size:88.889px;">Light</text><text x="7899.02px" y="1788.89px" style="font-family:'ArialMT', 'Arial', sans-serif;font-size:88.889px;">Regular</text><text x="9545.04px" y="1788.89px" style="font-family:'ArialMT', 'Arial', sans-serif;font-size:88.889px;">Medium</text><text x="11166.2px" y="1788.89px" style="font-family:'ArialMT', 'Arial', sans-serif;font-size:88.889px;">Semibold</text><text x="12910.9px" y="1788.89px" style="font-family:'ArialMT', 'Arial', sans-serif;font-size:88.889px;">Bold</text><text x="14522.3px" y="1788.89px" style="font-family:'ArialMT', 'Arial', sans-serif;font-size:88.889px;">Heavy</text><text x="16188px" y="1788.89px" style="font-family:'ArialMT', 'Arial', sans-serif;font-size:88.889px;">Black</text><path d="M1461.11,10572.2l15405.6,0" style="fill:none;fill-rule:nonzero;stroke:#000;stroke-width:2.78px;"/><g><path d="M1512.49,10743.5c23.926,0 43.837,-19.856 43.837,-43.782c0,-23.926 -19.965,-43.782 -43.891,-43.782c-23.872,-0 -43.728,19.856 -43.728,43.782c-0,23.926 19.911,43.782 43.782,43.782Zm0,-8.246c-19.694,-0 -35.427,-15.788 -35.427,-35.536c-0,-19.749 15.679,-35.536 35.373,-35.536c19.748,-0 35.536,15.787 35.59,35.536c0.054,19.748 -15.788,35.536 -35.536,35.536Zm-15.842,-31.467l11.719,-0l-0,11.773c-0,2.441 1.628,4.123 4.015,4.123c2.495,0 4.123,-1.682 4.123,-4.123l-0,-11.773l11.827,-0c2.442,-0 4.123,-1.628 4.123,-4.015c0,-2.441 -1.681,-4.123 -4.123,-4.123l-11.827,-0l-0,-11.719c-0,-2.496 -1.628,-4.177 -4.123,-4.177c-2.387,-0 -4.015,1.681 -4.015,4.177l-0,11.719l-11.719,-0c-2.495,-0 -4.177,1.682 -4.177,4.123c-0,2.387 1.682,4.015 4.177,4.015Z" style="fill-rule:nonzero;"/></g><g><path d="M1628.97,10755.1c30.274,0 55.339,-25.119 55.339,-55.338c-0,-30.274 -25.12,-55.339 -55.393,-55.339c-30.219,0 -55.284,25.065 -55.284,55.339c-0,30.219 25.119,55.338 55.338,55.338Zm0,-9.223c-25.608,0 -46.061,-20.508 -46.061,-46.115c-0,-25.608 20.399,-46.116 46.007,-46.116c25.608,0 46.115,20.508 46.17,46.116c0.054,25.607 -20.508,46.115 -46.116,46.115Zm-20.67,-41.558l16.059,0l-0,16.168c-0,2.712 1.844,4.557 4.503,4.557c2.712,0 4.611,-1.845 4.611,-4.557l-0,-16.168l16.168,0c2.713,0 4.557,-1.844 4.557,-4.503c0,-2.713 -1.844,-4.611 -4.557,-4.611l-16.168,-0l-0,-16.059c-0,-2.821 -1.899,-4.666 -4.611,-4.666c-2.659,-0 -4.503,1.898 -4.503,4.666l-0,16.059l-16.059,-0c-2.822,-0 -4.666,1.898 -4.666,4.611c-0,2.659 1.899,4.503 4.666,4.503Z" style="fill-rule:nonzero;"/></g><g><path d="M1777.19,10770.4c38.683,-0 70.692,-32.01 70.692,-70.638c0,-38.683 -32.064,-70.692 -70.747,-70.692c-38.628,-0 -70.583,32.009 -70.583,70.692c-0,38.628 32.009,70.638 70.638,70.638Zm-0,-10.091c-33.529,-0 -60.493,-27.018 -60.493,-60.547c0,-33.583 26.91,-60.547 60.438,-60.547c33.584,0 60.548,26.964 60.601,60.547c0.055,33.529 -26.963,60.547 -60.546,60.547Zm-27.29,-55.502l22.244,0l0,22.299c0,2.984 2.062,5.045 4.937,5.045c2.984,0 5.046,-2.061 5.046,-5.045l0,-22.299l22.352,0c2.93,0 5.046,-2.061 5.046,-4.937c-0,-2.984 -2.062,-5.099 -5.046,-5.099l-22.352,-0l0,-22.244c0,-3.093 -2.062,-5.155 -5.046,-5.155c-2.875,0 -4.937,2.116 -4.937,5.155l0,22.244l-22.244,-0c-3.092,-0 -5.154,2.115 -5.154,5.099c0,2.876 2.116,4.937 5.154,4.937Z" style="fill-rule:nonzero;"/></g><text x="1461.11px" y="10850px" style="font-family:'Arial-BoldMT', 'Arial', sans-serif;font-weight:700;font-size:88.889px;">Design V<tspan x="1836.55px 1885.98px " y="10850px 10850px ">ar</tspan>iations</text><text x="1461.11px" y="10950px" style="font-family:'ArialMT', 'Arial', sans-serif;font-size:88.889px;">Symbols are supported in up to nine weights and three scales.</text><text x="1461.11px" y="11050px" style="font-family:'ArialMT', 'Arial', sans-serif;font-size:88.889px;">For optimal layout with text and other symbols, vertically align</text><text x="1461.11px" y="11150px" style="font-family:'ArialMT', 'Arial', sans-serif;font-size:88.889px;">symbols with the adjacent text.</text><path d="M4311.11,10661.1l0,77.778" style="fill:none;fill-rule:nonzero;stroke:#00aeef;stroke-width:2.78px;"/><g><path d="M4329.5,10739.6c2.875,0 4.286,-1.085 5.317,-4.069l6.999,-19.206l32.009,0l6.999,19.206c1.031,2.984 2.441,4.069 5.262,4.069c2.876,0 4.72,-1.736 4.72,-4.449c0,-0.922 -0.162,-1.736 -0.596,-2.929l-25.445,-67.709c-1.248,-3.363 -3.472,-4.991 -6.945,-4.991c-3.363,0 -5.642,1.628 -6.836,4.937l-25.444,67.817c-0.434,1.194 -0.597,2.007 -0.597,2.93c-0,2.712 1.736,4.394 4.557,4.394Zm14.974,-31.467l13.184,-36.513l0.271,0l13.184,36.513l-26.639,0Z" style="fill-rule:nonzero;"/></g><path d="M4404.64,10661.1l0,77.778" style="fill:none;fill-rule:nonzero;stroke:#00aeef;stroke-width:2.78px;"/><text x="4311.11px" y="10850px" style="font-family:'Arial-BoldMT', 'Arial', sans-serif;font-weight:700;font-size:88.889px;">Margins</text><text x="4311.11px" y="10950px" style="font-family:'ArialMT', 'Arial', sans-serif;font-size:88.889px;">Leading and trailing margins on the left and right side of each symbol</text><text x="4311.11px" y="11050px" style="font-family:'ArialMT', 'Arial', sans-serif;font-size:88.889px;">can be adjusted by modifying the x-location of the margin guidelines.</text><text x="4311.11px" y="11150px" style="font-family:'ArialMT', 'Arial', sans-serif;font-size:88.889px;">Modiﬁcations are automatically applied proportionally to all</text><text x="4311.11px" y="11250px" style="font-family:'ArialMT', 'Arial', sans-serif;font-size:88.889px;">scales and weights.</text><g><path d="M7176.9,10749.3l9.44,9.495c4.774,4.828 10.254,4.503 15.408,-1.194l56.532,-62.283c1.465,0.488 2.984,0.38 4.72,0.054l5.914,-1.085l3.689,3.744l-0.217,3.092c-0.217,2.767 0.488,4.883 3.201,7.541l4.232,4.124c2.658,2.658 6.076,2.821 8.68,0.217l16.168,-16.222c2.604,-2.604 2.496,-5.914 -0.163,-8.572l-4.286,-4.232c-2.659,-2.658 -4.72,-3.526 -7.379,-3.309l-3.2,0.271l-3.581,-3.526l1.356,-6.24c0.705,-3.147 -0.162,-5.588 -3.418,-8.843l-12.207,-12.153c-18.555,-18.446 -43.186,-18.012 -59.245,-1.953c-2.333,2.279 -2.495,5.48 -1.193,7.65c1.302,2.007 3.852,3.309 7.433,2.387c8.138,-1.899 16.601,-2.225 24.522,2.984l-3.255,8.084c-1.085,2.658 -1.248,4.882 -0.543,6.89l-61.469,57.726c-5.479,5.099 -5.913,10.525 -1.139,15.353Zm43.945,-99.012c13.509,-9.875 31.793,-8.192 44.163,4.177l13.509,13.401c1.302,1.302 1.518,2.333 1.139,4.232l-1.791,8.246l8.355,8.247l5.48,-0.326c1.411,-0.054 1.845,0.054 2.93,1.139l3.201,3.201l-13.563,13.564l-3.201,-3.201c-1.085,-1.085 -1.248,-1.519 -1.194,-2.984l0.38,-5.425l-8.301,-8.247l-8.464,1.411c-1.79,0.379 -2.604,0.217 -3.96,-1.085l-11.122,-11.122c-1.411,-1.303 -1.573,-2.225 -0.706,-4.286l4.883,-11.61c-8.68,-8.084 -19.965,-11.557 -31.25,-8.247c-0.868,0.217 -1.193,-0.488 -0.488,-1.085Zm-30.436,101.454l-6.51,-6.456c-2.605,-2.55 -2.008,-4.449 0.217,-6.457l60.058,-56.532l8.138,8.247l-55.501,61.035c-1.953,2.224 -3.798,2.767 -6.402,0.163Z" style="fill-rule:nonzero;"/></g><text x="7161.11px" y="10850px" style="font-family:'Arial-BoldMT', 'Arial', sans-serif;font-weight:700;font-size:88.889px;">Exporting</text><text x="7161.11px" y="10950px" style="font-family:'ArialMT', 'Arial', sans-serif;font-size:88.889px;">Symbols should be outlined when exporting to ensure the</text><text x="7161.11px" y="11050px" style="font-family:'ArialMT', 'Arial', sans-serif;font-size:88.889px;">design is preserved when submitting to Xcode.</text><text id="template-version" x="16295.2px" y="10738.9px" style="font-family:'ArialMT', 'Arial', sans-serif;font-size:88.889px;">T<tspan x="16339.6px 16389.1px " y="10738.9px 10738.9px ">em</tspan>plate v<tspan x="16718.4px 16743.1px " y="10738.9px 10738.9px ">.2</tspan>.0</text><text x="15700.6px" y="10838.9px" style="font-family:'ArialMT', 'Arial', sans-serif;font-size:88.889px;">Requires Xcode 12 or greater</text><text x="16036.6px" y="10938.9px" style="font-family:'ArialMT', 'Arial', sans-serif;font-size:88.889px;">Generated from wind</text><text x="16021.7px" y="11038.9px" style="font-family:'ArialMT', 'Arial', sans-serif;font-size:88.889px;">T<tspan x="16071.1px 16115.5px " y="11038.9px 11038.9px ">yp</tspan>eset at 100 points</text><text x="1461.11px" y="4033.33px" style="font-family:'ArialMT', 'Arial', sans-serif;font-size:88.889px;">Small</text><text x="1461.11px" y="6422.22px" style="font-family:'ArialMT', 'Arial', sans-serif;font-size:88.889px;">Medium</text><text x="1461.11px" y="8811.11px" style="font-family:'ArialMT', 'Arial', sans-serif;font-size:88.889px;">Large</text></g><g id="Guides"><g id="H-reference"><path d="M1888.76,3866.67l14.919,-0l51.813,-135.905l182.02,-0l52.083,135.905l14.649,-0l-150.825,-391.439l-13.835,-0l-150.824,391.439Zm157.606,-372.993l0.543,-0l85.72,224.609l-172.255,0l85.992,-224.609Z" style="fill:#27aae1;fill-rule:nonzero;"/></g><path id="Baseline-S" d="M1461.11,3866.67l15405.6,-0" style="fill:none;fill-rule:nonzero;stroke:#27aae1;stroke-width:2.78px;"/><path id="Capline-S" d="M1461.11,3475.23l15405.6,-0" style="fill:none;fill-rule:nonzero;stroke:#27aae1;stroke-width:2.78px;"/><g id="H-reference1" serif:id="H-reference"><path d="M1888.76,6255.56l14.919,-0l51.813,-135.905l182.02,-0l52.083,135.905l14.649,-0l-150.825,-391.439l-13.835,-0l-150.824,391.439Zm157.606,-372.993l0.543,-0l85.72,224.609l-172.255,0l85.992,-224.609Z" style="fill:#27aae1;fill-rule:nonzero;"/></g><path id="Baseline-M" d="M1461.11,6255.56l15405.6,-0" style="fill:none;fill-rule:nonzero;stroke:#27aae1;stroke-width:2.78px;"/><path id="Capline-M" d="M1461.11,5864.11l15405.6,0" style="fill:none;fill-rule:nonzero;stroke:#27aae1;stroke-width:2.78px;"/><g id="H-reference2" serif:id="H-reference"><path d="M1888.76,8644.44l14.919,0l51.813,-135.905l182.02,0l52.083,135.905l14.649,0l-150.825,-391.438l-13.835,-0l-150.824,391.438Zm157.606,-372.992l0.543,-0l85.72,224.609l-172.255,0l85.992,-224.609Z" style="fill:#27aae1;fill-rule:nonzero;"/></g><path id="Baseline-L" d="M1461.11,8644.44l15405.6,0" style="fill:none;fill-rule:nonzero;stroke:#27aae1;stroke-width:2.78px;"/><path id="Capline-L" d="M1461.11,8253l15405.6,0" style="fill:none;fill-rule:nonzero;stroke:#27aae1;stroke-width:2.78px;"/><path id="left-margin" d="M7706.78,5726.61l-0,662.945" style="fill:none;fill-rule:nonzero;stroke:#00aeef;stroke-width:2.78px;"/><path id="right-margin" d="M8402.61,5726.61l0,662.945" style="fill:none;fill-rule:nonzero;stroke:#00aeef;stroke-width:2.78px;"/></g><g id="Symbols"><g id="Semibold-L"><path d="M11791.4,8246.53l-74.306,11.214l0,-124.964l74.306,11.214l0,102.536Zm-631.598,95.334l0,-293.204l86.69,13.084l0,267.036l-86.69,13.084Zm-107.161,-135.05l82.393,-100.7l-0,183.092l-82.393,-82.392Zm379.615,93.925l-86.69,13.084l0,-237.122l86.69,13.084l0,210.954Zm99.074,-196l86.69,13.087l0,154.872l-86.69,13.087l0,-181.046Zm274.303,16.357l-656.367,-99.074c-3.573,-0.545 -7.192,0.504 -9.926,2.857c-2.734,2.353 -4.306,5.781 -4.306,9.388l-0,32.731l-108.66,132.806c-0.155,0.189 -0.269,0.406 -0.412,0.601c-0.186,0.26 -0.371,0.517 -0.535,0.786c-0.239,0.39 -0.443,0.793 -0.635,1.204c-0.133,0.282 -0.276,0.558 -0.387,0.849c-0.173,0.455 -0.297,0.929 -0.415,1.405c-0.065,0.254 -0.155,0.499 -0.201,0.756c-0.133,0.724 -0.208,1.458 -0.211,2.201c0,0.016 -0.003,0.031 -0.003,0.044l0,594.442c0,6.839 5.545,12.384 12.384,12.384c6.84,-0 12.385,-5.545 12.385,-12.384l-0,-564.547l86.69,86.69l-0,32.023c-0,3.607 1.572,7.034 4.306,9.387c2.263,1.947 5.134,2.997 8.078,2.997c0.613,-0 1.232,-0.047 1.848,-0.139l656.367,-99.075c6.056,-0.913 10.536,-6.117 10.536,-12.245l-0,-123.842c-0,-6.127 -4.48,-11.332 -10.536,-12.245Z" style="fill:#414042;fill-rule:nonzero;stroke:#333;stroke-width:19.44px;stroke-linejoin:round;stroke-miterlimit:2;"/></g><g id="Regular-L"><path d="M8469.17,8252.09l-74.306,11.214l0,-124.963l74.306,11.214l-0,102.535Zm-631.598,95.335l-0,-293.204l86.69,13.084l-0,267.036l-86.69,13.084Zm-107.161,-135.051l82.392,-100.7l0,183.093l-82.392,-82.393Zm379.615,93.926l-86.69,13.084l0,-237.122l86.69,13.084l-0,210.954Zm99.074,-196l86.69,13.087l0,154.871l-86.69,13.088l0,-181.046Zm274.302,16.356l-656.366,-99.074c-3.573,-0.545 -7.192,0.505 -9.926,2.858c-2.734,2.353 -4.307,5.78 -4.307,9.387l0,32.732l-108.659,132.806c-0.155,0.189 -0.27,0.405 -0.412,0.6c-0.186,0.26 -0.372,0.517 -0.536,0.787c-0.238,0.39 -0.442,0.792 -0.634,1.204c-0.133,0.282 -0.276,0.557 -0.387,0.848c-0.174,0.455 -0.298,0.929 -0.415,1.406c-0.065,0.254 -0.155,0.498 -0.201,0.755c-0.134,0.725 -0.208,1.459 -0.211,2.202c0,0.015 -0.003,0.031 -0.003,0.043l-0,594.442c-0,6.839 5.545,12.384 12.384,12.384c6.839,0 12.384,-5.545 12.384,-12.384l0,-564.546l86.69,86.69l0,32.022c0,3.607 1.573,7.035 4.307,9.388c2.263,1.947 5.133,2.996 8.078,2.996c0.613,0 1.232,-0.046 1.848,-0.139l656.366,-99.074c6.056,-0.913 10.536,-6.118 10.536,-12.245l0,-123.843c0,-6.127 -4.48,-11.331 -10.536,-12.245Z" style="fill:#414042;fill-rule:nonzero;"/></g><g id="Semibold-M"><path d="M11679.9,5927.07l-58.681,8.856l0,-98.686l58.681,8.856l-0,80.974Zm-498.786,75.288l0,-231.549l68.461,10.332l0,210.884l-68.461,10.333Zm-84.627,-106.652l65.067,-79.525l0,144.592l-65.067,-65.067Zm299.79,74.174l-68.461,10.333l0,-187.26l68.461,10.333l-0,166.594Zm78.241,-154.785l68.46,10.336l0,122.305l-68.46,10.335l-0,-142.976Zm216.622,12.918l-518.346,-78.241c-2.822,-0.431 -5.68,0.398 -7.839,2.256c-2.159,1.859 -3.401,4.565 -3.401,7.414l0,25.849l-85.811,104.879c-0.122,0.149 -0.212,0.32 -0.325,0.474c-0.146,0.206 -0.293,0.409 -0.423,0.621c-0.188,0.308 -0.349,0.626 -0.501,0.952c-0.105,0.222 -0.218,0.44 -0.306,0.67c-0.136,0.359 -0.234,0.733 -0.327,1.11c-0.052,0.2 -0.122,0.393 -0.159,0.596c-0.105,0.572 -0.164,1.152 -0.166,1.739c-0,0.012 -0.003,0.024 -0.003,0.034l0,469.443c0,5.401 4.379,9.78 9.78,9.78c5.401,-0 9.78,-4.379 9.78,-9.78l0,-445.834l68.461,68.461l0,25.289c0,2.848 1.242,5.555 3.401,7.413c1.787,1.538 4.054,2.367 6.379,2.367c0.484,-0 0.973,-0.037 1.46,-0.11l518.346,-78.241c4.782,-0.721 8.32,-4.832 8.32,-9.67l0,-97.801c0,-4.839 -3.538,-8.949 -8.32,-9.67Z" style="fill:#414042;fill-rule:nonzero;stroke:#333;stroke-width:19.44px;stroke-linejoin:round;stroke-miterlimit:2;"/></g><g id="Regular-M"><path d="M8357.71,5932.62l-58.681,8.856l0,-98.686l58.681,8.856l-0,80.974Zm-498.786,75.287l0,-231.549l68.461,10.333l-0,210.884l-68.461,10.332Zm-84.627,-106.652l65.067,-79.524l-0,144.591l-65.067,-65.067Zm299.79,74.175l-68.461,10.333l-0,-187.26l68.461,10.333l-0,166.594Zm78.24,-154.785l68.461,10.335l0,122.305l-68.461,10.335l0,-142.975Zm216.623,12.917l-518.346,-78.241c-2.822,-0.43 -5.68,0.399 -7.839,2.257c-2.159,1.858 -3.401,4.565 -3.401,7.413l-0,25.849l-85.811,104.88c-0.122,0.149 -0.212,0.32 -0.325,0.474c-0.147,0.205 -0.293,0.408 -0.423,0.621c-0.188,0.308 -0.35,0.626 -0.501,0.951c-0.105,0.223 -0.218,0.44 -0.306,0.67c-0.137,0.359 -0.235,0.734 -0.327,1.11c-0.052,0.201 -0.123,0.394 -0.159,0.597c-0.105,0.572 -0.164,1.151 -0.167,1.738c0,0.012 -0.002,0.025 -0.002,0.034l-0,469.443c-0,5.401 4.379,9.78 9.78,9.78c5.401,0 9.78,-4.379 9.78,-9.78l0,-445.833l68.461,68.46l-0,25.289c-0,2.849 1.242,5.555 3.401,7.414c1.787,1.537 4.054,2.366 6.379,2.366c0.484,0 0.973,-0.036 1.46,-0.11l518.346,-78.241c4.782,-0.721 8.32,-4.831 8.32,-9.67l-0,-97.801c-0,-4.839 -3.538,-8.949 -8.32,-9.67Z" style="fill:#414042;fill-rule:nonzero;"/></g><g id="Semibold-S"><path d="M11628.2,3536.87l-47.222,7.126l-0,-79.416l47.222,7.127l0,65.163Zm-401.39,60.586l0,-186.335l55.093,8.315l-0,169.705l-55.093,8.315Zm-68.102,-85.827l52.361,-63.996l0,116.358l-52.361,-52.362Zm241.251,59.691l-55.093,8.315l-0,-150.694l55.093,8.315l-0,134.064Zm62.963,-124.56l55.093,8.317l-0,98.423l-55.093,8.317l-0,-115.057Zm174.323,10.395l-417.131,-62.964c-2.27,-0.346 -4.57,0.321 -6.308,1.816c-1.737,1.496 -2.737,3.674 -2.737,5.966l0,20.802l-69.054,84.4c-0.099,0.12 -0.172,0.258 -0.262,0.382c-0.118,0.165 -0.236,0.328 -0.341,0.499c-0.151,0.248 -0.281,0.504 -0.403,0.766c-0.085,0.179 -0.175,0.354 -0.246,0.539c-0.11,0.289 -0.189,0.59 -0.264,0.893c-0.041,0.161 -0.098,0.317 -0.127,0.48c-0.085,0.461 -0.132,0.927 -0.134,1.399c-0,0.01 -0.002,0.02 -0.002,0.028l-0,377.776c-0,4.347 3.524,7.871 7.87,7.871c4.347,-0 7.871,-3.524 7.871,-7.871l-0,-358.777l55.092,55.093l0,20.35c0,2.293 1,4.471 2.737,5.966c1.439,1.238 3.263,1.905 5.134,1.905c0.389,-0 0.783,-0.03 1.174,-0.089l417.131,-62.963c3.849,-0.58 6.696,-3.888 6.696,-7.782l-0,-78.704c-0,-3.894 -2.847,-7.201 -6.696,-7.781Z" style="fill:#414042;fill-rule:nonzero;stroke:#333;stroke-width:19.44px;stroke-linejoin:round;stroke-miterlimit:2;"/></g><g id="Regular-S"><path d="M8305.98,3542.43l-47.223,7.127l0,-79.416l47.223,7.126l-0,65.163Zm-401.39,60.587l-0,-186.336l55.093,8.315l-0,169.706l-55.093,8.315Zm-68.103,-85.827l52.362,-63.996l0,116.358l-52.362,-52.362Zm241.251,59.691l-55.092,8.315l-0,-150.694l55.092,8.315l0,134.064Zm62.964,-124.561l55.092,8.317l0,98.423l-55.092,8.317l-0,-115.057Zm174.323,10.395l-417.131,-62.963c-2.27,-0.346 -4.571,0.321 -6.308,1.816c-1.737,1.495 -2.737,3.674 -2.737,5.966l0,20.801l-69.055,84.4c-0.098,0.12 -0.171,0.258 -0.261,0.382c-0.118,0.165 -0.236,0.329 -0.341,0.5c-0.151,0.248 -0.281,0.503 -0.403,0.765c-0.085,0.179 -0.175,0.354 -0.246,0.539c-0.11,0.29 -0.189,0.591 -0.264,0.894c-0.041,0.161 -0.098,0.316 -0.128,0.48c-0.084,0.46 -0.131,0.926 -0.133,1.399c-0,0.01 -0.002,0.019 -0.002,0.027l-0,377.777c-0,4.346 3.524,7.87 7.87,7.87c4.346,0 7.87,-3.524 7.87,-7.87l0,-358.778l55.093,55.093l0,20.351c0,2.292 1,4.47 2.737,5.966c1.438,1.237 3.262,1.904 5.134,1.904c0.389,0 0.783,-0.029 1.174,-0.088l417.131,-62.963c3.848,-0.581 6.696,-3.888 6.696,-7.782l-0,-78.704c-0,-3.894 -2.848,-7.202 -6.696,-7.782Z" style="fill:#414042;fill-rule:nonzero;"/></g></g></svg>