<?xml version="1.0" encoding="UTF-8" standalone="no"?><!DOCTYPE svg PUBLIC "-//W3C//DTD SVG 1.1//EN" "http://www.w3.org/Graphics/SVG/1.1/DTD/svg11.dtd"><svg width="100%" height="100%" viewBox="0 0 18334 12223" version="1.1" xmlns="http://www.w3.org/2000/svg" xmlns:xlink="http://www.w3.org/1999/xlink" xml:space="preserve" xmlns:serif="http://www.serif.com/" style="fill-rule:evenodd;clip-rule:evenodd;"><g id="Notes"><rect id="artboard" x="0" y="0" width="18333.3" height="12222.2" style="fill:#fff;"/><path d="M1461.11,1622.22l15405.6,0" style="fill:none;fill-rule:nonzero;stroke:#000;stroke-width:2.78px;"/><text x="1461.11px" y="1788.89px" style="font-family:'Arial-BoldMT', 'Arial', sans-serif;font-weight:700;font-size:88.889px;">W<tspan x="1543.4px 1592.84px " y="1788.89px 1788.89px ">ei</tspan>ght/Scale V<tspan x="2091.8px 2141.23px " y="1788.89px 1788.89px ">ar</tspan>iations</text><text x="2934.14px" y="1788.89px" style="font-family:'ArialMT', 'Arial', sans-serif;font-size:88.889px;">Ultralight</text><text x="4671.44px" y="1788.89px" style="font-family:'ArialMT', 'Arial', sans-serif;font-size:88.889px;">Thin</text><text x="6309.9px" y="1788.89px" style="font-family:'ArialMT', 'Arial', sans-serif;font-size:88.889px;">Light</text><text x="7899.02px" y="1788.89px" style="font-family:'ArialMT', 'Arial', sans-serif;font-size:88.889px;">Regular</text><text x="9545.04px" y="1788.89px" style="font-family:'ArialMT', 'Arial', sans-serif;font-size:88.889px;">Medium</text><text x="11166.2px" y="1788.89px" style="font-family:'ArialMT', 'Arial', sans-serif;font-size:88.889px;">Semibold</text><text x="12910.9px" y="1788.89px" style="font-family:'ArialMT', 'Arial', sans-serif;font-size:88.889px;">Bold</text><text x="14522.3px" y="1788.89px" style="font-family:'ArialMT', 'Arial', sans-serif;font-size:88.889px;">Heavy</text><text x="16188px" y="1788.89px" style="font-family:'ArialMT', 'Arial', sans-serif;font-size:88.889px;">Black</text><path d="M1461.11,10572.2l15405.6,0" style="fill:none;fill-rule:nonzero;stroke:#000;stroke-width:2.78px;"/><g><path d="M1512.49,10743.5c23.926,0 43.837,-19.856 43.837,-43.782c0,-23.926 -19.965,-43.782 -43.891,-43.782c-23.872,-0 -43.728,19.856 -43.728,43.782c-0,23.926 19.911,43.782 43.782,43.782Zm0,-8.246c-19.694,-0 -35.427,-15.788 -35.427,-35.536c-0,-19.749 15.679,-35.536 35.373,-35.536c19.748,-0 35.536,15.787 35.59,35.536c0.054,19.748 -15.788,35.536 -35.536,35.536Zm-15.842,-31.467l11.719,-0l-0,11.773c-0,2.441 1.628,4.123 4.015,4.123c2.495,0 4.123,-1.682 4.123,-4.123l-0,-11.773l11.827,-0c2.442,-0 4.123,-1.628 4.123,-4.015c0,-2.441 -1.681,-4.123 -4.123,-4.123l-11.827,-0l-0,-11.719c-0,-2.496 -1.628,-4.177 -4.123,-4.177c-2.387,-0 -4.015,1.681 -4.015,4.177l-0,11.719l-11.719,-0c-2.495,-0 -4.177,1.682 -4.177,4.123c-0,2.387 1.682,4.015 4.177,4.015Z" style="fill-rule:nonzero;"/></g><g><path d="M1628.97,10755.1c30.274,0 55.339,-25.119 55.339,-55.338c-0,-30.274 -25.12,-55.339 -55.393,-55.339c-30.219,0 -55.284,25.065 -55.284,55.339c-0,30.219 25.119,55.338 55.338,55.338Zm0,-9.223c-25.608,0 -46.061,-20.508 -46.061,-46.115c-0,-25.608 20.399,-46.116 46.007,-46.116c25.608,0 46.115,20.508 46.17,46.116c0.054,25.607 -20.508,46.115 -46.116,46.115Zm-20.67,-41.558l16.059,0l-0,16.168c-0,2.712 1.844,4.557 4.503,4.557c2.712,0 4.611,-1.845 4.611,-4.557l-0,-16.168l16.168,0c2.713,0 4.557,-1.844 4.557,-4.503c0,-2.713 -1.844,-4.611 -4.557,-4.611l-16.168,-0l-0,-16.059c-0,-2.821 -1.899,-4.666 -4.611,-4.666c-2.659,-0 -4.503,1.898 -4.503,4.666l-0,16.059l-16.059,-0c-2.822,-0 -4.666,1.898 -4.666,4.611c-0,2.659 1.899,4.503 4.666,4.503Z" style="fill-rule:nonzero;"/></g><g><path d="M1777.19,10770.4c38.683,-0 70.692,-32.01 70.692,-70.638c0,-38.683 -32.064,-70.692 -70.747,-70.692c-38.628,-0 -70.583,32.009 -70.583,70.692c-0,38.628 32.009,70.638 70.638,70.638Zm-0,-10.091c-33.529,-0 -60.493,-27.018 -60.493,-60.547c0,-33.583 26.91,-60.547 60.438,-60.547c33.584,0 60.548,26.964 60.601,60.547c0.055,33.529 -26.963,60.547 -60.546,60.547Zm-27.29,-55.502l22.244,0l0,22.299c0,2.984 2.062,5.045 4.937,5.045c2.984,0 5.046,-2.061 5.046,-5.045l0,-22.299l22.352,0c2.93,0 5.046,-2.061 5.046,-4.937c-0,-2.984 -2.062,-5.099 -5.046,-5.099l-22.352,-0l0,-22.244c0,-3.093 -2.062,-5.155 -5.046,-5.155c-2.875,0 -4.937,2.116 -4.937,5.155l0,22.244l-22.244,-0c-3.092,-0 -5.154,2.115 -5.154,5.099c0,2.876 2.116,4.937 5.154,4.937Z" style="fill-rule:nonzero;"/></g><text x="1461.11px" y="10850px" style="font-family:'Arial-BoldMT', 'Arial', sans-serif;font-weight:700;font-size:88.889px;">Design V<tspan x="1836.55px 1885.98px " y="10850px 10850px ">ar</tspan>iations</text><text x="1461.11px" y="10950px" style="font-family:'ArialMT', 'Arial', sans-serif;font-size:88.889px;">Symbols are supported in up to nine weights and three scales.</text><text x="1461.11px" y="11050px" style="font-family:'ArialMT', 'Arial', sans-serif;font-size:88.889px;">For optimal layout with text and other symbols, vertically align</text><text x="1461.11px" y="11150px" style="font-family:'ArialMT', 'Arial', sans-serif;font-size:88.889px;">symbols with the adjacent text.</text><path d="M4311.11,10661.1l0,77.778" style="fill:none;fill-rule:nonzero;stroke:#00aeef;stroke-width:2.78px;"/><g><path d="M4329.5,10739.6c2.875,0 4.286,-1.085 5.317,-4.069l6.999,-19.206l32.009,0l6.999,19.206c1.031,2.984 2.441,4.069 5.262,4.069c2.876,0 4.72,-1.736 4.72,-4.449c0,-0.922 -0.162,-1.736 -0.596,-2.929l-25.445,-67.709c-1.248,-3.363 -3.472,-4.991 -6.945,-4.991c-3.363,0 -5.642,1.628 -6.836,4.937l-25.444,67.817c-0.434,1.194 -0.597,2.007 -0.597,2.93c-0,2.712 1.736,4.394 4.557,4.394Zm14.974,-31.467l13.184,-36.513l0.271,0l13.184,36.513l-26.639,0Z" style="fill-rule:nonzero;"/></g><path d="M4404.64,10661.1l0,77.778" style="fill:none;fill-rule:nonzero;stroke:#00aeef;stroke-width:2.78px;"/><text x="4311.11px" y="10850px" style="font-family:'Arial-BoldMT', 'Arial', sans-serif;font-weight:700;font-size:88.889px;">Margins</text><text x="4311.11px" y="10950px" style="font-family:'ArialMT', 'Arial', sans-serif;font-size:88.889px;">Leading and trailing margins on the left and right side of each symbol</text><text x="4311.11px" y="11050px" style="font-family:'ArialMT', 'Arial', sans-serif;font-size:88.889px;">can be adjusted by modifying the x-location of the margin guidelines.</text><text x="4311.11px" y="11150px" style="font-family:'ArialMT', 'Arial', sans-serif;font-size:88.889px;">Modiﬁcations are automatically applied proportionally to all</text><text x="4311.11px" y="11250px" style="font-family:'ArialMT', 'Arial', sans-serif;font-size:88.889px;">scales and weights.</text><g><path d="M7176.9,10749.3l9.44,9.495c4.774,4.828 10.254,4.503 15.408,-1.194l56.532,-62.283c1.465,0.488 2.984,0.38 4.72,0.054l5.914,-1.085l3.689,3.744l-0.217,3.092c-0.217,2.767 0.488,4.883 3.201,7.541l4.232,4.124c2.658,2.658 6.076,2.821 8.68,0.217l16.168,-16.222c2.604,-2.604 2.496,-5.914 -0.163,-8.572l-4.286,-4.232c-2.659,-2.658 -4.72,-3.526 -7.379,-3.309l-3.2,0.271l-3.581,-3.526l1.356,-6.24c0.705,-3.147 -0.162,-5.588 -3.418,-8.843l-12.207,-12.153c-18.555,-18.446 -43.186,-18.012 -59.245,-1.953c-2.333,2.279 -2.495,5.48 -1.193,7.65c1.302,2.007 3.852,3.309 7.433,2.387c8.138,-1.899 16.601,-2.225 24.522,2.984l-3.255,8.084c-1.085,2.658 -1.248,4.882 -0.543,6.89l-61.469,57.726c-5.479,5.099 -5.913,10.525 -1.139,15.353Zm43.945,-99.012c13.509,-9.875 31.793,-8.192 44.163,4.177l13.509,13.401c1.302,1.302 1.518,2.333 1.139,4.232l-1.791,8.246l8.355,8.247l5.48,-0.326c1.411,-0.054 1.845,0.054 2.93,1.139l3.201,3.201l-13.563,13.564l-3.201,-3.201c-1.085,-1.085 -1.248,-1.519 -1.194,-2.984l0.38,-5.425l-8.301,-8.247l-8.464,1.411c-1.79,0.379 -2.604,0.217 -3.96,-1.085l-11.122,-11.122c-1.411,-1.303 -1.573,-2.225 -0.706,-4.286l4.883,-11.61c-8.68,-8.084 -19.965,-11.557 -31.25,-8.247c-0.868,0.217 -1.193,-0.488 -0.488,-1.085Zm-30.436,101.454l-6.51,-6.456c-2.605,-2.55 -2.008,-4.449 0.217,-6.457l60.058,-56.532l8.138,8.247l-55.501,61.035c-1.953,2.224 -3.798,2.767 -6.402,0.163Z" style="fill-rule:nonzero;"/></g><text x="7161.11px" y="10850px" style="font-family:'Arial-BoldMT', 'Arial', sans-serif;font-weight:700;font-size:88.889px;">Exporting</text><text x="7161.11px" y="10950px" style="font-family:'ArialMT', 'Arial', sans-serif;font-size:88.889px;">Symbols should be outlined when exporting to ensure the</text><text x="7161.11px" y="11050px" style="font-family:'ArialMT', 'Arial', sans-serif;font-size:88.889px;">design is preserved when submitting to Xcode.</text><text id="template-version" x="16295.2px" y="10738.9px" style="font-family:'ArialMT', 'Arial', sans-serif;font-size:88.889px;">T<tspan x="16339.6px 16389.1px " y="10738.9px 10738.9px ">em</tspan>plate v<tspan x="16718.4px 16743.1px " y="10738.9px 10738.9px ">.2</tspan>.0</text><text x="15700.6px" y="10838.9px" style="font-family:'ArialMT', 'Arial', sans-serif;font-size:88.889px;">Requires Xcode 12 or greater</text><text x="16036.6px" y="10938.9px" style="font-family:'ArialMT', 'Arial', sans-serif;font-size:88.889px;">Generated from wind</text><text x="16021.7px" y="11038.9px" style="font-family:'ArialMT', 'Arial', sans-serif;font-size:88.889px;">T<tspan x="16071.1px 16115.5px " y="11038.9px 11038.9px ">yp</tspan>eset at 100 points</text><text x="1461.11px" y="4033.33px" style="font-family:'ArialMT', 'Arial', sans-serif;font-size:88.889px;">Small</text><text x="1461.11px" y="6422.22px" style="font-family:'ArialMT', 'Arial', sans-serif;font-size:88.889px;">Medium</text><text x="1461.11px" y="8811.11px" style="font-family:'ArialMT', 'Arial', sans-serif;font-size:88.889px;">Large</text></g><g id="Guides"><g id="H-reference"><path d="M1888.76,3866.67l14.919,-0l51.813,-135.905l182.02,-0l52.083,135.905l14.649,-0l-150.825,-391.439l-13.835,-0l-150.824,391.439Zm157.606,-372.993l0.543,-0l85.72,224.609l-172.255,0l85.992,-224.609Z" style="fill:#27aae1;fill-rule:nonzero;"/></g><path id="Baseline-S" d="M1461.11,3866.67l15405.6,-0" style="fill:none;fill-rule:nonzero;stroke:#27aae1;stroke-width:2.78px;"/><path id="Capline-S" d="M1461.11,3475.23l15405.6,-0" style="fill:none;fill-rule:nonzero;stroke:#27aae1;stroke-width:2.78px;"/><g id="H-reference1" serif:id="H-reference"><path d="M1888.76,6255.56l14.919,-0l51.813,-135.905l182.02,-0l52.083,135.905l14.649,-0l-150.825,-391.439l-13.835,-0l-150.824,391.439Zm157.606,-372.993l0.543,-0l85.72,224.609l-172.255,0l85.992,-224.609Z" style="fill:#27aae1;fill-rule:nonzero;"/></g><path id="Baseline-M" d="M1461.11,6255.56l15405.6,-0" style="fill:none;fill-rule:nonzero;stroke:#27aae1;stroke-width:2.78px;"/><path id="Capline-M" d="M1461.11,5864.11l15405.6,0" style="fill:none;fill-rule:nonzero;stroke:#27aae1;stroke-width:2.78px;"/><g id="H-reference2" serif:id="H-reference"><path d="M1888.76,8644.44l14.919,0l51.813,-135.905l182.02,0l52.083,135.905l14.649,0l-150.825,-391.438l-13.835,-0l-150.824,391.438Zm157.606,-372.992l0.543,-0l85.72,224.609l-172.255,0l85.992,-224.609Z" style="fill:#27aae1;fill-rule:nonzero;"/></g><path id="Baseline-L" d="M1461.11,8644.44l15405.6,0" style="fill:none;fill-rule:nonzero;stroke:#27aae1;stroke-width:2.78px;"/><path id="Capline-L" d="M1461.11,8253l15405.6,0" style="fill:none;fill-rule:nonzero;stroke:#27aae1;stroke-width:2.78px;"/><path id="left-margin" d="M7706.78,5726.61l-0,662.945" style="fill:none;fill-rule:nonzero;stroke:#00aeef;stroke-width:2.78px;"/><path id="right-margin" d="M8402.61,5726.61l0,662.945" style="fill:none;fill-rule:nonzero;stroke:#00aeef;stroke-width:2.78px;"/></g><g id="Symbols"><g id="Semibold-L"><path d="M11407.4,8621.09c-21.707,0.083 -32.212,10.784 -45.496,24.303c-14.753,15.02 -33.109,33.723 -68.2,33.723c-35.084,-0 -53.447,-18.703 -68.192,-33.723c-13.328,-13.572 -23.856,-24.304 -45.737,-24.304c-21.873,0 -32.4,10.732 -45.729,24.296c-14.752,15.028 -33.108,33.731 -68.199,33.731c-35.084,-0 -53.44,-18.703 -68.184,-33.723c-13.329,-13.572 -23.856,-24.304 -45.737,-24.304l0,-31.472c35.091,0 53.447,18.702 68.2,33.73c13.32,13.572 23.848,24.297 45.721,24.297c21.889,-0 32.416,-10.725 45.744,-24.305c14.745,-15.02 33.101,-33.722 68.184,-33.722c35.084,0 53.447,18.702 68.192,33.722c13.328,13.58 23.856,24.305 45.737,24.305c21.888,-0 32.424,-10.725 45.752,-24.305c14.753,-15.02 33.109,-33.722 68.2,-33.722l0.411,0.001c34.823,0.145 53.094,18.76 67.789,33.729c13.32,13.572 23.848,24.297 45.721,24.297c21.888,-0 32.408,-10.725 45.744,-24.305c14.745,-15.02 33.101,-33.722 68.184,-33.722c35.083,0 53.447,18.702 68.192,33.722c13.329,13.58 23.856,24.305 45.737,24.305c21.888,-0 32.416,-10.725 45.752,-24.305c14.752,-15.02 33.109,-33.722 68.2,-33.722l-0,31.472c-21.889,0 -32.416,10.732 -45.752,24.304c-14.753,15.02 -33.109,33.723 -68.2,33.723c-35.084,-0 -53.447,-18.703 -68.192,-33.723c-13.328,-13.572 -23.856,-24.304 -45.737,-24.304c-21.873,0 -32.4,10.732 -45.729,24.296c-14.752,15.028 -33.108,33.731 -68.199,33.731c-35.084,-0 -53.44,-18.703 -68.184,-33.723c-13.329,-13.572 -23.856,-24.304 -45.737,-24.304l-0.256,0.001Zm0,-173.663c-21.707,0.084 -32.212,10.777 -45.496,24.304c-14.753,15.028 -33.109,33.73 -68.2,33.73c-35.084,-0 -53.447,-18.702 -68.2,-33.73c-13.32,-13.58 -23.848,-24.304 -45.729,-24.304c-21.873,-0 -32.4,10.724 -45.729,24.304c-14.752,15.028 -33.108,33.73 -68.199,33.73c-35.084,-0 -53.44,-18.702 -68.192,-33.73c-13.321,-13.58 -23.848,-24.304 -45.729,-24.304l0,-31.472c35.091,-0 53.447,18.702 68.2,33.73c13.32,13.58 23.848,24.304 45.721,24.304c21.889,-0 32.416,-10.724 45.737,-24.304c14.752,-15.028 33.108,-33.73 68.191,-33.73c35.084,-0 53.447,18.702 68.2,33.73c13.32,13.58 23.848,24.304 45.729,24.304c21.888,-0 32.424,-10.724 45.752,-24.304c14.753,-15.028 33.109,-33.73 68.2,-33.73l0.411,0.001c34.823,0.145 53.094,18.76 67.789,33.729c13.32,13.58 23.848,24.304 45.721,24.304c21.888,-0 32.408,-10.724 45.736,-24.304c14.753,-15.028 33.109,-33.73 68.192,-33.73c35.083,-0 53.447,18.702 68.2,33.73c13.321,13.58 23.848,24.304 45.729,24.304c21.888,-0 32.416,-10.724 45.752,-24.304c14.752,-15.028 33.109,-33.73 68.2,-33.73l-0,31.472c-21.889,-0 -32.416,10.724 -45.752,24.304c-14.753,15.028 -33.109,33.73 -68.2,33.73c-35.084,-0 -53.447,-18.702 -68.2,-33.73c-13.32,-13.58 -23.848,-24.304 -45.729,-24.304c-21.873,-0 -32.4,10.724 -45.729,24.304c-14.752,15.028 -33.108,33.73 -68.199,33.73c-35.084,-0 -53.44,-18.702 -68.192,-33.73c-13.321,-13.58 -23.848,-24.304 -45.729,-24.304l-0.256,0Zm15.976,-185.803l68.2,-68.2l22.25,22.251l-106.186,106.186l-106.186,-106.186l22.25,-22.251l68.2,68.2l0,-219.029l31.472,-0l0,219.029Z" style="fill:#333;fill-rule:nonzero;stroke:#333;stroke-width:19.44px;stroke-linejoin:round;stroke-miterlimit:2;"/></g><g id="Regular-L"><path d="M8090.75,8621.09c-21.708,0.083 -32.213,10.784 -45.497,24.303c-14.752,15.02 -33.109,33.723 -68.2,33.723c-35.083,-0 -53.447,-18.703 -68.192,-33.723c-13.328,-13.572 -23.855,-24.304 -45.736,-24.304c-21.874,0 -32.401,10.732 -45.729,24.296c-14.753,15.028 -33.109,33.731 -68.2,33.731c-35.083,-0 -53.44,-18.703 -68.184,-33.723c-13.328,-13.572 -23.856,-24.304 -45.736,-24.304l-0,-31.472c35.091,0 53.447,18.702 68.199,33.73c13.321,13.572 23.848,24.297 45.721,24.297c21.889,-0 32.416,-10.725 45.745,-24.305c14.744,-15.02 33.1,-33.722 68.184,-33.722c35.083,0 53.447,18.702 68.192,33.722c13.328,13.58 23.855,24.305 45.736,24.305c21.889,-0 32.424,-10.725 45.752,-24.305c14.753,-15.02 33.109,-33.722 68.2,-33.722l0.411,0.001c34.824,0.145 53.094,18.76 67.789,33.729c13.32,13.572 23.848,24.297 45.721,24.297c21.889,-0 32.408,-10.725 45.744,-24.305c14.745,-15.02 33.101,-33.722 68.185,-33.722c35.083,0 53.447,18.702 68.191,33.722c13.329,13.58 23.856,24.305 45.737,24.305c21.889,-0 32.416,-10.725 45.752,-24.305c14.753,-15.02 33.109,-33.722 68.2,-33.722l0,31.472c-21.889,0 -32.416,10.732 -45.752,24.304c-14.753,15.02 -33.109,33.723 -68.2,33.723c-35.083,-0 -53.447,-18.703 -68.192,-33.723c-13.328,-13.572 -23.856,-24.304 -45.736,-24.304c-21.874,0 -32.401,10.732 -45.729,24.296c-14.753,15.028 -33.109,33.731 -68.2,33.731c-35.084,-0 -53.44,-18.703 -68.184,-33.723c-13.329,-13.572 -23.856,-24.304 -45.737,-24.304l-0.255,0.001Zm-0,-173.663c-21.708,0.084 -32.213,10.777 -45.497,24.304c-14.752,15.028 -33.109,33.73 -68.2,33.73c-35.083,-0 -53.447,-18.702 -68.199,-33.73c-13.321,-13.58 -23.848,-24.304 -45.729,-24.304c-21.874,-0 -32.401,10.724 -45.729,24.304c-14.753,15.028 -33.109,33.73 -68.2,33.73c-35.083,-0 -53.44,-18.702 -68.192,-33.73c-13.32,-13.58 -23.848,-24.304 -45.728,-24.304l-0,-31.472c35.091,-0 53.447,18.702 68.199,33.73c13.321,13.58 23.848,24.304 45.721,24.304c21.889,-0 32.416,-10.724 45.737,-24.304c14.752,-15.028 33.108,-33.73 68.192,-33.73c35.083,-0 53.447,18.702 68.199,33.73c13.321,13.58 23.848,24.304 45.729,24.304c21.889,-0 32.424,-10.724 45.752,-24.304c14.753,-15.028 33.109,-33.73 68.2,-33.73l0.411,0.001c34.824,0.145 53.094,18.76 67.789,33.729c13.32,13.58 23.848,24.304 45.721,24.304c21.889,-0 32.408,-10.724 45.737,-24.304c14.752,-15.028 33.108,-33.73 68.192,-33.73c35.083,-0 53.447,18.702 68.199,33.73c13.321,13.58 23.848,24.304 45.729,24.304c21.889,-0 32.416,-10.724 45.752,-24.304c14.753,-15.028 33.109,-33.73 68.2,-33.73l0,31.472c-21.889,-0 -32.416,10.724 -45.752,24.304c-14.753,15.028 -33.109,33.73 -68.2,33.73c-35.083,-0 -53.447,-18.702 -68.2,-33.73c-13.32,-13.58 -23.848,-24.304 -45.728,-24.304c-21.874,-0 -32.401,10.724 -45.729,24.304c-14.753,15.028 -33.109,33.73 -68.2,33.73c-35.084,-0 -53.44,-18.702 -68.192,-33.73c-13.321,-13.58 -23.848,-24.304 -45.729,-24.304l-0.255,0Zm15.976,-185.803l68.199,-68.2l22.251,22.251l-106.186,106.186l-106.187,-106.186l22.251,-22.251l68.2,68.2l-0,-219.029l31.472,-0l-0,219.029Z" style="fill:#333;fill-rule:nonzero;"/></g><g id="Semibold-M"><path d="M11367.3,6226.91c-16.089,0.062 -23.875,7.993 -33.721,18.014c-10.934,11.132 -24.539,24.994 -50.548,24.994c-26.003,-0 -39.614,-13.862 -50.542,-24.994c-9.878,-10.06 -17.681,-18.014 -33.899,-18.014c-16.211,0 -24.014,7.954 -33.893,18.008c-10.934,11.138 -24.539,25 -50.547,25c-26.003,-0 -39.608,-13.862 -50.536,-24.994c-9.879,-10.06 -17.682,-18.014 -33.899,-18.014l0,-23.326c26.008,-0 39.613,13.861 50.548,25c9.872,10.059 17.675,18.007 33.887,18.007c16.223,0 24.026,-7.948 33.904,-18.013c10.929,-11.133 24.534,-24.994 50.536,-24.994c26.003,-0 39.614,13.861 50.542,24.994c9.879,10.065 17.681,18.013 33.899,18.013c16.223,0 24.032,-7.948 33.91,-18.013c10.934,-11.133 24.539,-24.994 50.548,-24.994l0.304,0.001c25.811,0.107 39.352,13.904 50.244,24.999c9.872,10.059 17.675,18.007 33.887,18.007c16.223,0 24.02,-7.948 33.904,-18.013c10.929,-11.133 24.534,-24.994 50.537,-24.994c26.002,-0 39.613,13.861 50.541,24.994c9.879,10.065 17.681,18.013 33.899,18.013c16.223,0 24.026,-7.948 33.91,-18.013c10.935,-11.133 24.54,-24.994 50.548,-24.994l0,23.326c-16.223,0 -24.026,7.954 -33.91,18.014c-10.934,11.132 -24.539,24.994 -50.548,24.994c-26.003,-0 -39.613,-13.862 -50.542,-24.994c-9.878,-10.06 -17.681,-18.014 -33.898,-18.014c-16.212,0 -24.015,7.954 -33.893,18.008c-10.935,11.138 -24.54,25 -50.548,25c-26.003,-0 -39.608,-13.862 -50.536,-24.994c-9.879,-10.06 -17.681,-18.014 -33.899,-18.014l-0.189,0Zm-0,-128.713c-16.089,0.062 -23.875,7.987 -33.721,18.013c-10.934,11.138 -24.539,25 -50.548,25c-26.003,-0 -39.614,-13.862 -50.548,-25c-9.872,-10.065 -17.675,-18.014 -33.893,-18.014c-16.211,0 -24.014,7.949 -33.893,18.014c-10.934,11.138 -24.539,25 -50.547,25c-26.003,-0 -39.608,-13.862 -50.542,-25c-9.873,-10.065 -17.676,-18.014 -33.893,-18.014l0,-23.326c26.008,0 39.613,13.862 50.548,25c9.872,10.065 17.675,18.014 33.887,18.014c16.223,-0 24.026,-7.949 33.899,-18.014c10.934,-11.138 24.539,-25 50.541,-25c26.003,0 39.614,13.862 50.548,25c9.873,10.065 17.675,18.014 33.893,18.014c16.223,-0 24.032,-7.949 33.91,-18.014c10.934,-11.138 24.539,-25 50.548,-25l0.304,0.001c25.811,0.107 39.352,13.904 50.244,24.999c9.872,10.065 17.675,18.014 33.887,18.014c16.223,-0 24.02,-7.949 33.899,-18.014c10.934,-11.138 24.539,-25 50.542,-25c26.002,0 39.613,13.862 50.547,25c9.873,10.065 17.675,18.014 33.893,18.014c16.223,-0 24.026,-7.949 33.91,-18.014c10.935,-11.138 24.54,-25 50.548,-25l0,23.326c-16.223,0 -24.026,7.949 -33.91,18.014c-10.934,11.138 -24.539,25 -50.548,25c-26.003,-0 -39.613,-13.862 -50.548,-25c-9.872,-10.065 -17.675,-18.014 -33.892,-18.014c-16.212,0 -24.015,7.949 -33.893,18.014c-10.935,11.138 -24.54,25 -50.548,25c-26.003,-0 -39.608,-13.862 -50.542,-25c-9.873,-10.065 -17.675,-18.014 -33.893,-18.014l-0.189,0.001Zm11.841,-137.712l50.547,-50.548l16.492,16.492l-78.703,78.702l-78.702,-78.702l16.491,-16.492l50.548,50.548l0,-162.338l23.327,-0l-0,162.338Z" style="fill:#333;fill-rule:nonzero;stroke:#333;stroke-width:19.44px;stroke-linejoin:round;stroke-miterlimit:2;"/></g><g id="Regular-M"><path d="M8050.64,6226.91c-16.089,0.062 -23.875,7.993 -33.721,18.014c-10.934,11.132 -24.539,24.994 -50.548,24.994c-26.003,-0 -39.613,-13.862 -50.542,-24.994c-9.878,-10.06 -17.681,-18.014 -33.898,-18.014c-16.212,0 -24.014,7.954 -33.893,18.008c-10.934,11.138 -24.539,25 -50.548,25c-26.003,-0 -39.608,-13.862 -50.536,-24.994c-9.879,-10.06 -17.681,-18.014 -33.899,-18.014l0,-23.326c26.009,-0 39.614,13.861 50.548,25c9.873,10.059 17.675,18.007 33.887,18.007c16.223,0 24.026,-7.948 33.905,-18.013c10.928,-11.133 24.533,-24.994 50.536,-24.994c26.002,-0 39.613,13.861 50.542,24.994c9.878,10.065 17.681,18.013 33.898,18.013c16.223,0 24.032,-7.948 33.911,-18.013c10.934,-11.133 24.539,-24.994 50.548,-24.994l0.304,0.001c25.81,0.107 39.352,13.904 50.243,24.999c9.873,10.059 17.675,18.007 33.887,18.007c16.224,0 24.02,-7.948 33.905,-18.013c10.928,-11.133 24.533,-24.994 50.536,-24.994c26.003,-0 39.613,13.861 50.542,24.994c9.879,10.065 17.681,18.013 33.898,18.013c16.224,0 24.026,-7.948 33.911,-18.013c10.934,-11.133 24.539,-24.994 50.548,-24.994l-0,23.326c-16.224,0 -24.026,7.954 -33.911,18.014c-10.934,11.132 -24.539,24.994 -50.548,24.994c-26.002,-0 -39.613,-13.862 -50.542,-24.994c-9.878,-10.06 -17.681,-18.014 -33.898,-18.014c-16.212,0 -24.014,7.954 -33.893,18.008c-10.934,11.138 -24.539,25 -50.548,25c-26.003,-0 -39.608,-13.862 -50.536,-24.994c-9.879,-10.06 -17.681,-18.014 -33.898,-18.014l-0.19,0Zm-0,-128.713c-16.089,0.062 -23.875,7.987 -33.721,18.013c-10.934,11.138 -24.539,25 -50.548,25c-26.003,-0 -39.613,-13.862 -50.547,-25c-9.873,-10.065 -17.676,-18.014 -33.893,-18.014c-16.212,0 -24.014,7.949 -33.893,18.014c-10.934,11.138 -24.539,25 -50.548,25c-26.003,-0 -39.608,-13.862 -50.542,-25c-9.873,-10.065 -17.675,-18.014 -33.893,-18.014l0,-23.326c26.009,0 39.614,13.862 50.548,25c9.873,10.065 17.675,18.014 33.887,18.014c16.223,-0 24.026,-7.949 33.899,-18.014c10.934,-11.138 24.539,-25 50.542,-25c26.002,0 39.613,13.862 50.547,25c9.873,10.065 17.676,18.014 33.893,18.014c16.223,-0 24.032,-7.949 33.911,-18.014c10.934,-11.138 24.539,-25 50.548,-25l0.304,0.001c25.81,0.107 39.352,13.904 50.243,24.999c9.873,10.065 17.675,18.014 33.887,18.014c16.224,-0 24.02,-7.949 33.899,-18.014c10.934,-11.138 24.539,-25 50.542,-25c26.003,0 39.613,13.862 50.547,25c9.874,10.065 17.676,18.014 33.893,18.014c16.224,-0 24.026,-7.949 33.911,-18.014c10.934,-11.138 24.539,-25 50.548,-25l-0,23.326c-16.224,0 -24.026,7.949 -33.911,18.014c-10.934,11.138 -24.539,25 -50.548,25c-26.002,-0 -39.613,-13.862 -50.547,-25c-9.873,-10.065 -17.676,-18.014 -33.893,-18.014c-16.212,0 -24.014,7.949 -33.893,18.014c-10.934,11.138 -24.539,25 -50.548,25c-26.003,-0 -39.608,-13.862 -50.542,-25c-9.873,-10.065 -17.675,-18.014 -33.892,-18.014l-0.19,0.001Zm11.841,-137.712l50.547,-50.548l16.492,16.492l-78.702,78.702l-78.703,-78.702l16.492,-16.492l50.548,50.548l-0,-162.338l23.326,-0l-0,162.338Z" style="fill:#333;fill-rule:nonzero;"/></g><g id="Semibold-S"><path d="M11386.8,3821c-13.574,0.052 -20.143,6.743 -28.45,15.197c-9.225,9.392 -20.703,21.087 -42.646,21.087c-21.938,-0 -33.421,-11.695 -42.641,-21.087c-8.334,-8.487 -14.917,-15.198 -28.599,-15.198c-13.678,0 -20.26,6.711 -28.595,15.193c-9.224,9.397 -20.703,21.092 -42.645,21.092c-21.938,-0 -33.417,-11.695 -42.636,-21.087c-8.335,-8.487 -14.918,-15.198 -28.6,-15.198l0,-19.679c21.943,-0 33.421,11.694 42.646,21.091c8.329,8.487 14.912,15.193 28.59,15.193c13.687,-0 20.27,-6.706 28.604,-15.198c9.22,-9.392 20.698,-21.086 42.636,-21.086c21.938,-0 33.421,11.694 42.641,21.086c8.334,8.492 14.917,15.198 28.599,15.198c13.687,-0 20.275,-6.706 28.61,-15.198c9.224,-9.392 20.703,-21.086 42.646,-21.086l0.256,0c21.776,0.091 33.2,11.731 42.389,21.091c8.33,8.487 14.912,15.193 28.59,15.193c13.687,-0 20.265,-6.706 28.604,-15.198c9.22,-9.392 20.698,-21.086 42.636,-21.086c21.938,-0 33.421,11.694 42.641,21.086c8.335,8.492 14.917,15.198 28.599,15.198c13.688,-0 20.271,-6.706 28.61,-15.198c9.225,-9.392 20.703,-21.086 42.646,-21.086l-0,19.679c-13.688,0 -20.27,6.711 -28.61,15.198c-9.224,9.392 -20.703,21.087 -42.646,21.087c-21.937,-0 -33.42,-11.695 -42.64,-21.087c-8.335,-8.487 -14.917,-15.198 -28.6,-15.198c-13.677,0 -20.26,6.711 -28.594,15.193c-9.225,9.397 -20.703,21.092 -42.646,21.092c-21.938,-0 -33.416,-11.695 -42.636,-21.087c-8.335,-8.487 -14.917,-15.198 -28.599,-15.198l-0.16,0.001Zm-0,-108.593c-13.574,0.052 -20.143,6.739 -28.45,15.198c-9.225,9.397 -20.703,21.091 -42.646,21.091c-21.938,0 -33.421,-11.694 -42.645,-21.091c-8.33,-8.492 -14.913,-15.198 -28.595,-15.198c-13.678,-0 -20.26,6.706 -28.595,15.198c-9.224,9.397 -20.703,21.091 -42.645,21.091c-21.938,0 -33.417,-11.694 -42.641,-21.091c-8.33,-8.492 -14.913,-15.198 -28.595,-15.198l0,-19.68c21.943,0 33.421,11.695 42.646,21.092c8.329,8.492 14.912,15.197 28.59,15.197c13.687,0 20.27,-6.705 28.599,-15.197c9.225,-9.397 20.703,-21.092 42.641,-21.092c21.938,0 33.421,11.695 42.646,21.092c8.329,8.492 14.912,15.197 28.594,15.197c13.687,0 20.275,-6.705 28.61,-15.197c9.224,-9.397 20.703,-21.092 42.646,-21.092l0.256,0.001c21.776,0.09 33.2,11.731 42.389,21.091c8.33,8.492 14.912,15.197 28.59,15.197c13.687,0 20.265,-6.705 28.599,-15.197c9.225,-9.397 20.703,-21.092 42.641,-21.092c21.938,0 33.421,11.695 42.646,21.092c8.33,8.492 14.912,15.197 28.594,15.197c13.688,0 20.271,-6.705 28.61,-15.197c9.225,-9.397 20.703,-21.092 42.646,-21.092l-0,19.68c-13.688,-0 -20.27,6.706 -28.61,15.198c-9.224,9.397 -20.703,21.091 -42.646,21.091c-21.937,0 -33.42,-11.694 -42.645,-21.091c-8.33,-8.492 -14.912,-15.198 -28.595,-15.198c-13.677,-0 -20.26,6.706 -28.594,15.198c-9.225,9.397 -20.703,21.091 -42.646,21.091c-21.938,0 -33.416,-11.694 -42.641,-21.091c-8.33,-8.492 -14.912,-15.198 -28.594,-15.198l-0.16,0Zm9.989,-116.184l42.646,-42.646l13.914,13.914l-66.399,66.399l-66.4,-66.399l13.914,-13.914l42.646,42.646l-0,-136.96l19.679,-0l0,136.96Z" style="fill:#333;fill-rule:nonzero;stroke:#333;stroke-width:19.44px;stroke-linejoin:round;stroke-miterlimit:2;"/></g><g id="Regular-S"><path d="M8070.09,3804.33c-13.574,0.052 -20.143,6.743 -28.449,15.197c-9.225,9.392 -20.703,21.087 -42.646,21.087c-21.938,-0 -33.421,-11.695 -42.641,-21.087c-8.334,-8.487 -14.917,-15.197 -28.6,-15.197c-13.677,-0 -20.26,6.71 -28.594,15.192c-9.225,9.397 -20.703,21.092 -42.646,21.092c-21.938,-0 -33.416,-11.695 -42.636,-21.087c-8.334,-8.487 -14.917,-15.197 -28.599,-15.197l-0,-19.68c21.942,-0 33.42,11.695 42.645,21.092c8.33,8.486 14.913,15.192 28.59,15.192c13.687,0 20.27,-6.706 28.604,-15.197c9.22,-9.392 20.698,-21.087 42.636,-21.087c21.938,-0 33.421,11.695 42.641,21.087c8.334,8.491 14.917,15.197 28.6,15.197c13.687,0 20.275,-6.706 28.609,-15.197c9.225,-9.392 20.703,-21.087 42.646,-21.087l0.257,0c21.775,0.091 33.2,11.731 42.389,21.092c8.329,8.486 14.912,15.192 28.589,15.192c13.687,0 20.265,-6.706 28.605,-15.197c9.22,-9.392 20.698,-21.087 42.636,-21.087c21.937,-0 33.42,11.695 42.64,21.087c8.335,8.491 14.918,15.197 28.6,15.197c13.687,0 20.27,-6.706 28.609,-15.197c9.225,-9.392 20.703,-21.087 42.646,-21.087l0,19.68c-13.687,-0 -20.27,6.71 -28.609,15.197c-9.225,9.392 -20.703,21.087 -42.646,21.087c-21.938,-0 -33.421,-11.695 -42.641,-21.087c-8.334,-8.487 -14.917,-15.197 -28.599,-15.197c-13.678,-0 -20.261,6.71 -28.595,15.192c-9.225,9.397 -20.703,21.092 -42.646,21.092c-21.938,-0 -33.416,-11.695 -42.636,-21.087c-8.334,-8.487 -14.917,-15.197 -28.599,-15.197l-0.16,-0Zm-0,-108.592c-13.574,0.052 -20.143,6.738 -28.449,15.197c-9.225,9.397 -20.703,21.091 -42.646,21.091c-21.938,0 -33.421,-11.694 -42.646,-21.091c-8.329,-8.492 -14.912,-15.198 -28.595,-15.198c-13.677,0 -20.26,6.706 -28.594,15.198c-9.225,9.397 -20.703,21.091 -42.646,21.091c-21.938,0 -33.416,-11.694 -42.641,-21.091c-8.329,-8.492 -14.912,-15.198 -28.594,-15.198l-0,-19.679c21.942,-0 33.42,11.694 42.645,21.091c8.33,8.492 14.913,15.198 28.59,15.198c13.687,-0 20.27,-6.706 28.599,-15.198c9.225,-9.397 20.703,-21.091 42.641,-21.091c21.938,-0 33.421,11.694 42.646,21.091c8.329,8.492 14.912,15.198 28.595,15.198c13.687,-0 20.275,-6.706 28.609,-15.198c9.225,-9.397 20.703,-21.091 42.646,-21.091l0.257,0c21.775,0.091 33.2,11.731 42.389,21.091c8.329,8.492 14.912,15.198 28.589,15.198c13.687,-0 20.265,-6.706 28.6,-15.198c9.225,-9.397 20.703,-21.091 42.641,-21.091c21.937,-0 33.42,11.694 42.645,21.091c8.33,8.492 14.913,15.198 28.595,15.198c13.687,-0 20.27,-6.706 28.609,-15.198c9.225,-9.397 20.703,-21.091 42.646,-21.091l0,19.679c-13.687,0 -20.27,6.706 -28.609,15.198c-9.225,9.397 -20.703,21.091 -42.646,21.091c-21.938,0 -33.421,-11.694 -42.646,-21.091c-8.329,-8.492 -14.912,-15.198 -28.594,-15.198c-13.678,0 -20.261,6.706 -28.595,15.198c-9.225,9.397 -20.703,21.091 -42.646,21.091c-21.938,0 -33.416,-11.694 -42.641,-21.091c-8.329,-8.492 -14.912,-15.198 -28.594,-15.198l-0.16,0.001Zm9.99,-116.185l42.645,-42.645l13.914,13.913l-66.399,66.399l-66.399,-66.399l13.913,-13.913l42.646,42.645l0,-136.96l19.68,-0l-0,136.96Z" style="fill:#333;fill-rule:nonzero;"/></g></g></svg>